<?xml version="1.0" encoding="utf-8" standalone="no"?>
<!DOCTYPE svg PUBLIC "-//W3C//DTD SVG 1.1//EN"
  "http://www.w3.org/Graphics/SVG/1.1/DTD/svg11.dtd">
<svg xmlns:xlink="http://www.w3.org/1999/xlink" width="584.39952pt" height="440.39952pt" viewBox="0 0 584.39952 440.39952" xmlns="http://www.w3.org/2000/svg" version="1.1">
 <metadata>
  <rdf:RDF xmlns:dc="http://purl.org/dc/elements/1.1/" xmlns:cc="http://creativecommons.org/ns#" xmlns:rdf="http://www.w3.org/1999/02/22-rdf-syntax-ns#">
   <cc:Work>
    <dc:type rdf:resource="http://purl.org/dc/dcmitype/StillImage"/>
    <dc:date>2026-07-08T11:40:05.266937</dc:date>
    <dc:format>image/svg+xml</dc:format>
    <dc:creator>
     <cc:Agent>
      <dc:title>Matplotlib v3.11.0, https://matplotlib.org/</dc:title>
     </cc:Agent>
    </dc:creator>
   </cc:Work>
  </rdf:RDF>
 </metadata>
 <defs>
  <style type="text/css">*{stroke-linejoin: round; stroke-linecap: butt}</style>
 </defs>
 <g id="figure_1">
  <g id="patch_1">
   <path d="M 0 440.39952 
L 584.39952 440.39952 
L 584.39952 0 
L 0 0 
z
" style="fill: #ffffff"/>
  </g>
  <g id="axes_1">
   <g id="patch_2">
    <path d="M 47.2875 402.19952 
L 567.65577 402.19952 
L 567.65577 22.318125 
L 47.2875 22.318125 
z
" style="fill: #ffffff"/>
   </g>
   <g id="matplotlib.axis_1">
    <g id="xtick_1">
     <g id="line2d_1">
      <path d="M 47.2875 402.19952 
L 47.2875 22.318125 
" clip-path="url(#peda1a62f92)" style="fill: none; stroke-dasharray: 1.85,0.8; stroke-dashoffset: 0; stroke: #b0b0b0; stroke-opacity: 0.7; stroke-width: 0.5"/>
     </g>
     <g id="line2d_2">
      <defs>
       <path id="m9f35ceeffa" d="M 0 0 
L 0 3.5 
" style="stroke: #000000; stroke-width: 0.8"/>
      </defs>
      <g>
       <use xlink:href="#m9f35ceeffa" x="47.2875" y="402.19952" style="stroke: #000000; stroke-width: 0.8"/>
      </g>
     </g>
     <g id="text_1">
      <!-- 0 -->
      <g transform="translate(44.10625 416.797176) scale(0.1 -0.1)">
       <defs>
        <path id="DejaVuSans-13" d="M 2034 4250 
Q 1547 4250 1301 3770 
Q 1056 3291 1056 2328 
Q 1056 1369 1301 889 
Q 1547 409 2034 409 
Q 2525 409 2770 889 
Q 3016 1369 3016 2328 
Q 3016 3291 2770 3770 
Q 2525 4250 2034 4250 
z
M 2034 4750 
Q 2819 4750 3233 4129 
Q 3647 3509 3647 2328 
Q 3647 1150 3233 529 
Q 2819 -91 2034 -91 
Q 1250 -91 836 529 
Q 422 1150 422 2328 
Q 422 3509 836 4129 
Q 1250 4750 2034 4750 
z
" transform="scale(0.015625)"/>
       </defs>
       <use xlink:href="#DejaVuSans-13"/>
      </g>
     </g>
    </g>
    <g id="xtick_2">
     <g id="line2d_3">
      <path d="M 151.361154 402.19952 
L 151.361154 22.318125 
" clip-path="url(#peda1a62f92)" style="fill: none; stroke-dasharray: 1.85,0.8; stroke-dashoffset: 0; stroke: #b0b0b0; stroke-opacity: 0.7; stroke-width: 0.5"/>
     </g>
     <g id="line2d_4">
      <g>
       <use xlink:href="#m9f35ceeffa" x="151.361154" y="402.19952" style="stroke: #000000; stroke-width: 0.8"/>
      </g>
     </g>
     <g id="text_2">
      <!-- 20 -->
      <g transform="translate(144.998654 416.797176) scale(0.1 -0.1)">
       <defs>
        <path id="DejaVuSans-15" d="M 1228 531 
L 3431 531 
L 3431 0 
L 469 0 
L 469 531 
Q 828 903 1448 1529 
Q 2069 2156 2228 2338 
Q 2531 2678 2651 2914 
Q 2772 3150 2772 3378 
Q 2772 3750 2511 3984 
Q 2250 4219 1831 4219 
Q 1534 4219 1204 4116 
Q 875 4013 500 3803 
L 500 4441 
Q 881 4594 1212 4672 
Q 1544 4750 1819 4750 
Q 2544 4750 2975 4387 
Q 3406 4025 3406 3419 
Q 3406 3131 3298 2873 
Q 3191 2616 2906 2266 
Q 2828 2175 2409 1742 
Q 1991 1309 1228 531 
z
" transform="scale(0.015625)"/>
       </defs>
       <use xlink:href="#DejaVuSans-15"/>
       <use xlink:href="#DejaVuSans-13" transform="translate(63.625 0)"/>
      </g>
     </g>
    </g>
    <g id="xtick_3">
     <g id="line2d_5">
      <path d="M 255.434808 402.19952 
L 255.434808 22.318125 
" clip-path="url(#peda1a62f92)" style="fill: none; stroke-dasharray: 1.85,0.8; stroke-dashoffset: 0; stroke: #b0b0b0; stroke-opacity: 0.7; stroke-width: 0.5"/>
     </g>
     <g id="line2d_6">
      <g>
       <use xlink:href="#m9f35ceeffa" x="255.434808" y="402.19952" style="stroke: #000000; stroke-width: 0.8"/>
      </g>
     </g>
     <g id="text_3">
      <!-- 40 -->
      <g transform="translate(249.072308 416.797176) scale(0.1 -0.1)">
       <defs>
        <path id="DejaVuSans-17" d="M 2419 4116 
L 825 1625 
L 2419 1625 
L 2419 4116 
z
M 2253 4666 
L 3047 4666 
L 3047 1625 
L 3713 1625 
L 3713 1100 
L 3047 1100 
L 3047 0 
L 2419 0 
L 2419 1100 
L 313 1100 
L 313 1709 
L 2253 4666 
z
" transform="scale(0.015625)"/>
       </defs>
       <use xlink:href="#DejaVuSans-17"/>
       <use xlink:href="#DejaVuSans-13" transform="translate(63.625 0)"/>
      </g>
     </g>
    </g>
    <g id="xtick_4">
     <g id="line2d_7">
      <path d="M 359.508462 402.19952 
L 359.508462 22.318125 
" clip-path="url(#peda1a62f92)" style="fill: none; stroke-dasharray: 1.85,0.8; stroke-dashoffset: 0; stroke: #b0b0b0; stroke-opacity: 0.7; stroke-width: 0.5"/>
     </g>
     <g id="line2d_8">
      <g>
       <use xlink:href="#m9f35ceeffa" x="359.508462" y="402.19952" style="stroke: #000000; stroke-width: 0.8"/>
      </g>
     </g>
     <g id="text_4">
      <!-- 60 -->
      <g transform="translate(353.145962 416.797176) scale(0.1 -0.1)">
       <defs>
        <path id="DejaVuSans-19" d="M 2113 2584 
Q 1688 2584 1439 2293 
Q 1191 2003 1191 1497 
Q 1191 994 1439 701 
Q 1688 409 2113 409 
Q 2538 409 2786 701 
Q 3034 994 3034 1497 
Q 3034 2003 2786 2293 
Q 2538 2584 2113 2584 
z
M 3366 4563 
L 3366 3988 
Q 3128 4100 2886 4159 
Q 2644 4219 2406 4219 
Q 1781 4219 1451 3797 
Q 1122 3375 1075 2522 
Q 1259 2794 1537 2939 
Q 1816 3084 2150 3084 
Q 2853 3084 3261 2657 
Q 3669 2231 3669 1497 
Q 3669 778 3244 343 
Q 2819 -91 2113 -91 
Q 1303 -91 875 529 
Q 447 1150 447 2328 
Q 447 3434 972 4092 
Q 1497 4750 2381 4750 
Q 2619 4750 2861 4703 
Q 3103 4656 3366 4563 
z
" transform="scale(0.015625)"/>
       </defs>
       <use xlink:href="#DejaVuSans-19"/>
       <use xlink:href="#DejaVuSans-13" transform="translate(63.625 0)"/>
      </g>
     </g>
    </g>
    <g id="xtick_5">
     <g id="line2d_9">
      <path d="M 463.582116 402.19952 
L 463.582116 22.318125 
" clip-path="url(#peda1a62f92)" style="fill: none; stroke-dasharray: 1.85,0.8; stroke-dashoffset: 0; stroke: #b0b0b0; stroke-opacity: 0.7; stroke-width: 0.5"/>
     </g>
     <g id="line2d_10">
      <g>
       <use xlink:href="#m9f35ceeffa" x="463.582116" y="402.19952" style="stroke: #000000; stroke-width: 0.8"/>
      </g>
     </g>
     <g id="text_5">
      <!-- 80 -->
      <g transform="translate(457.219616 416.797176) scale(0.1 -0.1)">
       <defs>
        <path id="DejaVuSans-1b" d="M 2034 2216 
Q 1584 2216 1326 1975 
Q 1069 1734 1069 1313 
Q 1069 891 1326 650 
Q 1584 409 2034 409 
Q 2484 409 2743 651 
Q 3003 894 3003 1313 
Q 3003 1734 2745 1975 
Q 2488 2216 2034 2216 
z
M 1403 2484 
Q 997 2584 770 2862 
Q 544 3141 544 3541 
Q 544 4100 942 4425 
Q 1341 4750 2034 4750 
Q 2731 4750 3128 4425 
Q 3525 4100 3525 3541 
Q 3525 3141 3298 2862 
Q 3072 2584 2669 2484 
Q 3125 2378 3379 2068 
Q 3634 1759 3634 1313 
Q 3634 634 3220 271 
Q 2806 -91 2034 -91 
Q 1263 -91 848 271 
Q 434 634 434 1313 
Q 434 1759 690 2068 
Q 947 2378 1403 2484 
z
M 1172 3481 
Q 1172 3119 1398 2916 
Q 1625 2713 2034 2713 
Q 2441 2713 2670 2916 
Q 2900 3119 2900 3481 
Q 2900 3844 2670 4047 
Q 2441 4250 2034 4250 
Q 1625 4250 1398 4047 
Q 1172 3844 1172 3481 
z
" transform="scale(0.015625)"/>
       </defs>
       <use xlink:href="#DejaVuSans-1b"/>
       <use xlink:href="#DejaVuSans-13" transform="translate(63.625 0)"/>
      </g>
     </g>
    </g>
    <g id="xtick_6">
     <g id="line2d_11">
      <path d="M 567.65577 402.19952 
L 567.65577 22.318125 
" clip-path="url(#peda1a62f92)" style="fill: none; stroke-dasharray: 1.85,0.8; stroke-dashoffset: 0; stroke: #b0b0b0; stroke-opacity: 0.7; stroke-width: 0.5"/>
     </g>
     <g id="line2d_12">
      <g>
       <use xlink:href="#m9f35ceeffa" x="567.65577" y="402.19952" style="stroke: #000000; stroke-width: 0.8"/>
      </g>
     </g>
     <g id="text_6">
      <!-- 100 -->
      <g transform="translate(558.11202 416.797176) scale(0.1 -0.1)">
       <defs>
        <path id="DejaVuSans-14" d="M 794 531 
L 1825 531 
L 1825 4091 
L 703 3866 
L 703 4441 
L 1819 4666 
L 2450 4666 
L 2450 531 
L 3481 531 
L 3481 0 
L 794 0 
L 794 531 
z
" transform="scale(0.015625)"/>
       </defs>
       <use xlink:href="#DejaVuSans-14"/>
       <use xlink:href="#DejaVuSans-13" transform="translate(63.625 0)"/>
       <use xlink:href="#DejaVuSans-13" transform="translate(127.25 0)"/>
      </g>
     </g>
    </g>
    <g id="text_7">
     <!-- FAR, ложный допуск, % -->
     <g transform="translate(245.723979 430.797176) scale(0.1 -0.1)">
      <defs>
       <path id="DejaVuSans-29" d="M 628 4666 
L 3309 4666 
L 3309 4134 
L 1259 4134 
L 1259 2759 
L 3109 2759 
L 3109 2228 
L 1259 2228 
L 1259 0 
L 628 0 
L 628 4666 
z
" transform="scale(0.015625)"/>
       <path id="DejaVuSans-24" d="M 2188 4044 
L 1331 1722 
L 3047 1722 
L 2188 4044 
z
M 1831 4666 
L 2547 4666 
L 4325 0 
L 3669 0 
L 3244 1197 
L 1141 1197 
L 716 0 
L 50 0 
L 1831 4666 
z
" transform="scale(0.015625)"/>
       <path id="DejaVuSans-35" d="M 2841 2188 
Q 3044 2119 3236 1894 
Q 3428 1669 3622 1275 
L 4263 0 
L 3584 0 
L 2988 1197 
Q 2756 1666 2539 1819 
Q 2322 1972 1947 1972 
L 1259 1972 
L 1259 0 
L 628 0 
L 628 4666 
L 2053 4666 
Q 2853 4666 3247 4331 
Q 3641 3997 3641 3322 
Q 3641 2881 3436 2590 
Q 3231 2300 2841 2188 
z
M 1259 4147 
L 1259 2491 
L 2053 2491 
Q 2509 2491 2742 2702 
Q 2975 2913 2975 3322 
Q 2975 3731 2742 3939 
Q 2509 4147 2053 4147 
L 1259 4147 
z
" transform="scale(0.015625)"/>
       <path id="DejaVuSans-f" d="M 750 794 
L 1409 794 
L 1409 256 
L 897 -744 
L 494 -744 
L 750 256 
L 750 794 
z
" transform="scale(0.015625)"/>
       <path id="DejaVuSans-3" transform="scale(0.015625)"/>
       <path id="DejaVuSans-3cf" d="M 238 0 
L 238 478 
Q 806 566 981 959 
Q 1194 1513 1194 2928 
L 1194 3500 
L 3559 3500 
L 3559 0 
L 2984 0 
L 2984 3041 
L 1769 3041 
L 1769 2694 
Q 1769 1344 1494 738 
Q 1200 91 238 0 
z
" transform="scale(0.015625)"/>
       <path id="DejaVuSans-3d2" d="M 1959 3097 
Q 1497 3097 1228 2736 
Q 959 2375 959 1747 
Q 959 1119 1226 758 
Q 1494 397 1959 397 
Q 2419 397 2687 759 
Q 2956 1122 2956 1747 
Q 2956 2369 2687 2733 
Q 2419 3097 1959 3097 
z
M 1959 3584 
Q 2709 3584 3137 3096 
Q 3566 2609 3566 1747 
Q 3566 888 3137 398 
Q 2709 -91 1959 -91 
Q 1206 -91 779 398 
Q 353 888 353 1747 
Q 353 2609 779 3096 
Q 1206 3584 1959 3584 
z
" transform="scale(0.015625)"/>
       <path id="DejaVuSans-3ca" d="M 2597 3500 
L 3169 3500 
L 3169 1856 
L 4697 3500 
L 5366 3500 
L 4109 2153 
L 5547 0 
L 4931 0 
L 3753 1769 
L 3169 1141 
L 3169 0 
L 2597 0 
L 2597 1141 
L 2013 1769 
L 834 0 
L 219 0 
L 1656 2153 
L 400 3500 
L 1069 3500 
L 2597 1856 
L 2597 3500 
z
" transform="scale(0.015625)"/>
       <path id="DejaVuSans-3d1" d="M 581 3500 
L 1159 3500 
L 1159 2072 
L 3025 2072 
L 3025 3500 
L 3603 3500 
L 3603 0 
L 3025 0 
L 3025 1613 
L 1159 1613 
L 1159 0 
L 581 0 
L 581 3500 
z
" transform="scale(0.015625)"/>
       <path id="DejaVuSans-3df" d="M 3909 3500 
L 4484 3500 
L 4484 0 
L 3909 0 
L 3909 3500 
z
M 4197 3584 
L 4197 3584 
z
M 2781 1038 
Q 2781 1319 2576 1466 
Q 2372 1613 1978 1613 
L 1159 1613 
L 1159 459 
L 1978 459 
Q 2372 459 2576 607 
Q 2781 756 2781 1038 
z
M 581 3500 
L 1159 3500 
L 1159 2072 
L 2003 2072 
Q 2672 2072 3033 1817 
Q 3394 1563 3394 1038 
Q 3394 513 3033 256 
Q 2672 0 2003 0 
L 581 0 
L 581 3500 
z
" transform="scale(0.015625)"/>
       <path id="DejaVuSans-3cd" d="M 3578 3500 
L 3578 0 
L 3006 0 
L 3006 2809 
L 1319 0 
L 581 0 
L 581 3500 
L 1153 3500 
L 1153 697 
L 2838 3500 
L 3578 3500 
z
M 1103 4862 
L 1472 4862 
Q 1506 4628 1657 4510 
Q 1809 4393 2081 4393 
Q 2350 4393 2500 4509 
Q 2650 4625 2690 4862 
L 3059 4862 
Q 3028 4415 2781 4190 
Q 2534 3965 2081 3965 
Q 1628 3965 1381 4190 
Q 1134 4415 1103 4862 
z
" transform="scale(0.015625)"/>
       <path id="DejaVuSans-3c8" d="M 1384 459 
L 3053 459 
L 3053 3041 
L 1844 3041 
L 1844 2603 
Q 1844 1316 1475 628 
L 1384 459 
z
M 550 459 
Q 834 584 959 850 
Q 1266 1509 1266 2838 
L 1266 3500 
L 3631 3500 
L 3631 459 
L 4091 459 
L 4091 -884 
L 3631 -884 
L 3631 0 
L 794 0 
L 794 -884 
L 334 -884 
L 334 459 
L 550 459 
z
" transform="scale(0.015625)"/>
       <path id="DejaVuSans-3d3" d="M 3603 3500 
L 3603 0 
L 3025 0 
L 3025 3041 
L 1159 3041 
L 1159 0 
L 581 0 
L 581 3500 
L 3603 3500 
z
" transform="scale(0.015625)"/>
       <path id="DejaVuSans-3d7" d="M 2059 -325 
Q 1816 -950 1584 -1140 
Q 1353 -1331 966 -1331 
L 506 -1331 
L 506 -850 
L 844 -850 
Q 1081 -850 1212 -737 
Q 1344 -625 1503 -206 
L 1606 56 
L 191 3500 
L 800 3500 
L 1894 763 
L 2988 3500 
L 3597 3500 
L 2059 -325 
z
" transform="scale(0.015625)"/>
       <path id="DejaVuSans-3d5" d="M 3122 3366 
L 3122 2828 
Q 2878 2963 2633 3030 
Q 2388 3097 2138 3097 
Q 1578 3097 1268 2742 
Q 959 2388 959 1747 
Q 959 1106 1268 751 
Q 1578 397 2138 397 
Q 2388 397 2633 464 
Q 2878 531 3122 666 
L 3122 134 
Q 2881 22 2623 -34 
Q 2366 -91 2075 -91 
Q 1284 -91 818 406 
Q 353 903 353 1747 
Q 353 2603 823 3093 
Q 1294 3584 2113 3584 
Q 2378 3584 2631 3529 
Q 2884 3475 3122 3366 
z
" transform="scale(0.015625)"/>
       <path id="DejaVuSans-3ce" d="M 581 3500 
L 1153 3500 
L 1153 1856 
L 2775 3500 
L 3481 3500 
L 2144 2147 
L 3653 0 
L 3009 0 
L 1769 1766 
L 1153 1141 
L 1153 0 
L 581 0 
L 581 3500 
z
" transform="scale(0.015625)"/>
       <path id="DejaVuSans-8" d="M 4653 2053 
Q 4381 2053 4226 1822 
Q 4072 1591 4072 1178 
Q 4072 772 4226 539 
Q 4381 306 4653 306 
Q 4919 306 5073 539 
Q 5228 772 5228 1178 
Q 5228 1588 5073 1820 
Q 4919 2053 4653 2053 
z
M 4653 2450 
Q 5147 2450 5437 2106 
Q 5728 1763 5728 1178 
Q 5728 594 5436 251 
Q 5144 -91 4653 -91 
Q 4153 -91 3862 251 
Q 3572 594 3572 1178 
Q 3572 1766 3864 2108 
Q 4156 2450 4653 2450 
z
M 1428 4353 
Q 1159 4353 1004 4120 
Q 850 3888 850 3481 
Q 850 3069 1003 2837 
Q 1156 2606 1428 2606 
Q 1700 2606 1854 2837 
Q 2009 3069 2009 3481 
Q 2009 3884 1853 4118 
Q 1697 4353 1428 4353 
z
M 4250 4750 
L 4750 4750 
L 1831 -91 
L 1331 -91 
L 4250 4750 
z
M 1428 4750 
Q 1922 4750 2215 4408 
Q 2509 4066 2509 3481 
Q 2509 2891 2217 2550 
Q 1925 2209 1428 2209 
Q 931 2209 642 2551 
Q 353 2894 353 3481 
Q 353 4063 643 4406 
Q 934 4750 1428 4750 
z
" transform="scale(0.015625)"/>
      </defs>
      <use xlink:href="#DejaVuSans-29"/>
      <use xlink:href="#DejaVuSans-24" transform="translate(48.34375 0)"/>
      <use xlink:href="#DejaVuSans-35" transform="translate(116.75 0)"/>
      <use xlink:href="#DejaVuSans-f" transform="translate(186.234375 0)"/>
      <use xlink:href="#DejaVuSans-3" transform="translate(218.015625 0)"/>
      <use xlink:href="#DejaVuSans-3cf" transform="translate(249.796875 0)"/>
      <use xlink:href="#DejaVuSans-3d2" transform="translate(313.71875 0)"/>
      <use xlink:href="#DejaVuSans-3ca" transform="translate(374.90625 0)"/>
      <use xlink:href="#DejaVuSans-3d1" transform="translate(465 0)"/>
      <use xlink:href="#DejaVuSans-3df" transform="translate(530.375 0)"/>
      <use xlink:href="#DejaVuSans-3cd" transform="translate(609.328125 0)"/>
      <use xlink:href="#DejaVuSans-3" transform="translate(674.3125 0)"/>
      <use xlink:href="#DejaVuSans-3c8" transform="translate(706.09375 0)"/>
      <use xlink:href="#DejaVuSans-3d2" transform="translate(775.234375 0)"/>
      <use xlink:href="#DejaVuSans-3d3" transform="translate(836.421875 0)"/>
      <use xlink:href="#DejaVuSans-3d7" transform="translate(901.796875 0)"/>
      <use xlink:href="#DejaVuSans-3d5" transform="translate(960.984375 0)"/>
      <use xlink:href="#DejaVuSans-3ce" transform="translate(1015.96875 0)"/>
      <use xlink:href="#DejaVuSans-f" transform="translate(1076.375 0)"/>
      <use xlink:href="#DejaVuSans-3" transform="translate(1108.15625 0)"/>
      <use xlink:href="#DejaVuSans-8" transform="translate(1139.9375 0)"/>
     </g>
    </g>
   </g>
   <g id="matplotlib.axis_2">
    <g id="ytick_1">
     <g id="line2d_13">
      <path d="M 47.2875 402.19952 
L 567.65577 402.19952 
" clip-path="url(#peda1a62f92)" style="fill: none; stroke-dasharray: 1.85,0.8; stroke-dashoffset: 0; stroke: #b0b0b0; stroke-opacity: 0.7; stroke-width: 0.5"/>
     </g>
     <g id="line2d_14">
      <defs>
       <path id="m7287c8b900" d="M 0 0 
L -3.5 0 
" style="stroke: #000000; stroke-width: 0.8"/>
      </defs>
      <g>
       <use xlink:href="#m7287c8b900" x="47.2875" y="402.19952" style="stroke: #000000; stroke-width: 0.8"/>
      </g>
     </g>
     <g id="text_8">
      <!-- 0 -->
      <g transform="translate(33.925 405.998348) scale(0.1 -0.1)">
       <use xlink:href="#DejaVuSans-13"/>
      </g>
     </g>
    </g>
    <g id="ytick_2">
     <g id="line2d_15">
      <path d="M 47.2875 326.223241 
L 567.65577 326.223241 
" clip-path="url(#peda1a62f92)" style="fill: none; stroke-dasharray: 1.85,0.8; stroke-dashoffset: 0; stroke: #b0b0b0; stroke-opacity: 0.7; stroke-width: 0.5"/>
     </g>
     <g id="line2d_16">
      <g>
       <use xlink:href="#m7287c8b900" x="47.2875" y="326.223241" style="stroke: #000000; stroke-width: 0.8"/>
      </g>
     </g>
     <g id="text_9">
      <!-- 20 -->
      <g transform="translate(27.5625 330.022069) scale(0.1 -0.1)">
       <use xlink:href="#DejaVuSans-15"/>
       <use xlink:href="#DejaVuSans-13" transform="translate(63.625 0)"/>
      </g>
     </g>
    </g>
    <g id="ytick_3">
     <g id="line2d_17">
      <path d="M 47.2875 250.246962 
L 567.65577 250.246962 
" clip-path="url(#peda1a62f92)" style="fill: none; stroke-dasharray: 1.85,0.8; stroke-dashoffset: 0; stroke: #b0b0b0; stroke-opacity: 0.7; stroke-width: 0.5"/>
     </g>
     <g id="line2d_18">
      <g>
       <use xlink:href="#m7287c8b900" x="47.2875" y="250.246962" style="stroke: #000000; stroke-width: 0.8"/>
      </g>
     </g>
     <g id="text_10">
      <!-- 40 -->
      <g transform="translate(27.5625 254.04579) scale(0.1 -0.1)">
       <use xlink:href="#DejaVuSans-17"/>
       <use xlink:href="#DejaVuSans-13" transform="translate(63.625 0)"/>
      </g>
     </g>
    </g>
    <g id="ytick_4">
     <g id="line2d_19">
      <path d="M 47.2875 174.270683 
L 567.65577 174.270683 
" clip-path="url(#peda1a62f92)" style="fill: none; stroke-dasharray: 1.85,0.8; stroke-dashoffset: 0; stroke: #b0b0b0; stroke-opacity: 0.7; stroke-width: 0.5"/>
     </g>
     <g id="line2d_20">
      <g>
       <use xlink:href="#m7287c8b900" x="47.2875" y="174.270683" style="stroke: #000000; stroke-width: 0.8"/>
      </g>
     </g>
     <g id="text_11">
      <!-- 60 -->
      <g transform="translate(27.5625 178.069511) scale(0.1 -0.1)">
       <use xlink:href="#DejaVuSans-19"/>
       <use xlink:href="#DejaVuSans-13" transform="translate(63.625 0)"/>
      </g>
     </g>
    </g>
    <g id="ytick_5">
     <g id="line2d_21">
      <path d="M 47.2875 98.294404 
L 567.65577 98.294404 
" clip-path="url(#peda1a62f92)" style="fill: none; stroke-dasharray: 1.85,0.8; stroke-dashoffset: 0; stroke: #b0b0b0; stroke-opacity: 0.7; stroke-width: 0.5"/>
     </g>
     <g id="line2d_22">
      <g>
       <use xlink:href="#m7287c8b900" x="47.2875" y="98.294404" style="stroke: #000000; stroke-width: 0.8"/>
      </g>
     </g>
     <g id="text_12">
      <!-- 80 -->
      <g transform="translate(27.5625 102.093232) scale(0.1 -0.1)">
       <use xlink:href="#DejaVuSans-1b"/>
       <use xlink:href="#DejaVuSans-13" transform="translate(63.625 0)"/>
      </g>
     </g>
    </g>
    <g id="ytick_6">
     <g id="line2d_23">
      <path d="M 47.2875 22.318125 
L 567.65577 22.318125 
" clip-path="url(#peda1a62f92)" style="fill: none; stroke-dasharray: 1.85,0.8; stroke-dashoffset: 0; stroke: #b0b0b0; stroke-opacity: 0.7; stroke-width: 0.5"/>
     </g>
     <g id="line2d_24">
      <g>
       <use xlink:href="#m7287c8b900" x="47.2875" y="22.318125" style="stroke: #000000; stroke-width: 0.8"/>
      </g>
     </g>
     <g id="text_13">
      <!-- 100 -->
      <g transform="translate(21.2 26.116953) scale(0.1 -0.1)">
       <use xlink:href="#DejaVuSans-14"/>
       <use xlink:href="#DejaVuSans-13" transform="translate(63.625 0)"/>
       <use xlink:href="#DejaVuSans-13" transform="translate(127.25 0)"/>
      </g>
     </g>
    </g>
    <g id="text_14">
     <!-- FRR, ложный отказ, % -->
     <g transform="translate(14.797656 270.71976) rotate(-90) scale(0.1 -0.1)">
      <defs>
       <path id="DejaVuSans-3d6" d="M 188 3500 
L 3541 3500 
L 3541 3041 
L 2147 3041 
L 2147 0 
L 1581 0 
L 1581 3041 
L 188 3041 
L 188 3500 
z
" transform="scale(0.015625)"/>
       <path id="DejaVuSans-3c4" d="M 2194 1759 
Q 1497 1759 1228 1600 
Q 959 1441 959 1056 
Q 959 750 1161 570 
Q 1363 391 1709 391 
Q 2188 391 2477 730 
Q 2766 1069 2766 1631 
L 2766 1759 
L 2194 1759 
z
M 3341 1997 
L 3341 0 
L 2766 0 
L 2766 531 
Q 2569 213 2275 61 
Q 1981 -91 1556 -91 
Q 1019 -91 701 211 
Q 384 513 384 1019 
Q 384 1609 779 1909 
Q 1175 2209 1959 2209 
L 2766 2209 
L 2766 2266 
Q 2766 2663 2505 2880 
Q 2244 3097 1772 3097 
Q 1472 3097 1187 3025 
Q 903 2953 641 2809 
L 641 3341 
Q 956 3463 1253 3523 
Q 1550 3584 1831 3584 
Q 2591 3584 2966 3190 
Q 3341 2797 3341 1997 
z
" transform="scale(0.015625)"/>
       <path id="DejaVuSans-3cb" d="M 2206 1888 
Q 2594 1813 2809 1584 
Q 3025 1356 3025 1019 
Q 3025 478 2622 193 
Q 2219 -91 1475 -91 
Q 1225 -91 961 -47 
Q 697 -3 416 84 
L 416 619 
Q 638 503 903 445 
Q 1169 388 1459 388 
Q 1931 388 2195 563 
Q 2459 738 2459 1019 
Q 2459 1294 2225 1461 
Q 1991 1628 1563 1628 
L 1100 1628 
L 1100 2103 
L 1584 2103 
Q 1947 2103 2158 2242 
Q 2369 2381 2369 2600 
Q 2369 2800 2151 2944 
Q 1934 3088 1563 3088 
Q 1341 3088 1089 3047 
Q 838 3006 534 2916 
L 534 3438 
Q 841 3513 1106 3550 
Q 1372 3588 1609 3588 
Q 2222 3588 2576 3342 
Q 2931 3097 2931 2656 
Q 2931 2366 2743 2164 
Q 2556 1963 2206 1888 
z
" transform="scale(0.015625)"/>
      </defs>
      <use xlink:href="#DejaVuSans-29"/>
      <use xlink:href="#DejaVuSans-35" transform="translate(57.515625 0)"/>
      <use xlink:href="#DejaVuSans-35" transform="translate(127 0)"/>
      <use xlink:href="#DejaVuSans-f" transform="translate(196.484375 0)"/>
      <use xlink:href="#DejaVuSans-3" transform="translate(228.265625 0)"/>
      <use xlink:href="#DejaVuSans-3cf" transform="translate(260.046875 0)"/>
      <use xlink:href="#DejaVuSans-3d2" transform="translate(323.96875 0)"/>
      <use xlink:href="#DejaVuSans-3ca" transform="translate(385.15625 0)"/>
      <use xlink:href="#DejaVuSans-3d1" transform="translate(475.25 0)"/>
      <use xlink:href="#DejaVuSans-3df" transform="translate(540.625 0)"/>
      <use xlink:href="#DejaVuSans-3cd" transform="translate(619.578125 0)"/>
      <use xlink:href="#DejaVuSans-3" transform="translate(684.5625 0)"/>
      <use xlink:href="#DejaVuSans-3d2" transform="translate(716.34375 0)"/>
      <use xlink:href="#DejaVuSans-3d6" transform="translate(777.53125 0)"/>
      <use xlink:href="#DejaVuSans-3ce" transform="translate(835.78125 0)"/>
      <use xlink:href="#DejaVuSans-3c4" transform="translate(896.1875 0)"/>
      <use xlink:href="#DejaVuSans-3cb" transform="translate(957.46875 0)"/>
      <use xlink:href="#DejaVuSans-f" transform="translate(1010.640625 0)"/>
      <use xlink:href="#DejaVuSans-3" transform="translate(1042.421875 0)"/>
      <use xlink:href="#DejaVuSans-8" transform="translate(1074.203125 0)"/>
     </g>
    </g>
   </g>
   <g id="line2d_25">
    <path d="M 47.2875 22.411233 
L 47.397185 318.58837 
L 47.399736 318.58837 
L 47.50432 342.424065 
L 47.514523 342.424065 
L 47.621658 352.200425 
L 47.62676 352.200425 
L 47.736445 358.811106 
L 47.741547 358.811106 
L 47.851232 363.932056 
L 47.856334 364.025164 
L 47.960918 368.308141 
L 47.978774 368.308141 
L 48.088459 370.91517 
L 48.09101 370.91517 
L 48.190492 373.242874 
L 48.208348 373.242874 
L 48.302728 374.918822 
L 48.330787 375.01193 
L 48.437922 376.408553 
L 48.445574 376.501661 
L 48.55526 378.177608 
L 48.565463 378.270716 
L 48.675149 379.294906 
L 48.690454 379.294906 
L 48.800139 380.505313 
L 48.843503 380.598421 
L 48.940435 381.622611 
L 48.95829 381.715719 
L 49.062874 382.460585 
L 49.075628 382.553693 
L 49.17511 383.484775 
L 49.228678 383.577883 
L 49.312855 384.322748 
L 49.458252 384.415857 
L 49.560285 384.881398 
L 49.601098 384.974506 
L 49.705682 385.626263 
L 49.720987 385.719371 
L 49.807715 386.464237 
L 49.861282 386.557345 
L 49.965866 387.209102 
L 50.027086 387.30221 
L 50.108712 387.674643 
L 50.19289 387.767751 
L 50.284719 388.047076 
L 50.343388 388.140184 
L 50.343388 388.233292 
L 50.527048 388.3264 
L 50.59592 388.512617 
L 50.664792 388.605725 
L 50.759173 389.071266 
L 50.789783 389.164374 
L 50.858655 389.35059 
L 50.960688 389.443699 
L 51.065272 390.002348 
L 51.078026 390.002348 
L 51.126491 390.37478 
L 51.333108 390.467889 
L 51.412184 391.119646 
L 51.506564 391.212754 
L 51.560132 391.771403 
L 51.672368 391.864511 
L 51.672368 391.95762 
L 51.922349 392.050728 
L 51.922349 392.143836 
L 52.302422 392.236944 
L 52.391701 392.423161 
L 52.468225 392.516269 
L 52.519242 392.702485 
L 52.634029 392.795593 
L 52.692698 393.074918 
L 52.774324 393.168026 
L 52.774324 393.261134 
L 53.437539 393.354242 
L 53.437539 393.447351 
L 53.65946 393.540459 
L 53.664562 393.726675 
L 53.945153 393.819783 
L 53.945153 393.912892 
L 54.269108 394.006 
L 54.312472 394.285324 
L 54.501233 394.378432 
L 54.501233 394.471541 
L 54.758866 394.564649 
L 54.758866 394.657757 
L 55.052211 394.750865 
L 55.11088 395.03019 
L 55.386369 395.123298 
L 55.386369 395.216406 
L 55.781747 395.309514 
L 55.868475 395.588839 
L 56.200082 395.681947 
L 56.274056 395.961272 
L 56.618417 396.05438 
L 56.618417 396.147488 
L 56.763814 396.240596 
L 56.763814 396.333704 
L 57.169395 396.426813 
L 57.21276 396.613029 
L 57.434681 396.706137 
L 57.455088 396.892353 
L 58.136158 396.985462 
L 58.136158 397.07857 
L 58.631018 397.171678 
L 58.641221 397.357894 
L 59.171793 397.451003 
L 59.171793 397.544111 
L 59.896227 397.637219 
L 59.896227 397.730327 
L 60.419146 397.823435 
L 60.419146 397.916543 
L 60.664026 398.009652 
L 60.689534 398.195868 
L 61.681805 398.288976 
L 61.763431 398.568301 
L 63.934183 398.661409 
L 63.934183 398.754517 
L 64.97747 398.847625 
L 64.97747 398.940734 
L 66.908445 399.033842 
L 66.908445 399.12695 
L 69.625073 399.220058 
L 69.625073 399.313166 
L 70.709174 399.406274 
L 70.709174 399.499383 
L 71.198932 399.592491 
L 71.198932 399.685599 
L 71.93357 399.778707 
L 71.93357 399.871815 
L 72.992162 399.964924 
L 72.992162 400.058032 
L 77.172964 400.15114 
L 77.172964 400.244248 
L 77.703536 400.337356 
L 77.703536 400.430464 
L 78.89222 400.523573 
L 78.89222 400.616681 
L 81.835872 400.709789 
L 81.835872 400.802897 
L 82.981192 400.896005 
L 82.981192 400.989114 
L 84.909616 401.082222 
L 84.909616 401.17533 
L 91.801945 401.268438 
L 91.801945 401.361546 
L 93.171737 401.454655 
L 93.276321 401.640871 
L 106.566119 401.733979 
L 106.566119 401.827087 
L 127.176784 401.920195 
L 127.176784 402.013304 
L 266.150823 402.106412 
L 266.150823 402.19952 
L 567.65577 402.19952 
L 567.65577 402.19952 
" clip-path="url(#peda1a62f92)" style="fill: none; stroke: #1f77b4; stroke-width: 2; stroke-linecap: square"/>
   </g>
   <g id="line2d_26">
    <path d="M 47.2875 402.19952 
L 567.65577 22.318125 
" clip-path="url(#peda1a62f92)" style="fill: none; stroke-dasharray: 3.7,1.6; stroke-dashoffset: 0; stroke: #ff7f0e"/>
   </g>
   <g id="patch_3">
    <path d="M 47.2875 402.19952 
L 47.2875 22.318125 
" style="fill: none; stroke: #000000; stroke-width: 0.8; stroke-linejoin: miter; stroke-linecap: square"/>
   </g>
   <g id="patch_4">
    <path d="M 567.65577 402.19952 
L 567.65577 22.318125 
" style="fill: none; stroke: #000000; stroke-width: 0.8; stroke-linejoin: miter; stroke-linecap: square"/>
   </g>
   <g id="patch_5">
    <path d="M 47.2875 402.19952 
L 567.65577 402.19952 
" style="fill: none; stroke: #000000; stroke-width: 0.8; stroke-linejoin: miter; stroke-linecap: square"/>
   </g>
   <g id="patch_6">
    <path d="M 47.2875 22.318125 
L 567.65577 22.318125 
" style="fill: none; stroke: #000000; stroke-width: 0.8; stroke-linejoin: miter; stroke-linecap: square"/>
   </g>
   <g id="PathCollection_1">
    <defs>
     <path id="mbe2512944e" d="M 0 4.1833 
C 1.109424 4.1833 2.173559 3.742521 2.95804 2.95804 
C 3.742521 2.173559 4.1833 1.109424 4.1833 0 
C 4.1833 -1.109424 3.742521 -2.173559 2.95804 -2.95804 
C 2.173559 -3.742521 1.109424 -4.1833 0 -4.1833 
C -1.109424 -4.1833 -2.173559 -3.742521 -2.95804 -2.95804 
C -3.742521 -2.173559 -4.1833 -1.109424 -4.1833 0 
C -4.1833 1.109424 -3.742521 2.173559 -2.95804 2.95804 
C -2.173559 3.742521 -1.109424 4.1833 0 4.1833 
z
" style="stroke: #1f77b4"/>
    </defs>
    <g clip-path="url(#peda1a62f92)">
     <use xlink:href="#mbe2512944e" x="52.491183" y="392.609377" style="fill: #1f77b4; stroke: #1f77b4"/>
    </g>
   </g>
   <g id="PathCollection_2">
    <defs>
     <path id="m6eb4c8c9ad" d="M -4.472136 4.472136 
L 4.472136 -4.472136 
M -4.472136 -4.472136 
L 4.472136 4.472136 
" style="stroke: #ff7f0e; stroke-width: 1.5"/>
    </defs>
    <g clip-path="url(#peda1a62f92)">
     <use xlink:href="#m6eb4c8c9ad" x="56.200082" y="395.681947" style="fill: #ff7f0e; stroke: #ff7f0e; stroke-width: 1.5"/>
    </g>
   </g>
   <g id="text_15">
    <!-- Trade-off между FAR и FRR для baseline v2 -->
    <g transform="translate(175.336635 16.318125) scale(0.12 -0.12)">
     <defs>
      <path id="DejaVuSans-37" d="M -19 4666 
L 3928 4666 
L 3928 4134 
L 2272 4134 
L 2272 0 
L 1638 0 
L 1638 4134 
L -19 4134 
L -19 4666 
z
" transform="scale(0.015625)"/>
      <path id="DejaVuSans-55" d="M 2631 2963 
Q 2534 3019 2420 3045 
Q 2306 3072 2169 3072 
Q 1681 3072 1420 2755 
Q 1159 2438 1159 1844 
L 1159 0 
L 581 0 
L 581 3500 
L 1159 3500 
L 1159 2956 
Q 1341 3275 1631 3429 
Q 1922 3584 2338 3584 
Q 2397 3584 2469 3576 
Q 2541 3569 2628 3553 
L 2631 2963 
z
" transform="scale(0.015625)"/>
      <path id="DejaVuSans-44" d="M 2194 1759 
Q 1497 1759 1228 1600 
Q 959 1441 959 1056 
Q 959 750 1161 570 
Q 1363 391 1709 391 
Q 2188 391 2477 730 
Q 2766 1069 2766 1631 
L 2766 1759 
L 2194 1759 
z
M 3341 1997 
L 3341 0 
L 2766 0 
L 2766 531 
Q 2569 213 2275 61 
Q 1981 -91 1556 -91 
Q 1019 -91 701 211 
Q 384 513 384 1019 
Q 384 1609 779 1909 
Q 1175 2209 1959 2209 
L 2766 2209 
L 2766 2266 
Q 2766 2663 2505 2880 
Q 2244 3097 1772 3097 
Q 1472 3097 1187 3025 
Q 903 2953 641 2809 
L 641 3341 
Q 956 3463 1253 3523 
Q 1550 3584 1831 3584 
Q 2591 3584 2966 3190 
Q 3341 2797 3341 1997 
z
" transform="scale(0.015625)"/>
      <path id="DejaVuSans-47" d="M 2906 2969 
L 2906 4863 
L 3481 4863 
L 3481 0 
L 2906 0 
L 2906 525 
Q 2725 213 2448 61 
Q 2172 -91 1784 -91 
Q 1150 -91 751 415 
Q 353 922 353 1747 
Q 353 2572 751 3078 
Q 1150 3584 1784 3584 
Q 2172 3584 2448 3432 
Q 2725 3281 2906 2969 
z
M 947 1747 
Q 947 1113 1208 752 
Q 1469 391 1925 391 
Q 2381 391 2643 752 
Q 2906 1113 2906 1747 
Q 2906 2381 2643 2742 
Q 2381 3103 1925 3103 
Q 1469 3103 1208 2742 
Q 947 2381 947 1747 
z
" transform="scale(0.015625)"/>
      <path id="DejaVuSans-48" d="M 3597 1894 
L 3597 1613 
L 953 1613 
Q 991 1019 1311 708 
Q 1631 397 2203 397 
Q 2534 397 2845 478 
Q 3156 559 3463 722 
L 3463 178 
Q 3153 47 2828 -22 
Q 2503 -91 2169 -91 
Q 1331 -91 842 396 
Q 353 884 353 1716 
Q 353 2575 817 3079 
Q 1281 3584 2069 3584 
Q 2775 3584 3186 3129 
Q 3597 2675 3597 1894 
z
M 3022 2063 
Q 3016 2534 2758 2815 
Q 2500 3097 2075 3097 
Q 1594 3097 1305 2825 
Q 1016 2553 972 2059 
L 3022 2063 
z
" transform="scale(0.015625)"/>
      <path id="DejaVuSans-10" d="M 313 2009 
L 1997 2009 
L 1997 1497 
L 313 1497 
L 313 2009 
z
" transform="scale(0.015625)"/>
      <path id="DejaVuSans-52" d="M 1959 3097 
Q 1497 3097 1228 2736 
Q 959 2375 959 1747 
Q 959 1119 1226 758 
Q 1494 397 1959 397 
Q 2419 397 2687 759 
Q 2956 1122 2956 1747 
Q 2956 2369 2687 2733 
Q 2419 3097 1959 3097 
z
M 1959 3584 
Q 2709 3584 3137 3096 
Q 3566 2609 3566 1747 
Q 3566 888 3137 398 
Q 2709 -91 1959 -91 
Q 1206 -91 779 398 
Q 353 888 353 1747 
Q 353 2609 779 3096 
Q 1206 3584 1959 3584 
z
" transform="scale(0.015625)"/>
      <path id="DejaVuSans-13ae" d="M 4531 4863 
L 4531 4384 
L 3981 4384 
Q 3672 4384 3551 4259 
Q 3431 4134 3431 3809 
L 3431 3500 
L 4378 3500 
L 4378 3053 
L 3431 3053 
L 3431 0 
L 2853 0 
L 2853 3053 
L 1275 3053 
L 1275 0 
L 697 0 
L 697 3053 
L 147 3053 
L 147 3500 
L 697 3500 
L 697 3744 
Q 697 4328 969 4595 
Q 1241 4863 1831 4863 
L 2375 4863 
L 2375 4384 
L 1825 4384 
Q 1516 4384 1394 4259 
Q 1275 4134 1275 3809 
L 1275 3500 
L 2853 3500 
L 2853 3744 
Q 2853 4328 3125 4595 
Q 3397 4863 3988 4863 
L 4531 4863 
z
" transform="scale(0.015625)"/>
      <path id="DejaVuSans-3d0" d="M 581 3500 
L 1422 3500 
L 2416 1156 
L 3413 3500 
L 4247 3500 
L 4247 0 
L 3669 0 
L 3669 2950 
L 2703 672 
L 2128 672 
L 1159 2950 
L 1159 0 
L 581 0 
L 581 3500 
z
" transform="scale(0.015625)"/>
      <path id="DejaVuSans-3c9" d="M 3597 1894 
L 3597 1613 
L 953 1613 
Q 991 1019 1311 708 
Q 1631 397 2203 397 
Q 2534 397 2845 478 
Q 3156 559 3463 722 
L 3463 178 
Q 3153 47 2828 -22 
Q 2503 -91 2169 -91 
Q 1331 -91 842 396 
Q 353 884 353 1716 
Q 353 2575 817 3079 
Q 1281 3584 2069 3584 
Q 2775 3584 3186 3129 
Q 3597 2675 3597 1894 
z
M 3022 2063 
Q 3016 2534 2758 2815 
Q 2500 3097 2075 3097 
Q 1594 3097 1305 2825 
Q 1016 2553 972 2059 
L 3022 2063 
z
" transform="scale(0.015625)"/>
      <path id="DejaVuSans-3cc" d="M 3578 3500 
L 3578 0 
L 3006 0 
L 3006 2809 
L 1319 0 
L 581 0 
L 581 3500 
L 1153 3500 
L 1153 697 
L 2838 3500 
L 3578 3500 
z
" transform="scale(0.015625)"/>
      <path id="DejaVuSans-3e3" d="M 1181 2491 
Q 1181 2231 1381 2084 
Q 1581 1938 1953 1938 
L 2728 1938 
L 2728 3041 
L 1953 3041 
Q 1581 3041 1381 2897 
Q 1181 2753 1181 2491 
z
M 363 0 
L 1431 1534 
Q 1069 1616 828 1830 
Q 588 2044 588 2491 
Q 588 2997 923 3248 
Q 1259 3500 1938 3500 
L 3306 3500 
L 3306 0 
L 2728 0 
L 2728 1478 
L 2013 1478 
L 981 0 
L 363 0 
z
" transform="scale(0.015625)"/>
      <path id="DejaVuSans-45" d="M 3116 1747 
Q 3116 2381 2855 2742 
Q 2594 3103 2138 3103 
Q 1681 3103 1420 2742 
Q 1159 2381 1159 1747 
Q 1159 1113 1420 752 
Q 1681 391 2138 391 
Q 2594 391 2855 752 
Q 3116 1113 3116 1747 
z
M 1159 2969 
Q 1341 3281 1617 3432 
Q 1894 3584 2278 3584 
Q 2916 3584 3314 3078 
Q 3713 2572 3713 1747 
Q 3713 922 3314 415 
Q 2916 -91 2278 -91 
Q 1894 -91 1617 61 
Q 1341 213 1159 525 
L 1159 0 
L 581 0 
L 581 4863 
L 1159 4863 
L 1159 2969 
z
" transform="scale(0.015625)"/>
      <path id="DejaVuSans-56" d="M 2834 3397 
L 2834 2853 
Q 2591 2978 2328 3040 
Q 2066 3103 1784 3103 
Q 1356 3103 1142 2972 
Q 928 2841 928 2578 
Q 928 2378 1081 2264 
Q 1234 2150 1697 2047 
L 1894 2003 
Q 2506 1872 2764 1633 
Q 3022 1394 3022 966 
Q 3022 478 2636 193 
Q 2250 -91 1575 -91 
Q 1294 -91 989 -36 
Q 684 19 347 128 
L 347 722 
Q 666 556 975 473 
Q 1284 391 1588 391 
Q 1994 391 2212 530 
Q 2431 669 2431 922 
Q 2431 1156 2273 1281 
Q 2116 1406 1581 1522 
L 1381 1569 
Q 847 1681 609 1914 
Q 372 2147 372 2553 
Q 372 3047 722 3315 
Q 1072 3584 1716 3584 
Q 2034 3584 2315 3537 
Q 2597 3491 2834 3397 
z
" transform="scale(0.015625)"/>
      <path id="DejaVuSans-4f" d="M 603 4863 
L 1178 4863 
L 1178 0 
L 603 0 
L 603 4863 
z
" transform="scale(0.015625)"/>
      <path id="DejaVuSans-4c" d="M 603 3500 
L 1178 3500 
L 1178 0 
L 603 0 
L 603 3500 
z
M 603 4863 
L 1178 4863 
L 1178 4134 
L 603 4134 
L 603 4863 
z
" transform="scale(0.015625)"/>
      <path id="DejaVuSans-51" d="M 3513 2113 
L 3513 0 
L 2938 0 
L 2938 2094 
Q 2938 2591 2744 2837 
Q 2550 3084 2163 3084 
Q 1697 3084 1428 2787 
Q 1159 2491 1159 1978 
L 1159 0 
L 581 0 
L 581 3500 
L 1159 3500 
L 1159 2956 
Q 1366 3272 1645 3428 
Q 1925 3584 2291 3584 
Q 2894 3584 3203 3211 
Q 3513 2838 3513 2113 
z
" transform="scale(0.015625)"/>
      <path id="DejaVuSans-59" d="M 191 3500 
L 800 3500 
L 1894 563 
L 2988 3500 
L 3597 3500 
L 2284 0 
L 1503 0 
L 191 3500 
z
" transform="scale(0.015625)"/>
     </defs>
     <use xlink:href="#DejaVuSans-37"/>
     <use xlink:href="#DejaVuSans-55" transform="translate(46.375 0)"/>
     <use xlink:href="#DejaVuSans-44" transform="translate(87.484375 0)"/>
     <use xlink:href="#DejaVuSans-47" transform="translate(148.765625 0)"/>
     <use xlink:href="#DejaVuSans-48" transform="translate(212.25 0)"/>
     <use xlink:href="#DejaVuSans-10" transform="translate(273.78125 0)"/>
     <use xlink:href="#DejaVuSans-52" transform="translate(311.71875 0)"/>
     <use xlink:href="#DejaVuSans-13ae" transform="translate(372.90625 0)"/>
     <use xlink:href="#DejaVuSans-3" transform="translate(441.796875 0)"/>
     <use xlink:href="#DejaVuSans-3d0" transform="translate(473.578125 0)"/>
     <use xlink:href="#DejaVuSans-3c9" transform="translate(549.015625 0)"/>
     <use xlink:href="#DejaVuSans-3ca" transform="translate(610.546875 0)"/>
     <use xlink:href="#DejaVuSans-3c8" transform="translate(700.640625 0)"/>
     <use xlink:href="#DejaVuSans-3d7" transform="translate(769.78125 0)"/>
     <use xlink:href="#DejaVuSans-3" transform="translate(828.96875 0)"/>
     <use xlink:href="#DejaVuSans-29" transform="translate(860.75 0)"/>
     <use xlink:href="#DejaVuSans-24" transform="translate(909.09375 0)"/>
     <use xlink:href="#DejaVuSans-35" transform="translate(977.5 0)"/>
     <use xlink:href="#DejaVuSans-3" transform="translate(1046.984375 0)"/>
     <use xlink:href="#DejaVuSans-3cc" transform="translate(1078.765625 0)"/>
     <use xlink:href="#DejaVuSans-3" transform="translate(1143.75 0)"/>
     <use xlink:href="#DejaVuSans-29" transform="translate(1175.53125 0)"/>
     <use xlink:href="#DejaVuSans-35" transform="translate(1233.046875 0)"/>
     <use xlink:href="#DejaVuSans-35" transform="translate(1302.53125 0)"/>
     <use xlink:href="#DejaVuSans-3" transform="translate(1372.015625 0)"/>
     <use xlink:href="#DejaVuSans-3c8" transform="translate(1403.796875 0)"/>
     <use xlink:href="#DejaVuSans-3cf" transform="translate(1472.9375 0)"/>
     <use xlink:href="#DejaVuSans-3e3" transform="translate(1536.859375 0)"/>
     <use xlink:href="#DejaVuSans-3" transform="translate(1597.015625 0)"/>
     <use xlink:href="#DejaVuSans-45" transform="translate(1628.796875 0)"/>
     <use xlink:href="#DejaVuSans-44" transform="translate(1692.28125 0)"/>
     <use xlink:href="#DejaVuSans-56" transform="translate(1753.5625 0)"/>
     <use xlink:href="#DejaVuSans-48" transform="translate(1805.65625 0)"/>
     <use xlink:href="#DejaVuSans-4f" transform="translate(1867.1875 0)"/>
     <use xlink:href="#DejaVuSans-4c" transform="translate(1894.96875 0)"/>
     <use xlink:href="#DejaVuSans-51" transform="translate(1922.75 0)"/>
     <use xlink:href="#DejaVuSans-48" transform="translate(1986.125 0)"/>
     <use xlink:href="#DejaVuSans-3" transform="translate(2047.65625 0)"/>
     <use xlink:href="#DejaVuSans-59" transform="translate(2079.4375 0)"/>
     <use xlink:href="#DejaVuSans-15" transform="translate(2138.625 0)"/>
    </g>
   </g>
   <g id="legend_1">
    <g id="patch_7">
     <path d="M 53.5875 83.744531 
L 349.929375 83.744531 
Q 351.729375 83.744531 351.729375 81.944531 
L 351.729375 28.618125 
Q 351.729375 26.818125 349.929375 26.818125 
L 53.5875 26.818125 
Q 51.7875 26.818125 51.7875 28.618125 
L 51.7875 81.944531 
Q 51.7875 83.744531 53.5875 83.744531 
z
" style="fill: #ffffff; opacity: 0.8; stroke: #cccccc; stroke-linejoin: miter"/>
    </g>
    <g id="line2d_27">
     <path d="M 55.3875 34.106719 
L 64.3875 34.106719 
L 73.3875 34.106719 
" style="fill: none; stroke: #1f77b4; stroke-width: 2; stroke-linecap: square"/>
    </g>
    <g id="text_16">
     <!-- Кривая trade-off FAR/FRR -->
     <g transform="translate(80.5875 37.256719) scale(0.09 -0.09)">
      <defs>
       <path id="DejaVuSans-3ae" d="M 628 4666 
L 1259 4666 
L 1259 2359 
L 3516 4666 
L 4325 4666 
L 2522 2822 
L 4419 0 
L 3731 0 
L 2113 2403 
L 1259 1531 
L 1259 0 
L 628 0 
L 628 4666 
z
" transform="scale(0.015625)"/>
       <path id="DejaVuSans-3d4" d="M 1159 525 
L 1159 -1331 
L 581 -1331 
L 581 3500 
L 1159 3500 
L 1159 2969 
Q 1341 3281 1617 3432 
Q 1894 3584 2278 3584 
Q 2916 3584 3314 3078 
Q 3713 2572 3713 1747 
Q 3713 922 3314 415 
Q 2916 -91 2278 -91 
Q 1894 -91 1617 61 
Q 1341 213 1159 525 
z
M 3116 1747 
Q 3116 2381 2855 2742 
Q 2594 3103 2138 3103 
Q 1681 3103 1420 2742 
Q 1159 2381 1159 1747 
Q 1159 1113 1420 752 
Q 1681 391 2138 391 
Q 2594 391 2855 752 
Q 3116 1113 3116 1747 
z
" transform="scale(0.015625)"/>
       <path id="DejaVuSans-3c6" d="M 1156 1613 
L 1156 459 
L 1975 459 
Q 2369 459 2575 607 
Q 2781 756 2781 1038 
Q 2781 1319 2575 1466 
Q 2369 1613 1975 1613 
L 1156 1613 
z
M 1156 3041 
L 1156 2072 
L 1913 2072 
Q 2238 2072 2444 2201 
Q 2650 2331 2650 2563 
Q 2650 2794 2444 2917 
Q 2238 3041 1913 3041 
L 1156 3041 
z
M 581 3500 
L 1950 3500 
Q 2566 3500 2897 3275 
Q 3228 3050 3228 2634 
Q 3228 2313 3059 2123 
Q 2891 1934 2559 1888 
Q 2956 1813 3175 1575 
Q 3394 1338 3394 981 
Q 3394 513 3033 256 
Q 2672 0 2003 0 
L 581 0 
L 581 3500 
z
" transform="scale(0.015625)"/>
       <path id="DejaVuSans-57" d="M 1172 4494 
L 1172 3500 
L 2356 3500 
L 2356 3053 
L 1172 3053 
L 1172 1153 
Q 1172 725 1289 603 
Q 1406 481 1766 481 
L 2356 481 
L 2356 0 
L 1766 0 
Q 1100 0 847 248 
Q 594 497 594 1153 
L 594 3053 
L 172 3053 
L 172 3500 
L 594 3500 
L 594 4494 
L 1172 4494 
z
" transform="scale(0.015625)"/>
       <path id="DejaVuSans-12" d="M 1625 4666 
L 2156 4666 
L 531 -594 
L 0 -594 
L 1625 4666 
z
" transform="scale(0.015625)"/>
      </defs>
      <use xlink:href="#DejaVuSans-3ae"/>
      <use xlink:href="#DejaVuSans-3d4" transform="translate(71 0)"/>
      <use xlink:href="#DejaVuSans-3cc" transform="translate(134.484375 0)"/>
      <use xlink:href="#DejaVuSans-3c6" transform="translate(199.46875 0)"/>
      <use xlink:href="#DejaVuSans-3c4" transform="translate(258.40625 0)"/>
      <use xlink:href="#DejaVuSans-3e3" transform="translate(319.6875 0)"/>
      <use xlink:href="#DejaVuSans-3" transform="translate(379.84375 0)"/>
      <use xlink:href="#DejaVuSans-57" transform="translate(411.625 0)"/>
      <use xlink:href="#DejaVuSans-55" transform="translate(450.828125 0)"/>
      <use xlink:href="#DejaVuSans-44" transform="translate(491.9375 0)"/>
      <use xlink:href="#DejaVuSans-47" transform="translate(553.21875 0)"/>
      <use xlink:href="#DejaVuSans-48" transform="translate(616.703125 0)"/>
      <use xlink:href="#DejaVuSans-10" transform="translate(678.234375 0)"/>
      <use xlink:href="#DejaVuSans-52" transform="translate(716.171875 0)"/>
      <use xlink:href="#DejaVuSans-13ae" transform="translate(777.359375 0)"/>
      <use xlink:href="#DejaVuSans-3" transform="translate(846.25 0)"/>
      <use xlink:href="#DejaVuSans-29" transform="translate(878.03125 0)"/>
      <use xlink:href="#DejaVuSans-24" transform="translate(926.375 0)"/>
      <use xlink:href="#DejaVuSans-35" transform="translate(994.78125 0)"/>
      <use xlink:href="#DejaVuSans-12" transform="translate(1064.265625 0)"/>
      <use xlink:href="#DejaVuSans-29" transform="translate(1097.953125 0)"/>
      <use xlink:href="#DejaVuSans-35" transform="translate(1155.46875 0)"/>
      <use xlink:href="#DejaVuSans-35" transform="translate(1224.953125 0)"/>
     </g>
    </g>
    <g id="PathCollection_3">
     <g>
      <use xlink:href="#mbe2512944e" x="64.3875" y="48.548203" style="fill: #1f77b4; stroke: #1f77b4"/>
     </g>
    </g>
    <g id="text_17">
     <!-- Рабочий порог θ = 0,058608 (FAR = 1.00%, FRR = 2.52%) -->
     <g transform="translate(80.5875 50.910703) scale(0.09 -0.09)">
      <defs>
       <path id="DejaVuSans-3b4" d="M 1259 4147 
L 1259 2394 
L 2053 2394 
Q 2494 2394 2734 2622 
Q 2975 2850 2975 3272 
Q 2975 3691 2734 3919 
Q 2494 4147 2053 4147 
L 1259 4147 
z
M 628 4666 
L 2053 4666 
Q 2838 4666 3239 4311 
Q 3641 3956 3641 3272 
Q 3641 2581 3239 2228 
Q 2838 1875 2053 1875 
L 1259 1875 
L 1259 0 
L 628 0 
L 628 4666 
z
" transform="scale(0.015625)"/>
       <path id="DejaVuSans-3c5" d="M 1991 3584 
Q 2741 3584 3169 3096 
Q 3597 2609 3597 1747 
Q 3597 888 3169 398 
Q 2741 -91 1991 -91 
Q 1238 -91 822 384 
Q 406 859 384 1747 
L 366 2463 
Q 350 2834 350 2963 
Q 350 3463 531 3831 
Q 816 4409 1308 4659 
Q 1800 4909 2625 4916 
Q 3006 4919 3175 4972 
L 3334 4516 
Q 3181 4453 3041 4450 
L 2259 4397 
Q 1866 4369 1628 4231 
Q 1006 3866 947 3388 
L 925 3213 
Q 1331 3584 1991 3584 
z
M 1991 3097 
Q 1528 3097 1259 2736 
Q 991 2375 991 1747 
Q 991 1119 1258 758 
Q 1525 397 1991 397 
Q 2450 397 2719 759 
Q 2988 1122 2988 1747 
Q 2988 2369 2719 2733 
Q 2450 3097 1991 3097 
z
" transform="scale(0.015625)"/>
       <path id="DejaVuSans-3db" d="M 2625 0 
L 2625 1472 
L 1553 1472 
Q 1075 1472 756 1769 
Q 469 2038 469 2613 
L 469 3500 
L 1044 3500 
L 1044 2666 
Q 1044 2300 1206 2116 
Q 1372 1931 1697 1931 
L 2625 1931 
L 2625 3500 
L 3200 3500 
L 3200 0 
L 2625 0 
z
" transform="scale(0.015625)"/>
       <path id="DejaVuSans-3c7" d="M 581 0 
L 581 3500 
L 3050 3500 
L 3050 3041 
L 1159 3041 
L 1159 0 
L 581 0 
z
" transform="scale(0.015625)"/>
       <path id="DejaVuSans-34c" d="M 2953 2219 
L 963 2219 
Q 1009 1284 1225 888 
Q 1494 400 1959 400 
Q 2428 400 2688 891 
Q 2916 1322 2953 2219 
z
M 2944 2750 
Q 2856 3638 2688 3950 
Q 2419 4444 1959 4444 
Q 1481 4444 1228 3956 
Q 1028 3563 969 2750 
L 2944 2750 
z
M 1959 4913 
Q 2709 4913 3138 4250 
Q 3566 3591 3566 2422 
Q 3566 1256 3138 594 
Q 2709 -72 1959 -72 
Q 1206 -72 781 594 
Q 353 1256 353 2422 
Q 353 3591 781 4250 
Q 1206 4913 1959 4913 
z
" transform="scale(0.015625)"/>
       <path id="DejaVuSans-20" d="M 678 2906 
L 4684 2906 
L 4684 2381 
L 678 2381 
L 678 2906 
z
M 678 1631 
L 4684 1631 
L 4684 1100 
L 678 1100 
L 678 1631 
z
" transform="scale(0.015625)"/>
       <path id="DejaVuSans-18" d="M 691 4666 
L 3169 4666 
L 3169 4134 
L 1269 4134 
L 1269 2991 
Q 1406 3038 1543 3061 
Q 1681 3084 1819 3084 
Q 2600 3084 3056 2656 
Q 3513 2228 3513 1497 
Q 3513 744 3044 326 
Q 2575 -91 1722 -91 
Q 1428 -91 1123 -41 
Q 819 9 494 109 
L 494 744 
Q 775 591 1075 516 
Q 1375 441 1709 441 
Q 2250 441 2565 725 
Q 2881 1009 2881 1497 
Q 2881 1984 2565 2268 
Q 2250 2553 1709 2553 
Q 1456 2553 1204 2497 
Q 953 2441 691 2322 
L 691 4666 
z
" transform="scale(0.015625)"/>
       <path id="DejaVuSans-b" d="M 1984 4856 
Q 1566 4138 1362 3434 
Q 1159 2731 1159 2009 
Q 1159 1288 1364 580 
Q 1569 -128 1984 -844 
L 1484 -844 
Q 1016 -109 783 600 
Q 550 1309 550 2009 
Q 550 2706 781 3412 
Q 1013 4119 1484 4856 
L 1984 4856 
z
" transform="scale(0.015625)"/>
       <path id="DejaVuSans-11" d="M 684 794 
L 1344 794 
L 1344 0 
L 684 0 
L 684 794 
z
" transform="scale(0.015625)"/>
       <path id="DejaVuSans-c" d="M 513 4856 
L 1013 4856 
Q 1481 4119 1714 3412 
Q 1947 2706 1947 2009 
Q 1947 1309 1714 600 
Q 1481 -109 1013 -844 
L 513 -844 
Q 928 -128 1133 580 
Q 1338 1288 1338 2009 
Q 1338 2731 1133 3434 
Q 928 4138 513 4856 
z
" transform="scale(0.015625)"/>
      </defs>
      <use xlink:href="#DejaVuSans-3b4"/>
      <use xlink:href="#DejaVuSans-3c4" transform="translate(60.296875 0)"/>
      <use xlink:href="#DejaVuSans-3c5" transform="translate(121.578125 0)"/>
      <use xlink:href="#DejaVuSans-3d2" transform="translate(183.25 0)"/>
      <use xlink:href="#DejaVuSans-3db" transform="translate(244.4375 0)"/>
      <use xlink:href="#DejaVuSans-3cc" transform="translate(303.515625 0)"/>
      <use xlink:href="#DejaVuSans-3cd" transform="translate(368.5 0)"/>
      <use xlink:href="#DejaVuSans-3" transform="translate(433.484375 0)"/>
      <use xlink:href="#DejaVuSans-3d3" transform="translate(465.265625 0)"/>
      <use xlink:href="#DejaVuSans-3d2" transform="translate(530.640625 0)"/>
      <use xlink:href="#DejaVuSans-3d4" transform="translate(591.828125 0)"/>
      <use xlink:href="#DejaVuSans-3d2" transform="translate(655.3125 0)"/>
      <use xlink:href="#DejaVuSans-3c7" transform="translate(716.5 0)"/>
      <use xlink:href="#DejaVuSans-3" transform="translate(769.046875 0)"/>
      <use xlink:href="#DejaVuSans-34c" transform="translate(800.828125 0)"/>
      <use xlink:href="#DejaVuSans-3" transform="translate(862.015625 0)"/>
      <use xlink:href="#DejaVuSans-20" transform="translate(893.796875 0)"/>
      <use xlink:href="#DejaVuSans-3" transform="translate(977.59375 0)"/>
      <use xlink:href="#DejaVuSans-13" transform="translate(1009.375 0)"/>
      <use xlink:href="#DejaVuSans-f" transform="translate(1073 0)"/>
      <use xlink:href="#DejaVuSans-13" transform="translate(1104.78125 0)"/>
      <use xlink:href="#DejaVuSans-18" transform="translate(1168.40625 0)"/>
      <use xlink:href="#DejaVuSans-1b" transform="translate(1232.03125 0)"/>
      <use xlink:href="#DejaVuSans-19" transform="translate(1295.65625 0)"/>
      <use xlink:href="#DejaVuSans-13" transform="translate(1359.28125 0)"/>
      <use xlink:href="#DejaVuSans-1b" transform="translate(1422.90625 0)"/>
      <use xlink:href="#DejaVuSans-3" transform="translate(1486.53125 0)"/>
      <use xlink:href="#DejaVuSans-b" transform="translate(1518.3125 0)"/>
      <use xlink:href="#DejaVuSans-29" transform="translate(1557.328125 0)"/>
      <use xlink:href="#DejaVuSans-24" transform="translate(1605.671875 0)"/>
      <use xlink:href="#DejaVuSans-35" transform="translate(1674.078125 0)"/>
      <use xlink:href="#DejaVuSans-3" transform="translate(1743.5625 0)"/>
      <use xlink:href="#DejaVuSans-20" transform="translate(1775.34375 0)"/>
      <use xlink:href="#DejaVuSans-3" transform="translate(1859.140625 0)"/>
      <use xlink:href="#DejaVuSans-14" transform="translate(1890.921875 0)"/>
      <use xlink:href="#DejaVuSans-11" transform="translate(1954.546875 0)"/>
      <use xlink:href="#DejaVuSans-13" transform="translate(1986.328125 0)"/>
      <use xlink:href="#DejaVuSans-13" transform="translate(2049.953125 0)"/>
      <use xlink:href="#DejaVuSans-8" transform="translate(2113.578125 0)"/>
      <use xlink:href="#DejaVuSans-f" transform="translate(2208.59375 0)"/>
      <use xlink:href="#DejaVuSans-3" transform="translate(2240.375 0)"/>
      <use xlink:href="#DejaVuSans-29" transform="translate(2272.15625 0)"/>
      <use xlink:href="#DejaVuSans-35" transform="translate(2329.671875 0)"/>
      <use xlink:href="#DejaVuSans-35" transform="translate(2399.15625 0)"/>
      <use xlink:href="#DejaVuSans-3" transform="translate(2468.640625 0)"/>
      <use xlink:href="#DejaVuSans-20" transform="translate(2500.421875 0)"/>
      <use xlink:href="#DejaVuSans-3" transform="translate(2584.21875 0)"/>
      <use xlink:href="#DejaVuSans-15" transform="translate(2616 0)"/>
      <use xlink:href="#DejaVuSans-11" transform="translate(2679.625 0)"/>
      <use xlink:href="#DejaVuSans-18" transform="translate(2711.40625 0)"/>
      <use xlink:href="#DejaVuSans-15" transform="translate(2775.03125 0)"/>
      <use xlink:href="#DejaVuSans-8" transform="translate(2838.65625 0)"/>
      <use xlink:href="#DejaVuSans-c" transform="translate(2933.671875 0)"/>
     </g>
    </g>
    <g id="PathCollection_4">
     <g>
      <use xlink:href="#m6eb4c8c9ad" x="64.3875" y="62.119219" style="fill: #ff7f0e; stroke: #ff7f0e; stroke-width: 1.5"/>
     </g>
    </g>
    <g id="text_18">
     <!-- Точка EER (θ = 0,027535, EER ≈ 1.71%) -->
     <g transform="translate(80.5875 64.481719) scale(0.09 -0.09)">
      <defs>
       <path id="DejaVuSans-3b6" d="M -19 4666 
L 3928 4666 
L 3928 4134 
L 2272 4134 
L 2272 0 
L 1638 0 
L 1638 4134 
L -19 4134 
L -19 4666 
z
" transform="scale(0.015625)"/>
       <path id="DejaVuSans-28" d="M 628 4666 
L 3578 4666 
L 3578 4134 
L 1259 4134 
L 1259 2753 
L 3481 2753 
L 3481 2222 
L 1259 2222 
L 1259 531 
L 3634 531 
L 3634 0 
L 628 0 
L 628 4666 
z
" transform="scale(0.015625)"/>
       <path id="DejaVuSans-1a" d="M 525 4666 
L 3525 4666 
L 3525 4397 
L 1831 0 
L 1172 0 
L 2766 4134 
L 525 4134 
L 525 4666 
z
" transform="scale(0.015625)"/>
       <path id="DejaVuSans-16" d="M 2597 2516 
Q 3050 2419 3304 2112 
Q 3559 1806 3559 1356 
Q 3559 666 3084 287 
Q 2609 -91 1734 -91 
Q 1441 -91 1130 -33 
Q 819 25 488 141 
L 488 750 
Q 750 597 1062 519 
Q 1375 441 1716 441 
Q 2309 441 2620 675 
Q 2931 909 2931 1356 
Q 2931 1769 2642 2001 
Q 2353 2234 1838 2234 
L 1294 2234 
L 1294 2753 
L 1863 2753 
Q 2328 2753 2575 2939 
Q 2822 3125 2822 3475 
Q 2822 3834 2567 4026 
Q 2313 4219 1838 4219 
Q 1578 4219 1281 4162 
Q 984 4106 628 3988 
L 628 4550 
Q 988 4650 1302 4700 
Q 1616 4750 1894 4750 
Q 2613 4750 3031 4423 
Q 3450 4097 3450 3541 
Q 3450 3153 3228 2886 
Q 3006 2619 2597 2516 
z
" transform="scale(0.015625)"/>
       <path id="DejaVuSans-cd2" d="M 4684 1947 
L 4684 1388 
Q 4356 1144 4076 1036 
Q 3797 928 3494 928 
Q 3150 928 2694 1113 
Q 2663 1125 2641 1134 
Q 2622 1141 2575 1159 
Q 2091 1350 1797 1350 
Q 1522 1350 1253 1231 
Q 984 1113 678 850 
L 678 1409 
Q 1006 1653 1286 1761 
Q 1566 1869 1869 1869 
Q 2213 1869 2672 1684 
Q 2706 1669 2722 1663 
Q 2741 1656 2788 1638 
Q 3272 1447 3566 1447 
Q 3834 1447 4098 1564 
Q 4363 1681 4684 1947 
z
M 4684 3163 
L 4684 2606 
Q 4356 2359 4076 2251 
Q 3797 2144 3494 2144 
Q 3150 2144 2694 2328 
Q 2663 2341 2641 2350 
Q 2622 2356 2575 2375 
Q 2091 2566 1797 2566 
Q 1522 2566 1253 2447 
Q 984 2328 678 2069 
L 678 2625 
Q 1006 2869 1286 2976 
Q 1566 3084 1869 3084 
Q 2213 3084 2672 2900 
Q 2703 2888 2719 2881 
Q 2741 2872 2788 2853 
Q 3272 2663 3566 2663 
Q 3834 2663 4098 2780 
Q 4363 2897 4684 3163 
z
" transform="scale(0.015625)"/>
      </defs>
      <use xlink:href="#DejaVuSans-3b6"/>
      <use xlink:href="#DejaVuSans-3d2" transform="translate(61.078125 0)"/>
      <use xlink:href="#DejaVuSans-3db" transform="translate(122.265625 0)"/>
      <use xlink:href="#DejaVuSans-3ce" transform="translate(181.34375 0)"/>
      <use xlink:href="#DejaVuSans-3c4" transform="translate(241.75 0)"/>
      <use xlink:href="#DejaVuSans-3" transform="translate(303.03125 0)"/>
      <use xlink:href="#DejaVuSans-28" transform="translate(334.8125 0)"/>
      <use xlink:href="#DejaVuSans-28" transform="translate(398 0)"/>
      <use xlink:href="#DejaVuSans-35" transform="translate(461.1875 0)"/>
      <use xlink:href="#DejaVuSans-3" transform="translate(530.671875 0)"/>
      <use xlink:href="#DejaVuSans-b" transform="translate(562.453125 0)"/>
      <use xlink:href="#DejaVuSans-34c" transform="translate(601.46875 0)"/>
      <use xlink:href="#DejaVuSans-3" transform="translate(662.65625 0)"/>
      <use xlink:href="#DejaVuSans-20" transform="translate(694.4375 0)"/>
      <use xlink:href="#DejaVuSans-3" transform="translate(778.234375 0)"/>
      <use xlink:href="#DejaVuSans-13" transform="translate(810.015625 0)"/>
      <use xlink:href="#DejaVuSans-f" transform="translate(873.640625 0)"/>
      <use xlink:href="#DejaVuSans-13" transform="translate(905.421875 0)"/>
      <use xlink:href="#DejaVuSans-15" transform="translate(969.046875 0)"/>
      <use xlink:href="#DejaVuSans-1a" transform="translate(1032.671875 0)"/>
      <use xlink:href="#DejaVuSans-18" transform="translate(1096.296875 0)"/>
      <use xlink:href="#DejaVuSans-16" transform="translate(1159.921875 0)"/>
      <use xlink:href="#DejaVuSans-18" transform="translate(1223.546875 0)"/>
      <use xlink:href="#DejaVuSans-f" transform="translate(1287.171875 0)"/>
      <use xlink:href="#DejaVuSans-3" transform="translate(1318.953125 0)"/>
      <use xlink:href="#DejaVuSans-28" transform="translate(1350.734375 0)"/>
      <use xlink:href="#DejaVuSans-28" transform="translate(1413.921875 0)"/>
      <use xlink:href="#DejaVuSans-35" transform="translate(1477.109375 0)"/>
      <use xlink:href="#DejaVuSans-3" transform="translate(1546.59375 0)"/>
      <use xlink:href="#DejaVuSans-cd2" transform="translate(1578.375 0)"/>
      <use xlink:href="#DejaVuSans-3" transform="translate(1662.171875 0)"/>
      <use xlink:href="#DejaVuSans-14" transform="translate(1693.953125 0)"/>
      <use xlink:href="#DejaVuSans-11" transform="translate(1757.578125 0)"/>
      <use xlink:href="#DejaVuSans-1a" transform="translate(1789.359375 0)"/>
      <use xlink:href="#DejaVuSans-14" transform="translate(1852.984375 0)"/>
      <use xlink:href="#DejaVuSans-8" transform="translate(1916.609375 0)"/>
      <use xlink:href="#DejaVuSans-c" transform="translate(2011.625 0)"/>
     </g>
    </g>
    <g id="line2d_28">
     <path d="M 55.3875 74.832422 
L 64.3875 74.832422 
L 73.3875 74.832422 
" style="fill: none; stroke-dasharray: 3.7,1.6; stroke-dashoffset: 0; stroke: #ff7f0e"/>
    </g>
    <g id="text_19">
     <!-- Линия FAR = FRR -->
     <g transform="translate(80.5875 77.982422) scale(0.09 -0.09)">
      <defs>
       <path id="DejaVuSans-3af" d="M 263 0 
L 263 531 
Q 941 678 1134 1191 
Q 1406 1997 1406 3872 
L 1406 4666 
L 4181 4666 
L 4181 0 
L 3550 0 
L 3550 4134 
L 2034 4134 
L 2034 3559 
Q 2034 1791 1716 966 
Q 1409 175 263 0 
z
" transform="scale(0.015625)"/>
      </defs>
      <use xlink:href="#DejaVuSans-3af"/>
      <use xlink:href="#DejaVuSans-3cc" transform="translate(75.203125 0)"/>
      <use xlink:href="#DejaVuSans-3d1" transform="translate(140.1875 0)"/>
      <use xlink:href="#DejaVuSans-3cc" transform="translate(205.5625 0)"/>
      <use xlink:href="#DejaVuSans-3e3" transform="translate(270.546875 0)"/>
      <use xlink:href="#DejaVuSans-3" transform="translate(330.703125 0)"/>
      <use xlink:href="#DejaVuSans-29" transform="translate(362.484375 0)"/>
      <use xlink:href="#DejaVuSans-24" transform="translate(410.828125 0)"/>
      <use xlink:href="#DejaVuSans-35" transform="translate(479.234375 0)"/>
      <use xlink:href="#DejaVuSans-3" transform="translate(548.71875 0)"/>
      <use xlink:href="#DejaVuSans-20" transform="translate(580.5 0)"/>
      <use xlink:href="#DejaVuSans-3" transform="translate(664.296875 0)"/>
      <use xlink:href="#DejaVuSans-29" transform="translate(696.078125 0)"/>
      <use xlink:href="#DejaVuSans-35" transform="translate(753.59375 0)"/>
      <use xlink:href="#DejaVuSans-35" transform="translate(823.078125 0)"/>
     </g>
    </g>
   </g>
  </g>
 </g>
 <defs>
  <clipPath id="peda1a62f92">
   <rect x="47.2875" y="22.318125" width="520.36827" height="379.881395"/>
  </clipPath>
 </defs>
</svg>
