<?xml version="1.0" encoding="utf-8" standalone="no"?>
<!DOCTYPE svg PUBLIC "-//W3C//DTD SVG 1.1//EN"
  "http://www.w3.org/Graphics/SVG/1.1/DTD/svg11.dtd">
<svg xmlns:xlink="http://www.w3.org/1999/xlink" width="1016.39952pt" height="440.39952pt" viewBox="0 0 1016.39952 440.39952" xmlns="http://www.w3.org/2000/svg" version="1.1">
 <metadata>
  <rdf:RDF xmlns:dc="http://purl.org/dc/elements/1.1/" xmlns:cc="http://creativecommons.org/ns#" xmlns:rdf="http://www.w3.org/1999/02/22-rdf-syntax-ns#">
   <cc:Work>
    <dc:type rdf:resource="http://purl.org/dc/dcmitype/StillImage"/>
    <dc:date>2026-07-08T11:28:46.147726</dc:date>
    <dc:format>image/svg+xml</dc:format>
    <dc:creator>
     <cc:Agent>
      <dc:title>Matplotlib v3.11.0, https://matplotlib.org/</dc:title>
     </cc:Agent>
    </dc:creator>
   </cc:Work>
  </rdf:RDF>
 </metadata>
 <defs>
  <style type="text/css">*{stroke-linejoin: round; stroke-linecap: butt}</style>
 </defs>
 <g id="figure_1">
  <g id="patch_1">
   <path d="M 0 440.39952 
L 1016.39952 440.39952 
L 1016.39952 0 
L 0 0 
z
" style="fill: #ffffff"/>
  </g>
  <g id="axes_1">
   <g id="patch_2">
    <path d="M 47.2875 335.152197 
L 504.751948 335.152197 
L 504.751948 42.52298 
L 47.2875 42.52298 
z
" style="fill: #ffffff"/>
   </g>
   <g id="patch_3">
    <path d="M 68.081339 335.152197 
L 137.394134 335.152197 
L 137.394134 80.464363 
L 68.081339 80.464363 
z
" clip-path="url(#p011f0aac6e)" style="fill: #1f77b4"/>
   </g>
   <g id="patch_4">
    <path d="M 154.722332 335.152197 
L 224.035127 335.152197 
L 224.035127 73.363805 
L 154.722332 73.363805 
z
" clip-path="url(#p011f0aac6e)" style="fill: #1f77b4"/>
   </g>
   <g id="patch_5">
    <path d="M 241.363326 335.152197 
L 310.676121 335.152197 
L 310.676121 69.06043 
L 241.363326 69.06043 
z
" clip-path="url(#p011f0aac6e)" style="fill: #1f77b4"/>
   </g>
   <g id="patch_6">
    <path d="M 328.00432 335.152197 
L 397.317115 335.152197 
L 397.317115 77.595458 
L 328.00432 77.595458 
z
" clip-path="url(#p011f0aac6e)" style="fill: #1f77b4"/>
   </g>
   <g id="patch_7">
    <path d="M 414.645314 335.152197 
L 483.958109 335.152197 
L 483.958109 66.550134 
L 414.645314 66.550134 
z
" clip-path="url(#p011f0aac6e)" style="fill: #1f77b4"/>
   </g>
   <g id="matplotlib.axis_1">
    <g id="xtick_1">
     <g id="line2d_1">
      <defs>
       <path id="m9d4c6058a4" d="M 0 0 
L 0 3.5 
" style="stroke: #000000; stroke-width: 0.8"/>
      </defs>
      <g>
       <use xlink:href="#m9d4c6058a4" x="102.737736" y="335.152197" style="stroke: #000000; stroke-width: 0.8"/>
      </g>
     </g>
     <g id="text_1">
      <!-- mlp_64 -->
      <g transform="translate(71.385243 369.364889) rotate(-35) scale(0.1 -0.1)">
       <defs>
        <path id="DejaVuSans-50" d="M 3328 2828 
Q 3544 3216 3844 3400 
Q 4144 3584 4550 3584 
Q 5097 3584 5394 3201 
Q 5691 2819 5691 2113 
L 5691 0 
L 5113 0 
L 5113 2094 
Q 5113 2597 4934 2840 
Q 4756 3084 4391 3084 
Q 3944 3084 3684 2787 
Q 3425 2491 3425 1978 
L 3425 0 
L 2847 0 
L 2847 2094 
Q 2847 2600 2669 2842 
Q 2491 3084 2119 3084 
Q 1678 3084 1418 2786 
Q 1159 2488 1159 1978 
L 1159 0 
L 581 0 
L 581 3500 
L 1159 3500 
L 1159 2956 
Q 1356 3278 1631 3431 
Q 1906 3584 2284 3584 
Q 2666 3584 2933 3390 
Q 3200 3197 3328 2828 
z
" transform="scale(0.015625)"/>
        <path id="DejaVuSans-4f" d="M 603 4863 
L 1178 4863 
L 1178 0 
L 603 0 
L 603 4863 
z
" transform="scale(0.015625)"/>
        <path id="DejaVuSans-53" d="M 1159 525 
L 1159 -1331 
L 581 -1331 
L 581 3500 
L 1159 3500 
L 1159 2969 
Q 1341 3281 1617 3432 
Q 1894 3584 2278 3584 
Q 2916 3584 3314 3078 
Q 3713 2572 3713 1747 
Q 3713 922 3314 415 
Q 2916 -91 2278 -91 
Q 1894 -91 1617 61 
Q 1341 213 1159 525 
z
M 3116 1747 
Q 3116 2381 2855 2742 
Q 2594 3103 2138 3103 
Q 1681 3103 1420 2742 
Q 1159 2381 1159 1747 
Q 1159 1113 1420 752 
Q 1681 391 2138 391 
Q 2594 391 2855 752 
Q 3116 1113 3116 1747 
z
" transform="scale(0.015625)"/>
        <path id="DejaVuSans-42" d="M 3263 -1063 
L 3263 -1509 
L -63 -1509 
L -63 -1063 
L 3263 -1063 
z
" transform="scale(0.015625)"/>
        <path id="DejaVuSans-19" d="M 2113 2584 
Q 1688 2584 1439 2293 
Q 1191 2003 1191 1497 
Q 1191 994 1439 701 
Q 1688 409 2113 409 
Q 2538 409 2786 701 
Q 3034 994 3034 1497 
Q 3034 2003 2786 2293 
Q 2538 2584 2113 2584 
z
M 3366 4563 
L 3366 3988 
Q 3128 4100 2886 4159 
Q 2644 4219 2406 4219 
Q 1781 4219 1451 3797 
Q 1122 3375 1075 2522 
Q 1259 2794 1537 2939 
Q 1816 3084 2150 3084 
Q 2853 3084 3261 2657 
Q 3669 2231 3669 1497 
Q 3669 778 3244 343 
Q 2819 -91 2113 -91 
Q 1303 -91 875 529 
Q 447 1150 447 2328 
Q 447 3434 972 4092 
Q 1497 4750 2381 4750 
Q 2619 4750 2861 4703 
Q 3103 4656 3366 4563 
z
" transform="scale(0.015625)"/>
        <path id="DejaVuSans-17" d="M 2419 4116 
L 825 1625 
L 2419 1625 
L 2419 4116 
z
M 2253 4666 
L 3047 4666 
L 3047 1625 
L 3713 1625 
L 3713 1100 
L 3047 1100 
L 3047 0 
L 2419 0 
L 2419 1100 
L 313 1100 
L 313 1709 
L 2253 4666 
z
" transform="scale(0.015625)"/>
       </defs>
       <use xlink:href="#DejaVuSans-50"/>
       <use xlink:href="#DejaVuSans-4f" transform="translate(97.40625 0)"/>
       <use xlink:href="#DejaVuSans-53" transform="translate(125.1875 0)"/>
       <use xlink:href="#DejaVuSans-42" transform="translate(188.671875 0)"/>
       <use xlink:href="#DejaVuSans-19" transform="translate(238.671875 0)"/>
       <use xlink:href="#DejaVuSans-17" transform="translate(302.296875 0)"/>
      </g>
     </g>
    </g>
    <g id="xtick_2">
     <g id="line2d_2">
      <g>
       <use xlink:href="#m9d4c6058a4" x="189.37873" y="335.152197" style="stroke: #000000; stroke-width: 0.8"/>
      </g>
     </g>
     <g id="text_2">
      <!-- mlp_128_64 -->
      <g transform="translate(138.294912 383.180912) rotate(-35) scale(0.1 -0.1)">
       <defs>
        <path id="DejaVuSans-14" d="M 794 531 
L 1825 531 
L 1825 4091 
L 703 3866 
L 703 4441 
L 1819 4666 
L 2450 4666 
L 2450 531 
L 3481 531 
L 3481 0 
L 794 0 
L 794 531 
z
" transform="scale(0.015625)"/>
        <path id="DejaVuSans-15" d="M 1228 531 
L 3431 531 
L 3431 0 
L 469 0 
L 469 531 
Q 828 903 1448 1529 
Q 2069 2156 2228 2338 
Q 2531 2678 2651 2914 
Q 2772 3150 2772 3378 
Q 2772 3750 2511 3984 
Q 2250 4219 1831 4219 
Q 1534 4219 1204 4116 
Q 875 4013 500 3803 
L 500 4441 
Q 881 4594 1212 4672 
Q 1544 4750 1819 4750 
Q 2544 4750 2975 4387 
Q 3406 4025 3406 3419 
Q 3406 3131 3298 2873 
Q 3191 2616 2906 2266 
Q 2828 2175 2409 1742 
Q 1991 1309 1228 531 
z
" transform="scale(0.015625)"/>
        <path id="DejaVuSans-1b" d="M 2034 2216 
Q 1584 2216 1326 1975 
Q 1069 1734 1069 1313 
Q 1069 891 1326 650 
Q 1584 409 2034 409 
Q 2484 409 2743 651 
Q 3003 894 3003 1313 
Q 3003 1734 2745 1975 
Q 2488 2216 2034 2216 
z
M 1403 2484 
Q 997 2584 770 2862 
Q 544 3141 544 3541 
Q 544 4100 942 4425 
Q 1341 4750 2034 4750 
Q 2731 4750 3128 4425 
Q 3525 4100 3525 3541 
Q 3525 3141 3298 2862 
Q 3072 2584 2669 2484 
Q 3125 2378 3379 2068 
Q 3634 1759 3634 1313 
Q 3634 634 3220 271 
Q 2806 -91 2034 -91 
Q 1263 -91 848 271 
Q 434 634 434 1313 
Q 434 1759 690 2068 
Q 947 2378 1403 2484 
z
M 1172 3481 
Q 1172 3119 1398 2916 
Q 1625 2713 2034 2713 
Q 2441 2713 2670 2916 
Q 2900 3119 2900 3481 
Q 2900 3844 2670 4047 
Q 2441 4250 2034 4250 
Q 1625 4250 1398 4047 
Q 1172 3844 1172 3481 
z
" transform="scale(0.015625)"/>
       </defs>
       <use xlink:href="#DejaVuSans-50"/>
       <use xlink:href="#DejaVuSans-4f" transform="translate(97.40625 0)"/>
       <use xlink:href="#DejaVuSans-53" transform="translate(125.1875 0)"/>
       <use xlink:href="#DejaVuSans-42" transform="translate(188.671875 0)"/>
       <use xlink:href="#DejaVuSans-14" transform="translate(238.671875 0)"/>
       <use xlink:href="#DejaVuSans-15" transform="translate(302.296875 0)"/>
       <use xlink:href="#DejaVuSans-1b" transform="translate(365.921875 0)"/>
       <use xlink:href="#DejaVuSans-42" transform="translate(429.546875 0)"/>
       <use xlink:href="#DejaVuSans-19" transform="translate(479.546875 0)"/>
       <use xlink:href="#DejaVuSans-17" transform="translate(543.171875 0)"/>
      </g>
     </g>
    </g>
    <g id="xtick_3">
     <g id="line2d_3">
      <g>
       <use xlink:href="#m9d4c6058a4" x="276.019724" y="335.152197" style="stroke: #000000; stroke-width: 0.8"/>
      </g>
     </g>
     <g id="text_3">
      <!-- mlp_256_128 -->
      <g transform="translate(219.724051 386.830292) rotate(-35) scale(0.1 -0.1)">
       <defs>
        <path id="DejaVuSans-18" d="M 691 4666 
L 3169 4666 
L 3169 4134 
L 1269 4134 
L 1269 2991 
Q 1406 3038 1543 3061 
Q 1681 3084 1819 3084 
Q 2600 3084 3056 2656 
Q 3513 2228 3513 1497 
Q 3513 744 3044 326 
Q 2575 -91 1722 -91 
Q 1428 -91 1123 -41 
Q 819 9 494 109 
L 494 744 
Q 775 591 1075 516 
Q 1375 441 1709 441 
Q 2250 441 2565 725 
Q 2881 1009 2881 1497 
Q 2881 1984 2565 2268 
Q 2250 2553 1709 2553 
Q 1456 2553 1204 2497 
Q 953 2441 691 2322 
L 691 4666 
z
" transform="scale(0.015625)"/>
       </defs>
       <use xlink:href="#DejaVuSans-50"/>
       <use xlink:href="#DejaVuSans-4f" transform="translate(97.40625 0)"/>
       <use xlink:href="#DejaVuSans-53" transform="translate(125.1875 0)"/>
       <use xlink:href="#DejaVuSans-42" transform="translate(188.671875 0)"/>
       <use xlink:href="#DejaVuSans-15" transform="translate(238.671875 0)"/>
       <use xlink:href="#DejaVuSans-18" transform="translate(302.296875 0)"/>
       <use xlink:href="#DejaVuSans-19" transform="translate(365.921875 0)"/>
       <use xlink:href="#DejaVuSans-42" transform="translate(429.546875 0)"/>
       <use xlink:href="#DejaVuSans-14" transform="translate(479.546875 0)"/>
       <use xlink:href="#DejaVuSans-15" transform="translate(543.171875 0)"/>
       <use xlink:href="#DejaVuSans-1b" transform="translate(606.796875 0)"/>
      </g>
     </g>
    </g>
    <g id="xtick_4">
     <g id="line2d_4">
      <g>
       <use xlink:href="#m9d4c6058a4" x="362.660718" y="335.152197" style="stroke: #000000; stroke-width: 0.8"/>
      </g>
     </g>
     <g id="text_4">
      <!-- mlp_128_64_dropout -->
      <g transform="translate(275.466374 408.465774) rotate(-35) scale(0.1 -0.1)">
       <defs>
        <path id="DejaVuSans-47" d="M 2906 2969 
L 2906 4863 
L 3481 4863 
L 3481 0 
L 2906 0 
L 2906 525 
Q 2725 213 2448 61 
Q 2172 -91 1784 -91 
Q 1150 -91 751 415 
Q 353 922 353 1747 
Q 353 2572 751 3078 
Q 1150 3584 1784 3584 
Q 2172 3584 2448 3432 
Q 2725 3281 2906 2969 
z
M 947 1747 
Q 947 1113 1208 752 
Q 1469 391 1925 391 
Q 2381 391 2643 752 
Q 2906 1113 2906 1747 
Q 2906 2381 2643 2742 
Q 2381 3103 1925 3103 
Q 1469 3103 1208 2742 
Q 947 2381 947 1747 
z
" transform="scale(0.015625)"/>
        <path id="DejaVuSans-55" d="M 2631 2963 
Q 2534 3019 2420 3045 
Q 2306 3072 2169 3072 
Q 1681 3072 1420 2755 
Q 1159 2438 1159 1844 
L 1159 0 
L 581 0 
L 581 3500 
L 1159 3500 
L 1159 2956 
Q 1341 3275 1631 3429 
Q 1922 3584 2338 3584 
Q 2397 3584 2469 3576 
Q 2541 3569 2628 3553 
L 2631 2963 
z
" transform="scale(0.015625)"/>
        <path id="DejaVuSans-52" d="M 1959 3097 
Q 1497 3097 1228 2736 
Q 959 2375 959 1747 
Q 959 1119 1226 758 
Q 1494 397 1959 397 
Q 2419 397 2687 759 
Q 2956 1122 2956 1747 
Q 2956 2369 2687 2733 
Q 2419 3097 1959 3097 
z
M 1959 3584 
Q 2709 3584 3137 3096 
Q 3566 2609 3566 1747 
Q 3566 888 3137 398 
Q 2709 -91 1959 -91 
Q 1206 -91 779 398 
Q 353 888 353 1747 
Q 353 2609 779 3096 
Q 1206 3584 1959 3584 
z
" transform="scale(0.015625)"/>
        <path id="DejaVuSans-58" d="M 544 1381 
L 544 3500 
L 1119 3500 
L 1119 1403 
Q 1119 906 1312 657 
Q 1506 409 1894 409 
Q 2359 409 2629 706 
Q 2900 1003 2900 1516 
L 2900 3500 
L 3475 3500 
L 3475 0 
L 2900 0 
L 2900 538 
Q 2691 219 2414 64 
Q 2138 -91 1772 -91 
Q 1169 -91 856 284 
Q 544 659 544 1381 
z
M 1991 3584 
L 1991 3584 
z
" transform="scale(0.015625)"/>
        <path id="DejaVuSans-57" d="M 1172 4494 
L 1172 3500 
L 2356 3500 
L 2356 3053 
L 1172 3053 
L 1172 1153 
Q 1172 725 1289 603 
Q 1406 481 1766 481 
L 2356 481 
L 2356 0 
L 1766 0 
Q 1100 0 847 248 
Q 594 497 594 1153 
L 594 3053 
L 172 3053 
L 172 3500 
L 594 3500 
L 594 4494 
L 1172 4494 
z
" transform="scale(0.015625)"/>
       </defs>
       <use xlink:href="#DejaVuSans-50"/>
       <use xlink:href="#DejaVuSans-4f" transform="translate(97.40625 0)"/>
       <use xlink:href="#DejaVuSans-53" transform="translate(125.1875 0)"/>
       <use xlink:href="#DejaVuSans-42" transform="translate(188.671875 0)"/>
       <use xlink:href="#DejaVuSans-14" transform="translate(238.671875 0)"/>
       <use xlink:href="#DejaVuSans-15" transform="translate(302.296875 0)"/>
       <use xlink:href="#DejaVuSans-1b" transform="translate(365.921875 0)"/>
       <use xlink:href="#DejaVuSans-42" transform="translate(429.546875 0)"/>
       <use xlink:href="#DejaVuSans-19" transform="translate(479.546875 0)"/>
       <use xlink:href="#DejaVuSans-17" transform="translate(543.171875 0)"/>
       <use xlink:href="#DejaVuSans-42" transform="translate(606.796875 0)"/>
       <use xlink:href="#DejaVuSans-47" transform="translate(656.796875 0)"/>
       <use xlink:href="#DejaVuSans-55" transform="translate(720.28125 0)"/>
       <use xlink:href="#DejaVuSans-52" transform="translate(759.1875 0)"/>
       <use xlink:href="#DejaVuSans-53" transform="translate(820.375 0)"/>
       <use xlink:href="#DejaVuSans-52" transform="translate(883.859375 0)"/>
       <use xlink:href="#DejaVuSans-58" transform="translate(945.046875 0)"/>
       <use xlink:href="#DejaVuSans-57" transform="translate(1008.421875 0)"/>
      </g>
     </g>
    </g>
    <g id="xtick_5">
     <g id="line2d_5">
      <g>
       <use xlink:href="#m9d4c6058a4" x="449.301711" y="335.152197" style="stroke: #000000; stroke-width: 0.8"/>
      </g>
     </g>
     <g id="text_5">
      <!-- mlp_128_64_batchnorm -->
      <g transform="translate(349.588421 417.231635) rotate(-35) scale(0.1 -0.1)">
       <defs>
        <path id="DejaVuSans-45" d="M 3116 1747 
Q 3116 2381 2855 2742 
Q 2594 3103 2138 3103 
Q 1681 3103 1420 2742 
Q 1159 2381 1159 1747 
Q 1159 1113 1420 752 
Q 1681 391 2138 391 
Q 2594 391 2855 752 
Q 3116 1113 3116 1747 
z
M 1159 2969 
Q 1341 3281 1617 3432 
Q 1894 3584 2278 3584 
Q 2916 3584 3314 3078 
Q 3713 2572 3713 1747 
Q 3713 922 3314 415 
Q 2916 -91 2278 -91 
Q 1894 -91 1617 61 
Q 1341 213 1159 525 
L 1159 0 
L 581 0 
L 581 4863 
L 1159 4863 
L 1159 2969 
z
" transform="scale(0.015625)"/>
        <path id="DejaVuSans-44" d="M 2194 1759 
Q 1497 1759 1228 1600 
Q 959 1441 959 1056 
Q 959 750 1161 570 
Q 1363 391 1709 391 
Q 2188 391 2477 730 
Q 2766 1069 2766 1631 
L 2766 1759 
L 2194 1759 
z
M 3341 1997 
L 3341 0 
L 2766 0 
L 2766 531 
Q 2569 213 2275 61 
Q 1981 -91 1556 -91 
Q 1019 -91 701 211 
Q 384 513 384 1019 
Q 384 1609 779 1909 
Q 1175 2209 1959 2209 
L 2766 2209 
L 2766 2266 
Q 2766 2663 2505 2880 
Q 2244 3097 1772 3097 
Q 1472 3097 1187 3025 
Q 903 2953 641 2809 
L 641 3341 
Q 956 3463 1253 3523 
Q 1550 3584 1831 3584 
Q 2591 3584 2966 3190 
Q 3341 2797 3341 1997 
z
" transform="scale(0.015625)"/>
        <path id="DejaVuSans-46" d="M 3122 3366 
L 3122 2828 
Q 2878 2963 2633 3030 
Q 2388 3097 2138 3097 
Q 1578 3097 1268 2742 
Q 959 2388 959 1747 
Q 959 1106 1268 751 
Q 1578 397 2138 397 
Q 2388 397 2633 464 
Q 2878 531 3122 666 
L 3122 134 
Q 2881 22 2623 -34 
Q 2366 -91 2075 -91 
Q 1284 -91 818 406 
Q 353 903 353 1747 
Q 353 2603 823 3093 
Q 1294 3584 2113 3584 
Q 2378 3584 2631 3529 
Q 2884 3475 3122 3366 
z
" transform="scale(0.015625)"/>
        <path id="DejaVuSans-4b" d="M 3513 2113 
L 3513 0 
L 2938 0 
L 2938 2094 
Q 2938 2591 2744 2837 
Q 2550 3084 2163 3084 
Q 1697 3084 1428 2787 
Q 1159 2491 1159 1978 
L 1159 0 
L 581 0 
L 581 4863 
L 1159 4863 
L 1159 2956 
Q 1366 3272 1645 3428 
Q 1925 3584 2291 3584 
Q 2894 3584 3203 3211 
Q 3513 2838 3513 2113 
z
" transform="scale(0.015625)"/>
        <path id="DejaVuSans-51" d="M 3513 2113 
L 3513 0 
L 2938 0 
L 2938 2094 
Q 2938 2591 2744 2837 
Q 2550 3084 2163 3084 
Q 1697 3084 1428 2787 
Q 1159 2491 1159 1978 
L 1159 0 
L 581 0 
L 581 3500 
L 1159 3500 
L 1159 2956 
Q 1366 3272 1645 3428 
Q 1925 3584 2291 3584 
Q 2894 3584 3203 3211 
Q 3513 2838 3513 2113 
z
" transform="scale(0.015625)"/>
       </defs>
       <use xlink:href="#DejaVuSans-50"/>
       <use xlink:href="#DejaVuSans-4f" transform="translate(97.40625 0)"/>
       <use xlink:href="#DejaVuSans-53" transform="translate(125.1875 0)"/>
       <use xlink:href="#DejaVuSans-42" transform="translate(188.671875 0)"/>
       <use xlink:href="#DejaVuSans-14" transform="translate(238.671875 0)"/>
       <use xlink:href="#DejaVuSans-15" transform="translate(302.296875 0)"/>
       <use xlink:href="#DejaVuSans-1b" transform="translate(365.921875 0)"/>
       <use xlink:href="#DejaVuSans-42" transform="translate(429.546875 0)"/>
       <use xlink:href="#DejaVuSans-19" transform="translate(479.546875 0)"/>
       <use xlink:href="#DejaVuSans-17" transform="translate(543.171875 0)"/>
       <use xlink:href="#DejaVuSans-42" transform="translate(606.796875 0)"/>
       <use xlink:href="#DejaVuSans-45" transform="translate(656.796875 0)"/>
       <use xlink:href="#DejaVuSans-44" transform="translate(720.28125 0)"/>
       <use xlink:href="#DejaVuSans-57" transform="translate(781.5625 0)"/>
       <use xlink:href="#DejaVuSans-46" transform="translate(820.765625 0)"/>
       <use xlink:href="#DejaVuSans-4b" transform="translate(875.75 0)"/>
       <use xlink:href="#DejaVuSans-51" transform="translate(939.125 0)"/>
       <use xlink:href="#DejaVuSans-52" transform="translate(1002.5 0)"/>
       <use xlink:href="#DejaVuSans-55" transform="translate(1063.6875 0)"/>
       <use xlink:href="#DejaVuSans-50" transform="translate(1103.046875 0)"/>
      </g>
     </g>
    </g>
    <g id="text_6">
     <!-- MLP-архитектура -->
     <g transform="translate(230.644724 430.797176) scale(0.1 -0.1)">
      <defs>
       <path id="DejaVuSans-30" d="M 628 4666 
L 1569 4666 
L 2759 1491 
L 3956 4666 
L 4897 4666 
L 4897 0 
L 4281 0 
L 4281 4097 
L 3078 897 
L 2444 897 
L 1241 4097 
L 1241 0 
L 628 0 
L 628 4666 
z
" transform="scale(0.015625)"/>
       <path id="DejaVuSans-2f" d="M 628 4666 
L 1259 4666 
L 1259 531 
L 3531 531 
L 3531 0 
L 628 0 
L 628 4666 
z
" transform="scale(0.015625)"/>
       <path id="DejaVuSans-33" d="M 1259 4147 
L 1259 2394 
L 2053 2394 
Q 2494 2394 2734 2622 
Q 2975 2850 2975 3272 
Q 2975 3691 2734 3919 
Q 2494 4147 2053 4147 
L 1259 4147 
z
M 628 4666 
L 2053 4666 
Q 2838 4666 3239 4311 
Q 3641 3956 3641 3272 
Q 3641 2581 3239 2228 
Q 2838 1875 2053 1875 
L 1259 1875 
L 1259 0 
L 628 0 
L 628 4666 
z
" transform="scale(0.015625)"/>
       <path id="DejaVuSans-10" d="M 313 2009 
L 1997 2009 
L 1997 1497 
L 313 1497 
L 313 2009 
z
" transform="scale(0.015625)"/>
       <path id="DejaVuSans-3c4" d="M 2194 1759 
Q 1497 1759 1228 1600 
Q 959 1441 959 1056 
Q 959 750 1161 570 
Q 1363 391 1709 391 
Q 2188 391 2477 730 
Q 2766 1069 2766 1631 
L 2766 1759 
L 2194 1759 
z
M 3341 1997 
L 3341 0 
L 2766 0 
L 2766 531 
Q 2569 213 2275 61 
Q 1981 -91 1556 -91 
Q 1019 -91 701 211 
Q 384 513 384 1019 
Q 384 1609 779 1909 
Q 1175 2209 1959 2209 
L 2766 2209 
L 2766 2266 
Q 2766 2663 2505 2880 
Q 2244 3097 1772 3097 
Q 1472 3097 1187 3025 
Q 903 2953 641 2809 
L 641 3341 
Q 956 3463 1253 3523 
Q 1550 3584 1831 3584 
Q 2591 3584 2966 3190 
Q 3341 2797 3341 1997 
z
" transform="scale(0.015625)"/>
       <path id="DejaVuSans-3d4" d="M 1159 525 
L 1159 -1331 
L 581 -1331 
L 581 3500 
L 1159 3500 
L 1159 2969 
Q 1341 3281 1617 3432 
Q 1894 3584 2278 3584 
Q 2916 3584 3314 3078 
Q 3713 2572 3713 1747 
Q 3713 922 3314 415 
Q 2916 -91 2278 -91 
Q 1894 -91 1617 61 
Q 1341 213 1159 525 
z
M 3116 1747 
Q 3116 2381 2855 2742 
Q 2594 3103 2138 3103 
Q 1681 3103 1420 2742 
Q 1159 2381 1159 1747 
Q 1159 1113 1420 752 
Q 1681 391 2138 391 
Q 2594 391 2855 752 
Q 3116 1113 3116 1747 
z
" transform="scale(0.015625)"/>
       <path id="DejaVuSans-3d9" d="M 3513 3500 
L 2247 1797 
L 3578 0 
L 2900 0 
L 1881 1375 
L 863 0 
L 184 0 
L 1544 1831 
L 300 3500 
L 978 3500 
L 1906 2253 
L 2834 3500 
L 3513 3500 
z
" transform="scale(0.015625)"/>
       <path id="DejaVuSans-3cc" d="M 3578 3500 
L 3578 0 
L 3006 0 
L 3006 2809 
L 1319 0 
L 581 0 
L 581 3500 
L 1153 3500 
L 1153 697 
L 2838 3500 
L 3578 3500 
z
" transform="scale(0.015625)"/>
       <path id="DejaVuSans-3d6" d="M 188 3500 
L 3541 3500 
L 3541 3041 
L 2147 3041 
L 2147 0 
L 1581 0 
L 1581 3041 
L 188 3041 
L 188 3500 
z
" transform="scale(0.015625)"/>
       <path id="DejaVuSans-3c9" d="M 3597 1894 
L 3597 1613 
L 953 1613 
Q 991 1019 1311 708 
Q 1631 397 2203 397 
Q 2534 397 2845 478 
Q 3156 559 3463 722 
L 3463 178 
Q 3153 47 2828 -22 
Q 2503 -91 2169 -91 
Q 1331 -91 842 396 
Q 353 884 353 1716 
Q 353 2575 817 3079 
Q 1281 3584 2069 3584 
Q 2775 3584 3186 3129 
Q 3597 2675 3597 1894 
z
M 3022 2063 
Q 3016 2534 2758 2815 
Q 2500 3097 2075 3097 
Q 1594 3097 1305 2825 
Q 1016 2553 972 2059 
L 3022 2063 
z
" transform="scale(0.015625)"/>
       <path id="DejaVuSans-3ce" d="M 581 3500 
L 1153 3500 
L 1153 1856 
L 2775 3500 
L 3481 3500 
L 2144 2147 
L 3653 0 
L 3009 0 
L 1769 1766 
L 1153 1141 
L 1153 0 
L 581 0 
L 581 3500 
z
" transform="scale(0.015625)"/>
       <path id="DejaVuSans-3d7" d="M 2059 -325 
Q 1816 -950 1584 -1140 
Q 1353 -1331 966 -1331 
L 506 -1331 
L 506 -850 
L 844 -850 
Q 1081 -850 1212 -737 
Q 1344 -625 1503 -206 
L 1606 56 
L 191 3500 
L 800 3500 
L 1894 763 
L 2988 3500 
L 3597 3500 
L 2059 -325 
z
" transform="scale(0.015625)"/>
      </defs>
      <use xlink:href="#DejaVuSans-30"/>
      <use xlink:href="#DejaVuSans-2f" transform="translate(86.28125 0)"/>
      <use xlink:href="#DejaVuSans-33" transform="translate(142 0)"/>
      <use xlink:href="#DejaVuSans-10" transform="translate(200.09375 0)"/>
      <use xlink:href="#DejaVuSans-3c4" transform="translate(236.171875 0)"/>
      <use xlink:href="#DejaVuSans-3d4" transform="translate(297.453125 0)"/>
      <use xlink:href="#DejaVuSans-3d9" transform="translate(360.9375 0)"/>
      <use xlink:href="#DejaVuSans-3cc" transform="translate(420.125 0)"/>
      <use xlink:href="#DejaVuSans-3d6" transform="translate(485.109375 0)"/>
      <use xlink:href="#DejaVuSans-3c9" transform="translate(543.359375 0)"/>
      <use xlink:href="#DejaVuSans-3ce" transform="translate(604.890625 0)"/>
      <use xlink:href="#DejaVuSans-3d6" transform="translate(665.296875 0)"/>
      <use xlink:href="#DejaVuSans-3d7" transform="translate(723.546875 0)"/>
      <use xlink:href="#DejaVuSans-3d4" transform="translate(782.734375 0)"/>
      <use xlink:href="#DejaVuSans-3c4" transform="translate(846.21875 0)"/>
     </g>
    </g>
   </g>
   <g id="matplotlib.axis_2">
    <g id="ytick_1">
     <g id="line2d_6">
      <path d="M 47.2875 335.152197 
L 504.751948 335.152197 
" clip-path="url(#p011f0aac6e)" style="fill: none; stroke-dasharray: 1.85,0.8; stroke-dashoffset: 0; stroke: #b0b0b0; stroke-opacity: 0.7; stroke-width: 0.5"/>
     </g>
     <g id="line2d_7">
      <defs>
       <path id="mda3b3154be" d="M 0 0 
L -3.5 0 
" style="stroke: #000000; stroke-width: 0.8"/>
      </defs>
      <g>
       <use xlink:href="#mda3b3154be" x="47.2875" y="335.152197" style="stroke: #000000; stroke-width: 0.8"/>
      </g>
     </g>
     <g id="text_7">
      <!-- 0 -->
      <g transform="translate(33.925 338.951025) scale(0.1 -0.1)">
       <defs>
        <path id="DejaVuSans-13" d="M 2034 4250 
Q 1547 4250 1301 3770 
Q 1056 3291 1056 2328 
Q 1056 1369 1301 889 
Q 1547 409 2034 409 
Q 2525 409 2770 889 
Q 3016 1369 3016 2328 
Q 3016 3291 2770 3770 
Q 2525 4250 2034 4250 
z
M 2034 4750 
Q 2819 4750 3233 4129 
Q 3647 3509 3647 2328 
Q 3647 1150 3233 529 
Q 2819 -91 2034 -91 
Q 1250 -91 836 529 
Q 422 1150 422 2328 
Q 422 3509 836 4129 
Q 1250 4750 2034 4750 
z
" transform="scale(0.015625)"/>
       </defs>
       <use xlink:href="#DejaVuSans-13"/>
      </g>
     </g>
    </g>
    <g id="ytick_2">
     <g id="line2d_8">
      <path d="M 47.2875 276.626354 
L 504.751948 276.626354 
" clip-path="url(#p011f0aac6e)" style="fill: none; stroke-dasharray: 1.85,0.8; stroke-dashoffset: 0; stroke: #b0b0b0; stroke-opacity: 0.7; stroke-width: 0.5"/>
     </g>
     <g id="line2d_9">
      <g>
       <use xlink:href="#mda3b3154be" x="47.2875" y="276.626354" style="stroke: #000000; stroke-width: 0.8"/>
      </g>
     </g>
     <g id="text_8">
      <!-- 20 -->
      <g transform="translate(27.5625 280.425182) scale(0.1 -0.1)">
       <use xlink:href="#DejaVuSans-15"/>
       <use xlink:href="#DejaVuSans-13" transform="translate(63.625 0)"/>
      </g>
     </g>
    </g>
    <g id="ytick_3">
     <g id="line2d_10">
      <path d="M 47.2875 218.10051 
L 504.751948 218.10051 
" clip-path="url(#p011f0aac6e)" style="fill: none; stroke-dasharray: 1.85,0.8; stroke-dashoffset: 0; stroke: #b0b0b0; stroke-opacity: 0.7; stroke-width: 0.5"/>
     </g>
     <g id="line2d_11">
      <g>
       <use xlink:href="#mda3b3154be" x="47.2875" y="218.10051" style="stroke: #000000; stroke-width: 0.8"/>
      </g>
     </g>
     <g id="text_9">
      <!-- 40 -->
      <g transform="translate(27.5625 221.899338) scale(0.1 -0.1)">
       <use xlink:href="#DejaVuSans-17"/>
       <use xlink:href="#DejaVuSans-13" transform="translate(63.625 0)"/>
      </g>
     </g>
    </g>
    <g id="ytick_4">
     <g id="line2d_12">
      <path d="M 47.2875 159.574667 
L 504.751948 159.574667 
" clip-path="url(#p011f0aac6e)" style="fill: none; stroke-dasharray: 1.85,0.8; stroke-dashoffset: 0; stroke: #b0b0b0; stroke-opacity: 0.7; stroke-width: 0.5"/>
     </g>
     <g id="line2d_13">
      <g>
       <use xlink:href="#mda3b3154be" x="47.2875" y="159.574667" style="stroke: #000000; stroke-width: 0.8"/>
      </g>
     </g>
     <g id="text_10">
      <!-- 60 -->
      <g transform="translate(27.5625 163.373495) scale(0.1 -0.1)">
       <use xlink:href="#DejaVuSans-19"/>
       <use xlink:href="#DejaVuSans-13" transform="translate(63.625 0)"/>
      </g>
     </g>
    </g>
    <g id="ytick_5">
     <g id="line2d_14">
      <path d="M 47.2875 101.048823 
L 504.751948 101.048823 
" clip-path="url(#p011f0aac6e)" style="fill: none; stroke-dasharray: 1.85,0.8; stroke-dashoffset: 0; stroke: #b0b0b0; stroke-opacity: 0.7; stroke-width: 0.5"/>
     </g>
     <g id="line2d_15">
      <g>
       <use xlink:href="#mda3b3154be" x="47.2875" y="101.048823" style="stroke: #000000; stroke-width: 0.8"/>
      </g>
     </g>
     <g id="text_11">
      <!-- 80 -->
      <g transform="translate(27.5625 104.847652) scale(0.1 -0.1)">
       <use xlink:href="#DejaVuSans-1b"/>
       <use xlink:href="#DejaVuSans-13" transform="translate(63.625 0)"/>
      </g>
     </g>
    </g>
    <g id="ytick_6">
     <g id="line2d_16">
      <path d="M 47.2875 42.52298 
L 504.751948 42.52298 
" clip-path="url(#p011f0aac6e)" style="fill: none; stroke-dasharray: 1.85,0.8; stroke-dashoffset: 0; stroke: #b0b0b0; stroke-opacity: 0.7; stroke-width: 0.5"/>
     </g>
     <g id="line2d_17">
      <g>
       <use xlink:href="#mda3b3154be" x="47.2875" y="42.52298" style="stroke: #000000; stroke-width: 0.8"/>
      </g>
     </g>
     <g id="text_12">
      <!-- 100 -->
      <g transform="translate(21.2 46.321808) scale(0.1 -0.1)">
       <use xlink:href="#DejaVuSans-14"/>
       <use xlink:href="#DejaVuSans-13" transform="translate(63.625 0)"/>
       <use xlink:href="#DejaVuSans-13" transform="translate(127.25 0)"/>
      </g>
     </g>
    </g>
    <g id="text_13">
     <!-- Test accuracy, % -->
     <g transform="translate(14.797656 230.761026) rotate(-90) scale(0.1 -0.1)">
      <defs>
       <path id="DejaVuSans-37" d="M -19 4666 
L 3928 4666 
L 3928 4134 
L 2272 4134 
L 2272 0 
L 1638 0 
L 1638 4134 
L -19 4134 
L -19 4666 
z
" transform="scale(0.015625)"/>
       <path id="DejaVuSans-48" d="M 3597 1894 
L 3597 1613 
L 953 1613 
Q 991 1019 1311 708 
Q 1631 397 2203 397 
Q 2534 397 2845 478 
Q 3156 559 3463 722 
L 3463 178 
Q 3153 47 2828 -22 
Q 2503 -91 2169 -91 
Q 1331 -91 842 396 
Q 353 884 353 1716 
Q 353 2575 817 3079 
Q 1281 3584 2069 3584 
Q 2775 3584 3186 3129 
Q 3597 2675 3597 1894 
z
M 3022 2063 
Q 3016 2534 2758 2815 
Q 2500 3097 2075 3097 
Q 1594 3097 1305 2825 
Q 1016 2553 972 2059 
L 3022 2063 
z
" transform="scale(0.015625)"/>
       <path id="DejaVuSans-56" d="M 2834 3397 
L 2834 2853 
Q 2591 2978 2328 3040 
Q 2066 3103 1784 3103 
Q 1356 3103 1142 2972 
Q 928 2841 928 2578 
Q 928 2378 1081 2264 
Q 1234 2150 1697 2047 
L 1894 2003 
Q 2506 1872 2764 1633 
Q 3022 1394 3022 966 
Q 3022 478 2636 193 
Q 2250 -91 1575 -91 
Q 1294 -91 989 -36 
Q 684 19 347 128 
L 347 722 
Q 666 556 975 473 
Q 1284 391 1588 391 
Q 1994 391 2212 530 
Q 2431 669 2431 922 
Q 2431 1156 2273 1281 
Q 2116 1406 1581 1522 
L 1381 1569 
Q 847 1681 609 1914 
Q 372 2147 372 2553 
Q 372 3047 722 3315 
Q 1072 3584 1716 3584 
Q 2034 3584 2315 3537 
Q 2597 3491 2834 3397 
z
" transform="scale(0.015625)"/>
       <path id="DejaVuSans-3" transform="scale(0.015625)"/>
       <path id="DejaVuSans-5c" d="M 2059 -325 
Q 1816 -950 1584 -1140 
Q 1353 -1331 966 -1331 
L 506 -1331 
L 506 -850 
L 844 -850 
Q 1081 -850 1212 -737 
Q 1344 -625 1503 -206 
L 1606 56 
L 191 3500 
L 800 3500 
L 1894 763 
L 2988 3500 
L 3597 3500 
L 2059 -325 
z
" transform="scale(0.015625)"/>
       <path id="DejaVuSans-f" d="M 750 794 
L 1409 794 
L 1409 256 
L 897 -744 
L 494 -744 
L 750 256 
L 750 794 
z
" transform="scale(0.015625)"/>
       <path id="DejaVuSans-8" d="M 4653 2053 
Q 4381 2053 4226 1822 
Q 4072 1591 4072 1178 
Q 4072 772 4226 539 
Q 4381 306 4653 306 
Q 4919 306 5073 539 
Q 5228 772 5228 1178 
Q 5228 1588 5073 1820 
Q 4919 2053 4653 2053 
z
M 4653 2450 
Q 5147 2450 5437 2106 
Q 5728 1763 5728 1178 
Q 5728 594 5436 251 
Q 5144 -91 4653 -91 
Q 4153 -91 3862 251 
Q 3572 594 3572 1178 
Q 3572 1766 3864 2108 
Q 4156 2450 4653 2450 
z
M 1428 4353 
Q 1159 4353 1004 4120 
Q 850 3888 850 3481 
Q 850 3069 1003 2837 
Q 1156 2606 1428 2606 
Q 1700 2606 1854 2837 
Q 2009 3069 2009 3481 
Q 2009 3884 1853 4118 
Q 1697 4353 1428 4353 
z
M 4250 4750 
L 4750 4750 
L 1831 -91 
L 1331 -91 
L 4250 4750 
z
M 1428 4750 
Q 1922 4750 2215 4408 
Q 2509 4066 2509 3481 
Q 2509 2891 2217 2550 
Q 1925 2209 1428 2209 
Q 931 2209 642 2551 
Q 353 2894 353 3481 
Q 353 4063 643 4406 
Q 934 4750 1428 4750 
z
" transform="scale(0.015625)"/>
      </defs>
      <use xlink:href="#DejaVuSans-37"/>
      <use xlink:href="#DejaVuSans-48" transform="translate(44.09375 0)"/>
      <use xlink:href="#DejaVuSans-56" transform="translate(105.625 0)"/>
      <use xlink:href="#DejaVuSans-57" transform="translate(157.71875 0)"/>
      <use xlink:href="#DejaVuSans-3" transform="translate(196.921875 0)"/>
      <use xlink:href="#DejaVuSans-44" transform="translate(228.703125 0)"/>
      <use xlink:href="#DejaVuSans-46" transform="translate(289.984375 0)"/>
      <use xlink:href="#DejaVuSans-46" transform="translate(344.96875 0)"/>
      <use xlink:href="#DejaVuSans-58" transform="translate(399.953125 0)"/>
      <use xlink:href="#DejaVuSans-55" transform="translate(463.328125 0)"/>
      <use xlink:href="#DejaVuSans-44" transform="translate(504.4375 0)"/>
      <use xlink:href="#DejaVuSans-46" transform="translate(565.71875 0)"/>
      <use xlink:href="#DejaVuSans-5c" transform="translate(620.703125 0)"/>
      <use xlink:href="#DejaVuSans-f" transform="translate(679.890625 0)"/>
      <use xlink:href="#DejaVuSans-3" transform="translate(711.671875 0)"/>
      <use xlink:href="#DejaVuSans-8" transform="translate(743.453125 0)"/>
     </g>
    </g>
   </g>
   <g id="patch_8">
    <path d="M 47.2875 335.152197 
L 47.2875 42.52298 
" style="fill: none; stroke: #000000; stroke-width: 0.8; stroke-linejoin: miter; stroke-linecap: square"/>
   </g>
   <g id="patch_9">
    <path d="M 504.751948 335.152197 
L 504.751948 42.52298 
" style="fill: none; stroke: #000000; stroke-width: 0.8; stroke-linejoin: miter; stroke-linecap: square"/>
   </g>
   <g id="patch_10">
    <path d="M 47.2875 335.152197 
L 504.751947 335.152197 
" style="fill: none; stroke: #000000; stroke-width: 0.8; stroke-linejoin: miter; stroke-linecap: square"/>
   </g>
   <g id="patch_11">
    <path d="M 47.2875 42.52298 
L 504.751947 42.52298 
" style="fill: none; stroke: #000000; stroke-width: 0.8; stroke-linejoin: miter; stroke-linecap: square"/>
   </g>
   <g id="text_14">
    <!-- 87.03% -->
    <g transform="translate(85.579377 75.375961) scale(0.09 -0.09)">
     <defs>
      <path id="DejaVuSans-1a" d="M 525 4666 
L 3525 4666 
L 3525 4397 
L 1831 0 
L 1172 0 
L 2766 4134 
L 525 4134 
L 525 4666 
z
" transform="scale(0.015625)"/>
      <path id="DejaVuSans-11" d="M 684 794 
L 1344 794 
L 1344 0 
L 684 0 
L 684 794 
z
" transform="scale(0.015625)"/>
      <path id="DejaVuSans-16" d="M 2597 2516 
Q 3050 2419 3304 2112 
Q 3559 1806 3559 1356 
Q 3559 666 3084 287 
Q 2609 -91 1734 -91 
Q 1441 -91 1130 -33 
Q 819 25 488 141 
L 488 750 
Q 750 597 1062 519 
Q 1375 441 1716 441 
Q 2309 441 2620 675 
Q 2931 909 2931 1356 
Q 2931 1769 2642 2001 
Q 2353 2234 1838 2234 
L 1294 2234 
L 1294 2753 
L 1863 2753 
Q 2328 2753 2575 2939 
Q 2822 3125 2822 3475 
Q 2822 3834 2567 4026 
Q 2313 4219 1838 4219 
Q 1578 4219 1281 4162 
Q 984 4106 628 3988 
L 628 4550 
Q 988 4650 1302 4700 
Q 1616 4750 1894 4750 
Q 2613 4750 3031 4423 
Q 3450 4097 3450 3541 
Q 3450 3153 3228 2886 
Q 3006 2619 2597 2516 
z
" transform="scale(0.015625)"/>
     </defs>
     <use xlink:href="#DejaVuSans-1b"/>
     <use xlink:href="#DejaVuSans-1a" transform="translate(63.625 0)"/>
     <use xlink:href="#DejaVuSans-11" transform="translate(127.25 0)"/>
     <use xlink:href="#DejaVuSans-13" transform="translate(159.03125 0)"/>
     <use xlink:href="#DejaVuSans-16" transform="translate(222.65625 0)"/>
     <use xlink:href="#DejaVuSans-8" transform="translate(286.28125 0)"/>
    </g>
   </g>
   <g id="text_15">
    <!-- 89.46% -->
    <g transform="translate(172.220371 68.275403) scale(0.09 -0.09)">
     <defs>
      <path id="DejaVuSans-1c" d="M 703 97 
L 703 672 
Q 941 559 1184 500 
Q 1428 441 1663 441 
Q 2288 441 2617 861 
Q 2947 1281 2994 2138 
Q 2813 1869 2534 1725 
Q 2256 1581 1919 1581 
Q 1219 1581 811 2004 
Q 403 2428 403 3163 
Q 403 3881 828 4315 
Q 1253 4750 1959 4750 
Q 2769 4750 3195 4129 
Q 3622 3509 3622 2328 
Q 3622 1225 3098 567 
Q 2575 -91 1691 -91 
Q 1453 -91 1209 -44 
Q 966 3 703 97 
z
M 1959 2075 
Q 2384 2075 2632 2365 
Q 2881 2656 2881 3163 
Q 2881 3666 2632 3958 
Q 2384 4250 1959 4250 
Q 1534 4250 1286 3958 
Q 1038 3666 1038 3163 
Q 1038 2656 1286 2365 
Q 1534 2075 1959 2075 
z
" transform="scale(0.015625)"/>
     </defs>
     <use xlink:href="#DejaVuSans-1b"/>
     <use xlink:href="#DejaVuSans-1c" transform="translate(63.625 0)"/>
     <use xlink:href="#DejaVuSans-11" transform="translate(127.25 0)"/>
     <use xlink:href="#DejaVuSans-17" transform="translate(159.03125 0)"/>
     <use xlink:href="#DejaVuSans-19" transform="translate(222.65625 0)"/>
     <use xlink:href="#DejaVuSans-8" transform="translate(286.28125 0)"/>
    </g>
   </g>
   <g id="text_16">
    <!-- 90.93% -->
    <g transform="translate(258.861364 63.972028) scale(0.09 -0.09)">
     <use xlink:href="#DejaVuSans-1c"/>
     <use xlink:href="#DejaVuSans-13" transform="translate(63.625 0)"/>
     <use xlink:href="#DejaVuSans-11" transform="translate(127.25 0)"/>
     <use xlink:href="#DejaVuSans-1c" transform="translate(159.03125 0)"/>
     <use xlink:href="#DejaVuSans-16" transform="translate(222.65625 0)"/>
     <use xlink:href="#DejaVuSans-8" transform="translate(286.28125 0)"/>
    </g>
   </g>
   <g id="text_17">
    <!-- 88.01% -->
    <g transform="translate(345.502358 72.507056) scale(0.09 -0.09)">
     <use xlink:href="#DejaVuSans-1b"/>
     <use xlink:href="#DejaVuSans-1b" transform="translate(63.625 0)"/>
     <use xlink:href="#DejaVuSans-11" transform="translate(127.25 0)"/>
     <use xlink:href="#DejaVuSans-13" transform="translate(159.03125 0)"/>
     <use xlink:href="#DejaVuSans-14" transform="translate(222.65625 0)"/>
     <use xlink:href="#DejaVuSans-8" transform="translate(286.28125 0)"/>
    </g>
   </g>
   <g id="text_18">
    <!-- 91.79% -->
    <g transform="translate(432.143352 61.461732) scale(0.09 -0.09)">
     <use xlink:href="#DejaVuSans-1c"/>
     <use xlink:href="#DejaVuSans-14" transform="translate(63.625 0)"/>
     <use xlink:href="#DejaVuSans-11" transform="translate(127.25 0)"/>
     <use xlink:href="#DejaVuSans-1a" transform="translate(159.03125 0)"/>
     <use xlink:href="#DejaVuSans-1c" transform="translate(222.65625 0)"/>
     <use xlink:href="#DejaVuSans-8" transform="translate(286.28125 0)"/>
    </g>
   </g>
   <g id="text_19">
    <!-- Точность на тестовой выборке -->
    <g transform="translate(178.365974 36.52298) scale(0.12 -0.12)">
     <defs>
      <path id="DejaVuSans-3b6" d="M -19 4666 
L 3928 4666 
L 3928 4134 
L 2272 4134 
L 2272 0 
L 1638 0 
L 1638 4134 
L -19 4134 
L -19 4666 
z
" transform="scale(0.015625)"/>
      <path id="DejaVuSans-3d2" d="M 1959 3097 
Q 1497 3097 1228 2736 
Q 959 2375 959 1747 
Q 959 1119 1226 758 
Q 1494 397 1959 397 
Q 2419 397 2687 759 
Q 2956 1122 2956 1747 
Q 2956 2369 2687 2733 
Q 2419 3097 1959 3097 
z
M 1959 3584 
Q 2709 3584 3137 3096 
Q 3566 2609 3566 1747 
Q 3566 888 3137 398 
Q 2709 -91 1959 -91 
Q 1206 -91 779 398 
Q 353 888 353 1747 
Q 353 2609 779 3096 
Q 1206 3584 1959 3584 
z
" transform="scale(0.015625)"/>
      <path id="DejaVuSans-3db" d="M 2625 0 
L 2625 1472 
L 1553 1472 
Q 1075 1472 756 1769 
Q 469 2038 469 2613 
L 469 3500 
L 1044 3500 
L 1044 2666 
Q 1044 2300 1206 2116 
Q 1372 1931 1697 1931 
L 2625 1931 
L 2625 3500 
L 3200 3500 
L 3200 0 
L 2625 0 
z
" transform="scale(0.015625)"/>
      <path id="DejaVuSans-3d1" d="M 581 3500 
L 1159 3500 
L 1159 2072 
L 3025 2072 
L 3025 3500 
L 3603 3500 
L 3603 0 
L 3025 0 
L 3025 1613 
L 1159 1613 
L 1159 0 
L 581 0 
L 581 3500 
z
" transform="scale(0.015625)"/>
      <path id="DejaVuSans-3d5" d="M 3122 3366 
L 3122 2828 
Q 2878 2963 2633 3030 
Q 2388 3097 2138 3097 
Q 1578 3097 1268 2742 
Q 959 2388 959 1747 
Q 959 1106 1268 751 
Q 1578 397 2138 397 
Q 2388 397 2633 464 
Q 2878 531 3122 666 
L 3122 134 
Q 2881 22 2623 -34 
Q 2366 -91 2075 -91 
Q 1284 -91 818 406 
Q 353 903 353 1747 
Q 353 2603 823 3093 
Q 1294 3584 2113 3584 
Q 2378 3584 2631 3529 
Q 2884 3475 3122 3366 
z
" transform="scale(0.015625)"/>
      <path id="DejaVuSans-3e0" d="M 2781 1038 
Q 2781 1319 2576 1466 
Q 2372 1613 1978 1613 
L 1159 1613 
L 1159 459 
L 1978 459 
Q 2372 459 2576 607 
Q 2781 756 2781 1038 
z
M 581 3500 
L 1159 3500 
L 1159 2072 
L 2003 2072 
Q 2672 2072 3033 1817 
Q 3394 1563 3394 1038 
Q 3394 513 3033 256 
Q 2672 0 2003 0 
L 581 0 
L 581 3500 
z
" transform="scale(0.015625)"/>
      <path id="DejaVuSans-3c6" d="M 1156 1613 
L 1156 459 
L 1975 459 
Q 2369 459 2575 607 
Q 2781 756 2781 1038 
Q 2781 1319 2575 1466 
Q 2369 1613 1975 1613 
L 1156 1613 
z
M 1156 3041 
L 1156 2072 
L 1913 2072 
Q 2238 2072 2444 2201 
Q 2650 2331 2650 2563 
Q 2650 2794 2444 2917 
Q 2238 3041 1913 3041 
L 1156 3041 
z
M 581 3500 
L 1950 3500 
Q 2566 3500 2897 3275 
Q 3228 3050 3228 2634 
Q 3228 2313 3059 2123 
Q 2891 1934 2559 1888 
Q 2956 1813 3175 1575 
Q 3394 1338 3394 981 
Q 3394 513 3033 256 
Q 2672 0 2003 0 
L 581 0 
L 581 3500 
z
" transform="scale(0.015625)"/>
      <path id="DejaVuSans-3cd" d="M 3578 3500 
L 3578 0 
L 3006 0 
L 3006 2809 
L 1319 0 
L 581 0 
L 581 3500 
L 1153 3500 
L 1153 697 
L 2838 3500 
L 3578 3500 
z
M 1103 4862 
L 1472 4862 
Q 1506 4628 1657 4510 
Q 1809 4393 2081 4393 
Q 2350 4393 2500 4509 
Q 2650 4625 2690 4862 
L 3059 4862 
Q 3028 4415 2781 4190 
Q 2534 3965 2081 3965 
Q 1628 3965 1381 4190 
Q 1134 4415 1103 4862 
z
" transform="scale(0.015625)"/>
      <path id="DejaVuSans-3df" d="M 3909 3500 
L 4484 3500 
L 4484 0 
L 3909 0 
L 3909 3500 
z
M 4197 3584 
L 4197 3584 
z
M 2781 1038 
Q 2781 1319 2576 1466 
Q 2372 1613 1978 1613 
L 1159 1613 
L 1159 459 
L 1978 459 
Q 2372 459 2576 607 
Q 2781 756 2781 1038 
z
M 581 3500 
L 1159 3500 
L 1159 2072 
L 2003 2072 
Q 2672 2072 3033 1817 
Q 3394 1563 3394 1038 
Q 3394 513 3033 256 
Q 2672 0 2003 0 
L 581 0 
L 581 3500 
z
" transform="scale(0.015625)"/>
      <path id="DejaVuSans-3c5" d="M 1991 3584 
Q 2741 3584 3169 3096 
Q 3597 2609 3597 1747 
Q 3597 888 3169 398 
Q 2741 -91 1991 -91 
Q 1238 -91 822 384 
Q 406 859 384 1747 
L 366 2463 
Q 350 2834 350 2963 
Q 350 3463 531 3831 
Q 816 4409 1308 4659 
Q 1800 4909 2625 4916 
Q 3006 4919 3175 4972 
L 3334 4516 
Q 3181 4453 3041 4450 
L 2259 4397 
Q 1866 4369 1628 4231 
Q 1006 3866 947 3388 
L 925 3213 
Q 1331 3584 1991 3584 
z
M 1991 3097 
Q 1528 3097 1259 2736 
Q 991 2375 991 1747 
Q 991 1119 1258 758 
Q 1525 397 1991 397 
Q 2450 397 2719 759 
Q 2988 1122 2988 1747 
Q 2988 2369 2719 2733 
Q 2450 3097 1991 3097 
z
" transform="scale(0.015625)"/>
     </defs>
     <use xlink:href="#DejaVuSans-3b6"/>
     <use xlink:href="#DejaVuSans-3d2" transform="translate(61.078125 0)"/>
     <use xlink:href="#DejaVuSans-3db" transform="translate(122.265625 0)"/>
     <use xlink:href="#DejaVuSans-3d1" transform="translate(181.34375 0)"/>
     <use xlink:href="#DejaVuSans-3d2" transform="translate(246.71875 0)"/>
     <use xlink:href="#DejaVuSans-3d5" transform="translate(307.90625 0)"/>
     <use xlink:href="#DejaVuSans-3d6" transform="translate(362.890625 0)"/>
     <use xlink:href="#DejaVuSans-3e0" transform="translate(421.140625 0)"/>
     <use xlink:href="#DejaVuSans-3" transform="translate(480.078125 0)"/>
     <use xlink:href="#DejaVuSans-3d1" transform="translate(511.859375 0)"/>
     <use xlink:href="#DejaVuSans-3c4" transform="translate(577.234375 0)"/>
     <use xlink:href="#DejaVuSans-3" transform="translate(638.515625 0)"/>
     <use xlink:href="#DejaVuSans-3d6" transform="translate(670.296875 0)"/>
     <use xlink:href="#DejaVuSans-3c9" transform="translate(728.546875 0)"/>
     <use xlink:href="#DejaVuSans-3d5" transform="translate(790.078125 0)"/>
     <use xlink:href="#DejaVuSans-3d6" transform="translate(845.0625 0)"/>
     <use xlink:href="#DejaVuSans-3d2" transform="translate(903.3125 0)"/>
     <use xlink:href="#DejaVuSans-3c6" transform="translate(964.5 0)"/>
     <use xlink:href="#DejaVuSans-3d2" transform="translate(1023.4375 0)"/>
     <use xlink:href="#DejaVuSans-3cd" transform="translate(1084.625 0)"/>
     <use xlink:href="#DejaVuSans-3" transform="translate(1149.609375 0)"/>
     <use xlink:href="#DejaVuSans-3c6" transform="translate(1181.390625 0)"/>
     <use xlink:href="#DejaVuSans-3df" transform="translate(1240.328125 0)"/>
     <use xlink:href="#DejaVuSans-3c5" transform="translate(1319.28125 0)"/>
     <use xlink:href="#DejaVuSans-3d2" transform="translate(1380.953125 0)"/>
     <use xlink:href="#DejaVuSans-3d4" transform="translate(1442.140625 0)"/>
     <use xlink:href="#DejaVuSans-3ce" transform="translate(1505.625 0)"/>
     <use xlink:href="#DejaVuSans-3c9" transform="translate(1566.03125 0)"/>
    </g>
   </g>
  </g>
  <g id="axes_2">
   <g id="patch_12">
    <path d="M 551.735073 335.152197 
L 1009.19952 335.152197 
L 1009.19952 42.52298 
L 551.735073 42.52298 
z
" style="fill: #ffffff"/>
   </g>
   <g id="patch_13">
    <path d="M 572.528911 335.152197 
L 641.841706 335.152197 
L 641.841706 101.048823 
L 572.528911 101.048823 
z
" clip-path="url(#pf7f0694089)" style="fill: #1f77b4"/>
   </g>
   <g id="patch_14">
    <path d="M 659.169905 335.152197 
L 728.4827 335.152197 
L 728.4827 157.969632 
L 659.169905 157.969632 
z
" clip-path="url(#pf7f0694089)" style="fill: #1f77b4"/>
   </g>
   <g id="patch_15">
    <path d="M 745.810899 335.152197 
L 815.123694 335.152197 
L 815.123694 186.805096 
L 745.810899 186.805096 
z
" clip-path="url(#pf7f0694089)" style="fill: #1f77b4"/>
   </g>
   <g id="patch_16">
    <path d="M 832.451893 335.152197 
L 901.764688 335.152197 
L 901.764688 130.038724 
L 832.451893 130.038724 
z
" clip-path="url(#pf7f0694089)" style="fill: #1f77b4"/>
   </g>
   <g id="patch_17">
    <path d="M 919.092886 335.152197 
L 988.405681 335.152197 
L 988.405681 180.848268 
L 919.092886 180.848268 
z
" clip-path="url(#pf7f0694089)" style="fill: #1f77b4"/>
   </g>
   <g id="matplotlib.axis_3">
    <g id="xtick_6">
     <g id="line2d_18">
      <g>
       <use xlink:href="#m9d4c6058a4" x="607.185309" y="335.152197" style="stroke: #000000; stroke-width: 0.8"/>
      </g>
     </g>
     <g id="text_20">
      <!-- mlp_64 -->
      <g transform="translate(575.832816 369.364889) rotate(-35) scale(0.1 -0.1)">
       <use xlink:href="#DejaVuSans-50"/>
       <use xlink:href="#DejaVuSans-4f" transform="translate(97.40625 0)"/>
       <use xlink:href="#DejaVuSans-53" transform="translate(125.1875 0)"/>
       <use xlink:href="#DejaVuSans-42" transform="translate(188.671875 0)"/>
       <use xlink:href="#DejaVuSans-19" transform="translate(238.671875 0)"/>
       <use xlink:href="#DejaVuSans-17" transform="translate(302.296875 0)"/>
      </g>
     </g>
    </g>
    <g id="xtick_7">
     <g id="line2d_19">
      <g>
       <use xlink:href="#m9d4c6058a4" x="693.826302" y="335.152197" style="stroke: #000000; stroke-width: 0.8"/>
      </g>
     </g>
     <g id="text_21">
      <!-- mlp_128_64 -->
      <g transform="translate(642.742485 383.180912) rotate(-35) scale(0.1 -0.1)">
       <use xlink:href="#DejaVuSans-50"/>
       <use xlink:href="#DejaVuSans-4f" transform="translate(97.40625 0)"/>
       <use xlink:href="#DejaVuSans-53" transform="translate(125.1875 0)"/>
       <use xlink:href="#DejaVuSans-42" transform="translate(188.671875 0)"/>
       <use xlink:href="#DejaVuSans-14" transform="translate(238.671875 0)"/>
       <use xlink:href="#DejaVuSans-15" transform="translate(302.296875 0)"/>
       <use xlink:href="#DejaVuSans-1b" transform="translate(365.921875 0)"/>
       <use xlink:href="#DejaVuSans-42" transform="translate(429.546875 0)"/>
       <use xlink:href="#DejaVuSans-19" transform="translate(479.546875 0)"/>
       <use xlink:href="#DejaVuSans-17" transform="translate(543.171875 0)"/>
      </g>
     </g>
    </g>
    <g id="xtick_8">
     <g id="line2d_20">
      <g>
       <use xlink:href="#m9d4c6058a4" x="780.467296" y="335.152197" style="stroke: #000000; stroke-width: 0.8"/>
      </g>
     </g>
     <g id="text_22">
      <!-- mlp_256_128 -->
      <g transform="translate(724.171624 386.830292) rotate(-35) scale(0.1 -0.1)">
       <use xlink:href="#DejaVuSans-50"/>
       <use xlink:href="#DejaVuSans-4f" transform="translate(97.40625 0)"/>
       <use xlink:href="#DejaVuSans-53" transform="translate(125.1875 0)"/>
       <use xlink:href="#DejaVuSans-42" transform="translate(188.671875 0)"/>
       <use xlink:href="#DejaVuSans-15" transform="translate(238.671875 0)"/>
       <use xlink:href="#DejaVuSans-18" transform="translate(302.296875 0)"/>
       <use xlink:href="#DejaVuSans-19" transform="translate(365.921875 0)"/>
       <use xlink:href="#DejaVuSans-42" transform="translate(429.546875 0)"/>
       <use xlink:href="#DejaVuSans-14" transform="translate(479.546875 0)"/>
       <use xlink:href="#DejaVuSans-15" transform="translate(543.171875 0)"/>
       <use xlink:href="#DejaVuSans-1b" transform="translate(606.796875 0)"/>
      </g>
     </g>
    </g>
    <g id="xtick_9">
     <g id="line2d_21">
      <g>
       <use xlink:href="#m9d4c6058a4" x="867.10829" y="335.152197" style="stroke: #000000; stroke-width: 0.8"/>
      </g>
     </g>
     <g id="text_23">
      <!-- mlp_128_64_dropout -->
      <g transform="translate(779.913946 408.465774) rotate(-35) scale(0.1 -0.1)">
       <use xlink:href="#DejaVuSans-50"/>
       <use xlink:href="#DejaVuSans-4f" transform="translate(97.40625 0)"/>
       <use xlink:href="#DejaVuSans-53" transform="translate(125.1875 0)"/>
       <use xlink:href="#DejaVuSans-42" transform="translate(188.671875 0)"/>
       <use xlink:href="#DejaVuSans-14" transform="translate(238.671875 0)"/>
       <use xlink:href="#DejaVuSans-15" transform="translate(302.296875 0)"/>
       <use xlink:href="#DejaVuSans-1b" transform="translate(365.921875 0)"/>
       <use xlink:href="#DejaVuSans-42" transform="translate(429.546875 0)"/>
       <use xlink:href="#DejaVuSans-19" transform="translate(479.546875 0)"/>
       <use xlink:href="#DejaVuSans-17" transform="translate(543.171875 0)"/>
       <use xlink:href="#DejaVuSans-42" transform="translate(606.796875 0)"/>
       <use xlink:href="#DejaVuSans-47" transform="translate(656.796875 0)"/>
       <use xlink:href="#DejaVuSans-55" transform="translate(720.28125 0)"/>
       <use xlink:href="#DejaVuSans-52" transform="translate(759.1875 0)"/>
       <use xlink:href="#DejaVuSans-53" transform="translate(820.375 0)"/>
       <use xlink:href="#DejaVuSans-52" transform="translate(883.859375 0)"/>
       <use xlink:href="#DejaVuSans-58" transform="translate(945.046875 0)"/>
       <use xlink:href="#DejaVuSans-57" transform="translate(1008.421875 0)"/>
      </g>
     </g>
    </g>
    <g id="xtick_10">
     <g id="line2d_22">
      <g>
       <use xlink:href="#m9d4c6058a4" x="953.749284" y="335.152197" style="stroke: #000000; stroke-width: 0.8"/>
      </g>
     </g>
     <g id="text_24">
      <!-- mlp_128_64_batchnorm -->
      <g transform="translate(854.035993 417.231635) rotate(-35) scale(0.1 -0.1)">
       <use xlink:href="#DejaVuSans-50"/>
       <use xlink:href="#DejaVuSans-4f" transform="translate(97.40625 0)"/>
       <use xlink:href="#DejaVuSans-53" transform="translate(125.1875 0)"/>
       <use xlink:href="#DejaVuSans-42" transform="translate(188.671875 0)"/>
       <use xlink:href="#DejaVuSans-14" transform="translate(238.671875 0)"/>
       <use xlink:href="#DejaVuSans-15" transform="translate(302.296875 0)"/>
       <use xlink:href="#DejaVuSans-1b" transform="translate(365.921875 0)"/>
       <use xlink:href="#DejaVuSans-42" transform="translate(429.546875 0)"/>
       <use xlink:href="#DejaVuSans-19" transform="translate(479.546875 0)"/>
       <use xlink:href="#DejaVuSans-17" transform="translate(543.171875 0)"/>
       <use xlink:href="#DejaVuSans-42" transform="translate(606.796875 0)"/>
       <use xlink:href="#DejaVuSans-45" transform="translate(656.796875 0)"/>
       <use xlink:href="#DejaVuSans-44" transform="translate(720.28125 0)"/>
       <use xlink:href="#DejaVuSans-57" transform="translate(781.5625 0)"/>
       <use xlink:href="#DejaVuSans-46" transform="translate(820.765625 0)"/>
       <use xlink:href="#DejaVuSans-4b" transform="translate(875.75 0)"/>
       <use xlink:href="#DejaVuSans-51" transform="translate(939.125 0)"/>
       <use xlink:href="#DejaVuSans-52" transform="translate(1002.5 0)"/>
       <use xlink:href="#DejaVuSans-55" transform="translate(1063.6875 0)"/>
       <use xlink:href="#DejaVuSans-50" transform="translate(1103.046875 0)"/>
      </g>
     </g>
    </g>
    <g id="text_25">
     <!-- MLP-архитектура -->
     <g transform="translate(735.092296 430.797176) scale(0.1 -0.1)">
      <use xlink:href="#DejaVuSans-30"/>
      <use xlink:href="#DejaVuSans-2f" transform="translate(86.28125 0)"/>
      <use xlink:href="#DejaVuSans-33" transform="translate(142 0)"/>
      <use xlink:href="#DejaVuSans-10" transform="translate(200.09375 0)"/>
      <use xlink:href="#DejaVuSans-3c4" transform="translate(236.171875 0)"/>
      <use xlink:href="#DejaVuSans-3d4" transform="translate(297.453125 0)"/>
      <use xlink:href="#DejaVuSans-3d9" transform="translate(360.9375 0)"/>
      <use xlink:href="#DejaVuSans-3cc" transform="translate(420.125 0)"/>
      <use xlink:href="#DejaVuSans-3d6" transform="translate(485.109375 0)"/>
      <use xlink:href="#DejaVuSans-3c9" transform="translate(543.359375 0)"/>
      <use xlink:href="#DejaVuSans-3ce" transform="translate(604.890625 0)"/>
      <use xlink:href="#DejaVuSans-3d6" transform="translate(665.296875 0)"/>
      <use xlink:href="#DejaVuSans-3d7" transform="translate(723.546875 0)"/>
      <use xlink:href="#DejaVuSans-3d4" transform="translate(782.734375 0)"/>
      <use xlink:href="#DejaVuSans-3c4" transform="translate(846.21875 0)"/>
     </g>
    </g>
   </g>
   <g id="matplotlib.axis_4">
    <g id="ytick_7">
     <g id="line2d_23">
      <path d="M 551.735073 335.152197 
L 1009.19952 335.152197 
" clip-path="url(#pf7f0694089)" style="fill: none; stroke-dasharray: 1.85,0.8; stroke-dashoffset: 0; stroke: #b0b0b0; stroke-opacity: 0.7; stroke-width: 0.5"/>
     </g>
     <g id="line2d_24">
      <g>
       <use xlink:href="#mda3b3154be" x="551.735073" y="335.152197" style="stroke: #000000; stroke-width: 0.8"/>
      </g>
     </g>
     <g id="text_26">
      <!-- 0.0 -->
      <g transform="translate(528.831947 338.951025) scale(0.1 -0.1)">
       <use xlink:href="#DejaVuSans-13"/>
       <use xlink:href="#DejaVuSans-11" transform="translate(63.625 0)"/>
       <use xlink:href="#DejaVuSans-13" transform="translate(95.40625 0)"/>
      </g>
     </g>
    </g>
    <g id="ytick_8">
     <g id="line2d_25">
      <path d="M 551.735073 290.145046 
L 1009.19952 290.145046 
" clip-path="url(#pf7f0694089)" style="fill: none; stroke-dasharray: 1.85,0.8; stroke-dashoffset: 0; stroke: #b0b0b0; stroke-opacity: 0.7; stroke-width: 0.5"/>
     </g>
     <g id="line2d_26">
      <g>
       <use xlink:href="#mda3b3154be" x="551.735073" y="290.145046" style="stroke: #000000; stroke-width: 0.8"/>
      </g>
     </g>
     <g id="text_27">
      <!-- 0.5 -->
      <g transform="translate(528.831947 293.943874) scale(0.1 -0.1)">
       <use xlink:href="#DejaVuSans-13"/>
       <use xlink:href="#DejaVuSans-11" transform="translate(63.625 0)"/>
       <use xlink:href="#DejaVuSans-18" transform="translate(95.40625 0)"/>
      </g>
     </g>
    </g>
    <g id="ytick_9">
     <g id="line2d_27">
      <path d="M 551.735073 245.137894 
L 1009.19952 245.137894 
" clip-path="url(#pf7f0694089)" style="fill: none; stroke-dasharray: 1.85,0.8; stroke-dashoffset: 0; stroke: #b0b0b0; stroke-opacity: 0.7; stroke-width: 0.5"/>
     </g>
     <g id="line2d_28">
      <g>
       <use xlink:href="#mda3b3154be" x="551.735073" y="245.137894" style="stroke: #000000; stroke-width: 0.8"/>
      </g>
     </g>
     <g id="text_28">
      <!-- 1.0 -->
      <g transform="translate(528.831947 248.936723) scale(0.1 -0.1)">
       <use xlink:href="#DejaVuSans-14"/>
       <use xlink:href="#DejaVuSans-11" transform="translate(63.625 0)"/>
       <use xlink:href="#DejaVuSans-13" transform="translate(95.40625 0)"/>
      </g>
     </g>
    </g>
    <g id="ytick_10">
     <g id="line2d_29">
      <path d="M 551.735073 200.130743 
L 1009.19952 200.130743 
" clip-path="url(#pf7f0694089)" style="fill: none; stroke-dasharray: 1.85,0.8; stroke-dashoffset: 0; stroke: #b0b0b0; stroke-opacity: 0.7; stroke-width: 0.5"/>
     </g>
     <g id="line2d_30">
      <g>
       <use xlink:href="#mda3b3154be" x="551.735073" y="200.130743" style="stroke: #000000; stroke-width: 0.8"/>
      </g>
     </g>
     <g id="text_29">
      <!-- 1.5 -->
      <g transform="translate(528.831947 203.929571) scale(0.1 -0.1)">
       <use xlink:href="#DejaVuSans-14"/>
       <use xlink:href="#DejaVuSans-11" transform="translate(63.625 0)"/>
       <use xlink:href="#DejaVuSans-18" transform="translate(95.40625 0)"/>
      </g>
     </g>
    </g>
    <g id="ytick_11">
     <g id="line2d_31">
      <path d="M 551.735073 155.123592 
L 1009.19952 155.123592 
" clip-path="url(#pf7f0694089)" style="fill: none; stroke-dasharray: 1.85,0.8; stroke-dashoffset: 0; stroke: #b0b0b0; stroke-opacity: 0.7; stroke-width: 0.5"/>
     </g>
     <g id="line2d_32">
      <g>
       <use xlink:href="#mda3b3154be" x="551.735073" y="155.123592" style="stroke: #000000; stroke-width: 0.8"/>
      </g>
     </g>
     <g id="text_30">
      <!-- 2.0 -->
      <g transform="translate(528.831947 158.92242) scale(0.1 -0.1)">
       <use xlink:href="#DejaVuSans-15"/>
       <use xlink:href="#DejaVuSans-11" transform="translate(63.625 0)"/>
       <use xlink:href="#DejaVuSans-13" transform="translate(95.40625 0)"/>
      </g>
     </g>
    </g>
    <g id="ytick_12">
     <g id="line2d_33">
      <path d="M 551.735073 110.116441 
L 1009.19952 110.116441 
" clip-path="url(#pf7f0694089)" style="fill: none; stroke-dasharray: 1.85,0.8; stroke-dashoffset: 0; stroke: #b0b0b0; stroke-opacity: 0.7; stroke-width: 0.5"/>
     </g>
     <g id="line2d_34">
      <g>
       <use xlink:href="#mda3b3154be" x="551.735073" y="110.116441" style="stroke: #000000; stroke-width: 0.8"/>
      </g>
     </g>
     <g id="text_31">
      <!-- 2.5 -->
      <g transform="translate(528.831947 113.915269) scale(0.1 -0.1)">
       <use xlink:href="#DejaVuSans-15"/>
       <use xlink:href="#DejaVuSans-11" transform="translate(63.625 0)"/>
       <use xlink:href="#DejaVuSans-18" transform="translate(95.40625 0)"/>
      </g>
     </g>
    </g>
    <g id="ytick_13">
     <g id="line2d_35">
      <path d="M 551.735073 65.109289 
L 1009.19952 65.109289 
" clip-path="url(#pf7f0694089)" style="fill: none; stroke-dasharray: 1.85,0.8; stroke-dashoffset: 0; stroke: #b0b0b0; stroke-opacity: 0.7; stroke-width: 0.5"/>
     </g>
     <g id="line2d_36">
      <g>
       <use xlink:href="#mda3b3154be" x="551.735073" y="65.109289" style="stroke: #000000; stroke-width: 0.8"/>
      </g>
     </g>
     <g id="text_32">
      <!-- 3.0 -->
      <g transform="translate(528.831947 68.908117) scale(0.1 -0.1)">
       <use xlink:href="#DejaVuSans-16"/>
       <use xlink:href="#DejaVuSans-11" transform="translate(63.625 0)"/>
       <use xlink:href="#DejaVuSans-13" transform="translate(95.40625 0)"/>
      </g>
     </g>
    </g>
    <g id="text_33">
     <!-- EER, % -->
     <g transform="translate(522.429604 206.559464) rotate(-90) scale(0.1 -0.1)">
      <defs>
       <path id="DejaVuSans-28" d="M 628 4666 
L 3578 4666 
L 3578 4134 
L 1259 4134 
L 1259 2753 
L 3481 2753 
L 3481 2222 
L 1259 2222 
L 1259 531 
L 3634 531 
L 3634 0 
L 628 0 
L 628 4666 
z
" transform="scale(0.015625)"/>
       <path id="DejaVuSans-35" d="M 2841 2188 
Q 3044 2119 3236 1894 
Q 3428 1669 3622 1275 
L 4263 0 
L 3584 0 
L 2988 1197 
Q 2756 1666 2539 1819 
Q 2322 1972 1947 1972 
L 1259 1972 
L 1259 0 
L 628 0 
L 628 4666 
L 2053 4666 
Q 2853 4666 3247 4331 
Q 3641 3997 3641 3322 
Q 3641 2881 3436 2590 
Q 3231 2300 2841 2188 
z
M 1259 4147 
L 1259 2491 
L 2053 2491 
Q 2509 2491 2742 2702 
Q 2975 2913 2975 3322 
Q 2975 3731 2742 3939 
Q 2509 4147 2053 4147 
L 1259 4147 
z
" transform="scale(0.015625)"/>
      </defs>
      <use xlink:href="#DejaVuSans-28"/>
      <use xlink:href="#DejaVuSans-28" transform="translate(63.1875 0)"/>
      <use xlink:href="#DejaVuSans-35" transform="translate(126.375 0)"/>
      <use xlink:href="#DejaVuSans-f" transform="translate(195.859375 0)"/>
      <use xlink:href="#DejaVuSans-3" transform="translate(227.640625 0)"/>
      <use xlink:href="#DejaVuSans-8" transform="translate(259.421875 0)"/>
     </g>
    </g>
   </g>
   <g id="patch_18">
    <path d="M 551.735073 335.152197 
L 551.735073 42.52298 
" style="fill: none; stroke: #000000; stroke-width: 0.8; stroke-linejoin: miter; stroke-linecap: square"/>
   </g>
   <g id="patch_19">
    <path d="M 1009.19952 335.152197 
L 1009.19952 42.52298 
" style="fill: none; stroke: #000000; stroke-width: 0.8; stroke-linejoin: miter; stroke-linecap: square"/>
   </g>
   <g id="patch_20">
    <path d="M 551.735073 335.152197 
L 1009.19952 335.152197 
" style="fill: none; stroke: #000000; stroke-width: 0.8; stroke-linejoin: miter; stroke-linecap: square"/>
   </g>
   <g id="patch_21">
    <path d="M 551.735073 42.52298 
L 1009.19952 42.52298 
" style="fill: none; stroke: #000000; stroke-width: 0.8; stroke-linejoin: miter; stroke-linecap: square"/>
   </g>
   <g id="text_34">
    <!-- 2.60% -->
    <g transform="translate(592.890074 91.863613) scale(0.09 -0.09)">
     <use xlink:href="#DejaVuSans-15"/>
     <use xlink:href="#DejaVuSans-11" transform="translate(63.625 0)"/>
     <use xlink:href="#DejaVuSans-19" transform="translate(95.40625 0)"/>
     <use xlink:href="#DejaVuSans-13" transform="translate(159.03125 0)"/>
     <use xlink:href="#DejaVuSans-8" transform="translate(222.65625 0)"/>
    </g>
   </g>
   <g id="text_35">
    <!-- 1.97% -->
    <g transform="translate(679.531068 148.784422) scale(0.09 -0.09)">
     <use xlink:href="#DejaVuSans-14"/>
     <use xlink:href="#DejaVuSans-11" transform="translate(63.625 0)"/>
     <use xlink:href="#DejaVuSans-1c" transform="translate(95.40625 0)"/>
     <use xlink:href="#DejaVuSans-1a" transform="translate(159.03125 0)"/>
     <use xlink:href="#DejaVuSans-8" transform="translate(222.65625 0)"/>
    </g>
   </g>
   <g id="text_36">
    <!-- 1.65% -->
    <g transform="translate(766.172062 177.619886) scale(0.09 -0.09)">
     <use xlink:href="#DejaVuSans-14"/>
     <use xlink:href="#DejaVuSans-11" transform="translate(63.625 0)"/>
     <use xlink:href="#DejaVuSans-19" transform="translate(95.40625 0)"/>
     <use xlink:href="#DejaVuSans-18" transform="translate(159.03125 0)"/>
     <use xlink:href="#DejaVuSans-8" transform="translate(222.65625 0)"/>
    </g>
   </g>
   <g id="text_37">
    <!-- 2.28% -->
    <g transform="translate(852.813056 120.853513) scale(0.09 -0.09)">
     <use xlink:href="#DejaVuSans-15"/>
     <use xlink:href="#DejaVuSans-11" transform="translate(63.625 0)"/>
     <use xlink:href="#DejaVuSans-15" transform="translate(95.40625 0)"/>
     <use xlink:href="#DejaVuSans-1b" transform="translate(159.03125 0)"/>
     <use xlink:href="#DejaVuSans-8" transform="translate(222.65625 0)"/>
    </g>
   </g>
   <g id="text_38">
    <!-- 1.71% -->
    <g transform="translate(939.45405 171.663057) scale(0.09 -0.09)">
     <use xlink:href="#DejaVuSans-14"/>
     <use xlink:href="#DejaVuSans-11" transform="translate(63.625 0)"/>
     <use xlink:href="#DejaVuSans-1a" transform="translate(95.40625 0)"/>
     <use xlink:href="#DejaVuSans-14" transform="translate(159.03125 0)"/>
     <use xlink:href="#DejaVuSans-8" transform="translate(222.65625 0)"/>
    </g>
   </g>
   <g id="text_39">
    <!-- Равная вероятность ошибок -->
    <g transform="translate(690.820734 36.52298) scale(0.12 -0.12)">
     <defs>
      <path id="DejaVuSans-3b4" d="M 1259 4147 
L 1259 2394 
L 2053 2394 
Q 2494 2394 2734 2622 
Q 2975 2850 2975 3272 
Q 2975 3691 2734 3919 
Q 2494 4147 2053 4147 
L 1259 4147 
z
M 628 4666 
L 2053 4666 
Q 2838 4666 3239 4311 
Q 3641 3956 3641 3272 
Q 3641 2581 3239 2228 
Q 2838 1875 2053 1875 
L 1259 1875 
L 1259 0 
L 628 0 
L 628 4666 
z
" transform="scale(0.015625)"/>
      <path id="DejaVuSans-3e3" d="M 1181 2491 
Q 1181 2231 1381 2084 
Q 1581 1938 1953 1938 
L 2728 1938 
L 2728 3041 
L 1953 3041 
Q 1581 3041 1381 2897 
Q 1181 2753 1181 2491 
z
M 363 0 
L 1431 1534 
Q 1069 1616 828 1830 
Q 588 2044 588 2491 
Q 588 2997 923 3248 
Q 1259 3500 1938 3500 
L 3306 3500 
L 3306 0 
L 2728 0 
L 2728 1478 
L 2013 1478 
L 981 0 
L 363 0 
z
" transform="scale(0.015625)"/>
      <path id="DejaVuSans-3dc" d="M 3216 459 
L 4697 459 
L 4697 3500 
L 5275 3500 
L 5275 0 
L 581 0 
L 581 3500 
L 1159 3500 
L 1159 459 
L 2638 459 
L 2638 3500 
L 3216 3500 
L 3216 459 
z
" transform="scale(0.015625)"/>
     </defs>
     <use xlink:href="#DejaVuSans-3b4"/>
     <use xlink:href="#DejaVuSans-3c4" transform="translate(60.296875 0)"/>
     <use xlink:href="#DejaVuSans-3c6" transform="translate(121.578125 0)"/>
     <use xlink:href="#DejaVuSans-3d1" transform="translate(180.515625 0)"/>
     <use xlink:href="#DejaVuSans-3c4" transform="translate(245.890625 0)"/>
     <use xlink:href="#DejaVuSans-3e3" transform="translate(307.171875 0)"/>
     <use xlink:href="#DejaVuSans-3" transform="translate(367.328125 0)"/>
     <use xlink:href="#DejaVuSans-3c6" transform="translate(399.109375 0)"/>
     <use xlink:href="#DejaVuSans-3c9" transform="translate(458.046875 0)"/>
     <use xlink:href="#DejaVuSans-3d4" transform="translate(519.578125 0)"/>
     <use xlink:href="#DejaVuSans-3d2" transform="translate(583.0625 0)"/>
     <use xlink:href="#DejaVuSans-3e3" transform="translate(644.25 0)"/>
     <use xlink:href="#DejaVuSans-3d6" transform="translate(704.40625 0)"/>
     <use xlink:href="#DejaVuSans-3d1" transform="translate(762.65625 0)"/>
     <use xlink:href="#DejaVuSans-3d2" transform="translate(828.03125 0)"/>
     <use xlink:href="#DejaVuSans-3d5" transform="translate(889.21875 0)"/>
     <use xlink:href="#DejaVuSans-3d6" transform="translate(944.203125 0)"/>
     <use xlink:href="#DejaVuSans-3e0" transform="translate(1002.453125 0)"/>
     <use xlink:href="#DejaVuSans-3" transform="translate(1061.390625 0)"/>
     <use xlink:href="#DejaVuSans-3d2" transform="translate(1093.171875 0)"/>
     <use xlink:href="#DejaVuSans-3dc" transform="translate(1154.359375 0)"/>
     <use xlink:href="#DejaVuSans-3cc" transform="translate(1245.859375 0)"/>
     <use xlink:href="#DejaVuSans-3c5" transform="translate(1310.84375 0)"/>
     <use xlink:href="#DejaVuSans-3d2" transform="translate(1372.515625 0)"/>
     <use xlink:href="#DejaVuSans-3ce" transform="translate(1433.703125 0)"/>
    </g>
   </g>
  </g>
  <g id="text_40">
   <!-- Сравнение MLP-архитектур по test accuracy и EER -->
   <g transform="translate(323.409604 17.836719) scale(0.14 -0.14)">
    <defs>
     <path id="DejaVuSans-3b5" d="M 4122 4306 
L 4122 3641 
Q 3803 3938 3442 4084 
Q 3081 4231 2675 4231 
Q 1875 4231 1450 3742 
Q 1025 3253 1025 2328 
Q 1025 1406 1450 917 
Q 1875 428 2675 428 
Q 3081 428 3442 575 
Q 3803 722 4122 1019 
L 4122 359 
Q 3791 134 3420 21 
Q 3050 -91 2638 -91 
Q 1578 -91 968 557 
Q 359 1206 359 2328 
Q 359 3453 968 4101 
Q 1578 4750 2638 4750 
Q 3056 4750 3426 4639 
Q 3797 4528 4122 4306 
z
" transform="scale(0.015625)"/>
     <path id="DejaVuSans-3d3" d="M 3603 3500 
L 3603 0 
L 3025 0 
L 3025 3041 
L 1159 3041 
L 1159 0 
L 581 0 
L 581 3500 
L 3603 3500 
z
" transform="scale(0.015625)"/>
    </defs>
    <use xlink:href="#DejaVuSans-3b5"/>
    <use xlink:href="#DejaVuSans-3d4" transform="translate(69.828125 0)"/>
    <use xlink:href="#DejaVuSans-3c4" transform="translate(133.3125 0)"/>
    <use xlink:href="#DejaVuSans-3c6" transform="translate(194.59375 0)"/>
    <use xlink:href="#DejaVuSans-3d1" transform="translate(253.53125 0)"/>
    <use xlink:href="#DejaVuSans-3c9" transform="translate(318.90625 0)"/>
    <use xlink:href="#DejaVuSans-3d1" transform="translate(380.4375 0)"/>
    <use xlink:href="#DejaVuSans-3cc" transform="translate(445.8125 0)"/>
    <use xlink:href="#DejaVuSans-3c9" transform="translate(510.796875 0)"/>
    <use xlink:href="#DejaVuSans-3" transform="translate(572.328125 0)"/>
    <use xlink:href="#DejaVuSans-30" transform="translate(604.109375 0)"/>
    <use xlink:href="#DejaVuSans-2f" transform="translate(690.390625 0)"/>
    <use xlink:href="#DejaVuSans-33" transform="translate(746.109375 0)"/>
    <use xlink:href="#DejaVuSans-10" transform="translate(804.203125 0)"/>
    <use xlink:href="#DejaVuSans-3c4" transform="translate(840.28125 0)"/>
    <use xlink:href="#DejaVuSans-3d4" transform="translate(901.5625 0)"/>
    <use xlink:href="#DejaVuSans-3d9" transform="translate(965.046875 0)"/>
    <use xlink:href="#DejaVuSans-3cc" transform="translate(1024.234375 0)"/>
    <use xlink:href="#DejaVuSans-3d6" transform="translate(1089.21875 0)"/>
    <use xlink:href="#DejaVuSans-3c9" transform="translate(1147.46875 0)"/>
    <use xlink:href="#DejaVuSans-3ce" transform="translate(1209 0)"/>
    <use xlink:href="#DejaVuSans-3d6" transform="translate(1269.40625 0)"/>
    <use xlink:href="#DejaVuSans-3d7" transform="translate(1327.65625 0)"/>
    <use xlink:href="#DejaVuSans-3d4" transform="translate(1386.84375 0)"/>
    <use xlink:href="#DejaVuSans-3" transform="translate(1450.328125 0)"/>
    <use xlink:href="#DejaVuSans-3d3" transform="translate(1482.109375 0)"/>
    <use xlink:href="#DejaVuSans-3d2" transform="translate(1547.484375 0)"/>
    <use xlink:href="#DejaVuSans-3" transform="translate(1608.671875 0)"/>
    <use xlink:href="#DejaVuSans-57" transform="translate(1640.453125 0)"/>
    <use xlink:href="#DejaVuSans-48" transform="translate(1679.65625 0)"/>
    <use xlink:href="#DejaVuSans-56" transform="translate(1741.1875 0)"/>
    <use xlink:href="#DejaVuSans-57" transform="translate(1793.28125 0)"/>
    <use xlink:href="#DejaVuSans-3" transform="translate(1832.484375 0)"/>
    <use xlink:href="#DejaVuSans-44" transform="translate(1864.265625 0)"/>
    <use xlink:href="#DejaVuSans-46" transform="translate(1925.546875 0)"/>
    <use xlink:href="#DejaVuSans-46" transform="translate(1980.53125 0)"/>
    <use xlink:href="#DejaVuSans-58" transform="translate(2035.515625 0)"/>
    <use xlink:href="#DejaVuSans-55" transform="translate(2098.890625 0)"/>
    <use xlink:href="#DejaVuSans-44" transform="translate(2140 0)"/>
    <use xlink:href="#DejaVuSans-46" transform="translate(2201.28125 0)"/>
    <use xlink:href="#DejaVuSans-5c" transform="translate(2256.265625 0)"/>
    <use xlink:href="#DejaVuSans-3" transform="translate(2315.453125 0)"/>
    <use xlink:href="#DejaVuSans-3cc" transform="translate(2347.234375 0)"/>
    <use xlink:href="#DejaVuSans-3" transform="translate(2412.21875 0)"/>
    <use xlink:href="#DejaVuSans-28" transform="translate(2444 0)"/>
    <use xlink:href="#DejaVuSans-28" transform="translate(2507.1875 0)"/>
    <use xlink:href="#DejaVuSans-35" transform="translate(2570.375 0)"/>
   </g>
  </g>
 </g>
 <defs>
  <clipPath id="p011f0aac6e">
   <rect x="47.2875" y="42.52298" width="457.464448" height="292.629217"/>
  </clipPath>
  <clipPath id="pf7f0694089">
   <rect x="551.735073" y="42.52298" width="457.464448" height="292.629217"/>
  </clipPath>
 </defs>
</svg>
