<?xml version="1.0" encoding="utf-8" standalone="no"?>
<!DOCTYPE svg PUBLIC "-//W3C//DTD SVG 1.1//EN"
  "http://www.w3.org/Graphics/SVG/1.1/DTD/svg11.dtd">
<svg xmlns:xlink="http://www.w3.org/1999/xlink" width="656.39952pt" height="440.39952pt" viewBox="0 0 656.39952 440.39952" xmlns="http://www.w3.org/2000/svg" version="1.1">
 <metadata>
  <rdf:RDF xmlns:dc="http://purl.org/dc/elements/1.1/" xmlns:cc="http://creativecommons.org/ns#" xmlns:rdf="http://www.w3.org/1999/02/22-rdf-syntax-ns#">
   <cc:Work>
    <dc:type rdf:resource="http://purl.org/dc/dcmitype/StillImage"/>
    <dc:date>2026-07-08T13:35:09.006409</dc:date>
    <dc:format>image/svg+xml</dc:format>
    <dc:creator>
     <cc:Agent>
      <dc:title>Matplotlib v3.11.0, https://matplotlib.org/</dc:title>
     </cc:Agent>
    </dc:creator>
   </cc:Work>
  </rdf:RDF>
 </metadata>
 <defs>
  <style type="text/css">*{stroke-linejoin: round; stroke-linecap: butt}</style>
 </defs>
 <g id="figure_1">
  <g id="patch_1">
   <path d="M 0 440.39952 
L 656.39952 440.39952 
L 656.39952 0 
L 0 0 
z
" style="fill: #ffffff"/>
  </g>
  <g id="axes_1">
   <g id="patch_2">
    <path d="M 53.821094 402.198739 
L 649.19952 402.198739 
L 649.19952 22.5225 
L 53.821094 22.5225 
z
" style="fill: #ffffff"/>
   </g>
   <g id="patch_3">
    <path d="M 80.883749 402.198739 
L 152.520191 402.198739 
L 152.520191 184.779252 
L 80.883749 184.779252 
z
" clip-path="url(#p43a3df7095)" style="fill: #1f77b4"/>
   </g>
   <g id="patch_4">
    <path d="M 279.873865 402.198739 
L 351.510307 402.198739 
L 351.510307 80.439214 
L 279.873865 80.439214 
z
" clip-path="url(#p43a3df7095)" style="fill: #1f77b4"/>
   </g>
   <g id="patch_5">
    <path d="M 478.863981 402.198739 
L 550.500423 402.198739 
L 550.500423 193.198928 
L 478.863981 193.198928 
z
" clip-path="url(#p43a3df7095)" style="fill: #1f77b4"/>
   </g>
   <g id="patch_6">
    <path d="M 152.520191 402.198739 
L 224.156633 402.198739 
L 224.156633 391.221186 
L 152.520191 391.221186 
z
" clip-path="url(#p43a3df7095)" style="fill: #ff7f0e"/>
   </g>
   <g id="patch_7">
    <path d="M 351.510307 402.198739 
L 423.146749 402.198739 
L 423.146749 392.073812 
L 351.510307 392.073812 
z
" clip-path="url(#p43a3df7095)" style="fill: #ff7f0e"/>
   </g>
   <g id="patch_8">
    <path d="M 550.500423 402.198739 
L 622.136864 402.198739 
L 622.136864 391.114608 
L 550.500423 391.114608 
z
" clip-path="url(#p43a3df7095)" style="fill: #ff7f0e"/>
   </g>
   <g id="matplotlib.axis_1">
    <g id="xtick_1">
     <g id="line2d_1">
      <defs>
       <path id="m336b724bb0" d="M 0 0 
L 0 3.5 
" style="stroke: #000000; stroke-width: 0.8"/>
      </defs>
      <g>
       <use xlink:href="#m336b724bb0" x="152.520191" y="402.198739" style="stroke: #000000; stroke-width: 0.8"/>
      </g>
     </g>
     <g id="text_1">
      <!-- Global policy -->
      <g transform="translate(120.260816 416.797176) scale(0.1 -0.1)">
       <defs>
        <path id="DejaVuSans-2a" d="M 3809 666 
L 3809 1919 
L 2778 1919 
L 2778 2438 
L 4434 2438 
L 4434 434 
Q 4069 175 3628 42 
Q 3188 -91 2688 -91 
Q 1594 -91 976 548 
Q 359 1188 359 2328 
Q 359 3472 976 4111 
Q 1594 4750 2688 4750 
Q 3144 4750 3555 4637 
Q 3966 4525 4313 4306 
L 4313 3634 
Q 3963 3931 3569 4081 
Q 3175 4231 2741 4231 
Q 1884 4231 1454 3753 
Q 1025 3275 1025 2328 
Q 1025 1384 1454 906 
Q 1884 428 2741 428 
Q 3075 428 3337 486 
Q 3600 544 3809 666 
z
" transform="scale(0.015625)"/>
        <path id="DejaVuSans-4f" d="M 603 4863 
L 1178 4863 
L 1178 0 
L 603 0 
L 603 4863 
z
" transform="scale(0.015625)"/>
        <path id="DejaVuSans-52" d="M 1959 3097 
Q 1497 3097 1228 2736 
Q 959 2375 959 1747 
Q 959 1119 1226 758 
Q 1494 397 1959 397 
Q 2419 397 2687 759 
Q 2956 1122 2956 1747 
Q 2956 2369 2687 2733 
Q 2419 3097 1959 3097 
z
M 1959 3584 
Q 2709 3584 3137 3096 
Q 3566 2609 3566 1747 
Q 3566 888 3137 398 
Q 2709 -91 1959 -91 
Q 1206 -91 779 398 
Q 353 888 353 1747 
Q 353 2609 779 3096 
Q 1206 3584 1959 3584 
z
" transform="scale(0.015625)"/>
        <path id="DejaVuSans-45" d="M 3116 1747 
Q 3116 2381 2855 2742 
Q 2594 3103 2138 3103 
Q 1681 3103 1420 2742 
Q 1159 2381 1159 1747 
Q 1159 1113 1420 752 
Q 1681 391 2138 391 
Q 2594 391 2855 752 
Q 3116 1113 3116 1747 
z
M 1159 2969 
Q 1341 3281 1617 3432 
Q 1894 3584 2278 3584 
Q 2916 3584 3314 3078 
Q 3713 2572 3713 1747 
Q 3713 922 3314 415 
Q 2916 -91 2278 -91 
Q 1894 -91 1617 61 
Q 1341 213 1159 525 
L 1159 0 
L 581 0 
L 581 4863 
L 1159 4863 
L 1159 2969 
z
" transform="scale(0.015625)"/>
        <path id="DejaVuSans-44" d="M 2194 1759 
Q 1497 1759 1228 1600 
Q 959 1441 959 1056 
Q 959 750 1161 570 
Q 1363 391 1709 391 
Q 2188 391 2477 730 
Q 2766 1069 2766 1631 
L 2766 1759 
L 2194 1759 
z
M 3341 1997 
L 3341 0 
L 2766 0 
L 2766 531 
Q 2569 213 2275 61 
Q 1981 -91 1556 -91 
Q 1019 -91 701 211 
Q 384 513 384 1019 
Q 384 1609 779 1909 
Q 1175 2209 1959 2209 
L 2766 2209 
L 2766 2266 
Q 2766 2663 2505 2880 
Q 2244 3097 1772 3097 
Q 1472 3097 1187 3025 
Q 903 2953 641 2809 
L 641 3341 
Q 956 3463 1253 3523 
Q 1550 3584 1831 3584 
Q 2591 3584 2966 3190 
Q 3341 2797 3341 1997 
z
" transform="scale(0.015625)"/>
        <path id="DejaVuSans-3" transform="scale(0.015625)"/>
        <path id="DejaVuSans-53" d="M 1159 525 
L 1159 -1331 
L 581 -1331 
L 581 3500 
L 1159 3500 
L 1159 2969 
Q 1341 3281 1617 3432 
Q 1894 3584 2278 3584 
Q 2916 3584 3314 3078 
Q 3713 2572 3713 1747 
Q 3713 922 3314 415 
Q 2916 -91 2278 -91 
Q 1894 -91 1617 61 
Q 1341 213 1159 525 
z
M 3116 1747 
Q 3116 2381 2855 2742 
Q 2594 3103 2138 3103 
Q 1681 3103 1420 2742 
Q 1159 2381 1159 1747 
Q 1159 1113 1420 752 
Q 1681 391 2138 391 
Q 2594 391 2855 752 
Q 3116 1113 3116 1747 
z
" transform="scale(0.015625)"/>
        <path id="DejaVuSans-4c" d="M 603 3500 
L 1178 3500 
L 1178 0 
L 603 0 
L 603 3500 
z
M 603 4863 
L 1178 4863 
L 1178 4134 
L 603 4134 
L 603 4863 
z
" transform="scale(0.015625)"/>
        <path id="DejaVuSans-46" d="M 3122 3366 
L 3122 2828 
Q 2878 2963 2633 3030 
Q 2388 3097 2138 3097 
Q 1578 3097 1268 2742 
Q 959 2388 959 1747 
Q 959 1106 1268 751 
Q 1578 397 2138 397 
Q 2388 397 2633 464 
Q 2878 531 3122 666 
L 3122 134 
Q 2881 22 2623 -34 
Q 2366 -91 2075 -91 
Q 1284 -91 818 406 
Q 353 903 353 1747 
Q 353 2603 823 3093 
Q 1294 3584 2113 3584 
Q 2378 3584 2631 3529 
Q 2884 3475 3122 3366 
z
" transform="scale(0.015625)"/>
        <path id="DejaVuSans-5c" d="M 2059 -325 
Q 1816 -950 1584 -1140 
Q 1353 -1331 966 -1331 
L 506 -1331 
L 506 -850 
L 844 -850 
Q 1081 -850 1212 -737 
Q 1344 -625 1503 -206 
L 1606 56 
L 191 3500 
L 800 3500 
L 1894 763 
L 2988 3500 
L 3597 3500 
L 2059 -325 
z
" transform="scale(0.015625)"/>
       </defs>
       <use xlink:href="#DejaVuSans-2a"/>
       <use xlink:href="#DejaVuSans-4f" transform="translate(77.484375 0)"/>
       <use xlink:href="#DejaVuSans-52" transform="translate(105.265625 0)"/>
       <use xlink:href="#DejaVuSans-45" transform="translate(166.453125 0)"/>
       <use xlink:href="#DejaVuSans-44" transform="translate(229.9375 0)"/>
       <use xlink:href="#DejaVuSans-4f" transform="translate(291.21875 0)"/>
       <use xlink:href="#DejaVuSans-3" transform="translate(319 0)"/>
       <use xlink:href="#DejaVuSans-53" transform="translate(350.78125 0)"/>
       <use xlink:href="#DejaVuSans-52" transform="translate(414.265625 0)"/>
       <use xlink:href="#DejaVuSans-4f" transform="translate(475.453125 0)"/>
       <use xlink:href="#DejaVuSans-4c" transform="translate(503.234375 0)"/>
       <use xlink:href="#DejaVuSans-46" transform="translate(531.015625 0)"/>
       <use xlink:href="#DejaVuSans-5c" transform="translate(586 0)"/>
      </g>
     </g>
    </g>
    <g id="xtick_2">
     <g id="line2d_2">
      <g>
       <use xlink:href="#m336b724bb0" x="351.510307" y="402.198739" style="stroke: #000000; stroke-width: 0.8"/>
      </g>
     </g>
     <g id="text_2">
      <!-- Naive per-user policy -->
      <g transform="translate(298.686088 416.797176) scale(0.1 -0.1)">
       <defs>
        <path id="DejaVuSans-31" d="M 628 4666 
L 1478 4666 
L 3547 763 
L 3547 4666 
L 4159 4666 
L 4159 0 
L 3309 0 
L 1241 3903 
L 1241 0 
L 628 0 
L 628 4666 
z
" transform="scale(0.015625)"/>
        <path id="DejaVuSans-59" d="M 191 3500 
L 800 3500 
L 1894 563 
L 2988 3500 
L 3597 3500 
L 2284 0 
L 1503 0 
L 191 3500 
z
" transform="scale(0.015625)"/>
        <path id="DejaVuSans-48" d="M 3597 1894 
L 3597 1613 
L 953 1613 
Q 991 1019 1311 708 
Q 1631 397 2203 397 
Q 2534 397 2845 478 
Q 3156 559 3463 722 
L 3463 178 
Q 3153 47 2828 -22 
Q 2503 -91 2169 -91 
Q 1331 -91 842 396 
Q 353 884 353 1716 
Q 353 2575 817 3079 
Q 1281 3584 2069 3584 
Q 2775 3584 3186 3129 
Q 3597 2675 3597 1894 
z
M 3022 2063 
Q 3016 2534 2758 2815 
Q 2500 3097 2075 3097 
Q 1594 3097 1305 2825 
Q 1016 2553 972 2059 
L 3022 2063 
z
" transform="scale(0.015625)"/>
        <path id="DejaVuSans-55" d="M 2631 2963 
Q 2534 3019 2420 3045 
Q 2306 3072 2169 3072 
Q 1681 3072 1420 2755 
Q 1159 2438 1159 1844 
L 1159 0 
L 581 0 
L 581 3500 
L 1159 3500 
L 1159 2956 
Q 1341 3275 1631 3429 
Q 1922 3584 2338 3584 
Q 2397 3584 2469 3576 
Q 2541 3569 2628 3553 
L 2631 2963 
z
" transform="scale(0.015625)"/>
        <path id="DejaVuSans-10" d="M 313 2009 
L 1997 2009 
L 1997 1497 
L 313 1497 
L 313 2009 
z
" transform="scale(0.015625)"/>
        <path id="DejaVuSans-58" d="M 544 1381 
L 544 3500 
L 1119 3500 
L 1119 1403 
Q 1119 906 1312 657 
Q 1506 409 1894 409 
Q 2359 409 2629 706 
Q 2900 1003 2900 1516 
L 2900 3500 
L 3475 3500 
L 3475 0 
L 2900 0 
L 2900 538 
Q 2691 219 2414 64 
Q 2138 -91 1772 -91 
Q 1169 -91 856 284 
Q 544 659 544 1381 
z
M 1991 3584 
L 1991 3584 
z
" transform="scale(0.015625)"/>
        <path id="DejaVuSans-56" d="M 2834 3397 
L 2834 2853 
Q 2591 2978 2328 3040 
Q 2066 3103 1784 3103 
Q 1356 3103 1142 2972 
Q 928 2841 928 2578 
Q 928 2378 1081 2264 
Q 1234 2150 1697 2047 
L 1894 2003 
Q 2506 1872 2764 1633 
Q 3022 1394 3022 966 
Q 3022 478 2636 193 
Q 2250 -91 1575 -91 
Q 1294 -91 989 -36 
Q 684 19 347 128 
L 347 722 
Q 666 556 975 473 
Q 1284 391 1588 391 
Q 1994 391 2212 530 
Q 2431 669 2431 922 
Q 2431 1156 2273 1281 
Q 2116 1406 1581 1522 
L 1381 1569 
Q 847 1681 609 1914 
Q 372 2147 372 2553 
Q 372 3047 722 3315 
Q 1072 3584 1716 3584 
Q 2034 3584 2315 3537 
Q 2597 3491 2834 3397 
z
" transform="scale(0.015625)"/>
       </defs>
       <use xlink:href="#DejaVuSans-31"/>
       <use xlink:href="#DejaVuSans-44" transform="translate(74.8125 0)"/>
       <use xlink:href="#DejaVuSans-4c" transform="translate(136.09375 0)"/>
       <use xlink:href="#DejaVuSans-59" transform="translate(163.875 0)"/>
       <use xlink:href="#DejaVuSans-48" transform="translate(223.0625 0)"/>
       <use xlink:href="#DejaVuSans-3" transform="translate(284.59375 0)"/>
       <use xlink:href="#DejaVuSans-53" transform="translate(316.375 0)"/>
       <use xlink:href="#DejaVuSans-48" transform="translate(379.859375 0)"/>
       <use xlink:href="#DejaVuSans-55" transform="translate(441.390625 0)"/>
       <use xlink:href="#DejaVuSans-10" transform="translate(476.109375 0)"/>
       <use xlink:href="#DejaVuSans-58" transform="translate(512.1875 0)"/>
       <use xlink:href="#DejaVuSans-56" transform="translate(575.5625 0)"/>
       <use xlink:href="#DejaVuSans-48" transform="translate(627.65625 0)"/>
       <use xlink:href="#DejaVuSans-55" transform="translate(689.1875 0)"/>
       <use xlink:href="#DejaVuSans-3" transform="translate(730.296875 0)"/>
       <use xlink:href="#DejaVuSans-53" transform="translate(762.078125 0)"/>
       <use xlink:href="#DejaVuSans-52" transform="translate(825.5625 0)"/>
       <use xlink:href="#DejaVuSans-4f" transform="translate(886.75 0)"/>
       <use xlink:href="#DejaVuSans-4c" transform="translate(914.53125 0)"/>
       <use xlink:href="#DejaVuSans-46" transform="translate(942.3125 0)"/>
       <use xlink:href="#DejaVuSans-5c" transform="translate(997.296875 0)"/>
      </g>
     </g>
    </g>
    <g id="xtick_3">
     <g id="line2d_3">
      <g>
       <use xlink:href="#m336b724bb0" x="550.500423" y="402.198739" style="stroke: #000000; stroke-width: 0.8"/>
      </g>
     </g>
     <g id="text_3">
      <!-- Guarded per-user policy -->
      <g transform="translate(490.405891 416.797176) scale(0.1 -0.1)">
       <defs>
        <path id="DejaVuSans-47" d="M 2906 2969 
L 2906 4863 
L 3481 4863 
L 3481 0 
L 2906 0 
L 2906 525 
Q 2725 213 2448 61 
Q 2172 -91 1784 -91 
Q 1150 -91 751 415 
Q 353 922 353 1747 
Q 353 2572 751 3078 
Q 1150 3584 1784 3584 
Q 2172 3584 2448 3432 
Q 2725 3281 2906 2969 
z
M 947 1747 
Q 947 1113 1208 752 
Q 1469 391 1925 391 
Q 2381 391 2643 752 
Q 2906 1113 2906 1747 
Q 2906 2381 2643 2742 
Q 2381 3103 1925 3103 
Q 1469 3103 1208 2742 
Q 947 2381 947 1747 
z
" transform="scale(0.015625)"/>
       </defs>
       <use xlink:href="#DejaVuSans-2a"/>
       <use xlink:href="#DejaVuSans-58" transform="translate(77.484375 0)"/>
       <use xlink:href="#DejaVuSans-44" transform="translate(140.859375 0)"/>
       <use xlink:href="#DejaVuSans-55" transform="translate(202.140625 0)"/>
       <use xlink:href="#DejaVuSans-47" transform="translate(241.5 0)"/>
       <use xlink:href="#DejaVuSans-48" transform="translate(304.984375 0)"/>
       <use xlink:href="#DejaVuSans-47" transform="translate(366.515625 0)"/>
       <use xlink:href="#DejaVuSans-3" transform="translate(430 0)"/>
       <use xlink:href="#DejaVuSans-53" transform="translate(461.78125 0)"/>
       <use xlink:href="#DejaVuSans-48" transform="translate(525.265625 0)"/>
       <use xlink:href="#DejaVuSans-55" transform="translate(586.796875 0)"/>
       <use xlink:href="#DejaVuSans-10" transform="translate(621.515625 0)"/>
       <use xlink:href="#DejaVuSans-58" transform="translate(657.59375 0)"/>
       <use xlink:href="#DejaVuSans-56" transform="translate(720.96875 0)"/>
       <use xlink:href="#DejaVuSans-48" transform="translate(773.0625 0)"/>
       <use xlink:href="#DejaVuSans-55" transform="translate(834.59375 0)"/>
       <use xlink:href="#DejaVuSans-3" transform="translate(875.703125 0)"/>
       <use xlink:href="#DejaVuSans-53" transform="translate(907.484375 0)"/>
       <use xlink:href="#DejaVuSans-52" transform="translate(970.96875 0)"/>
       <use xlink:href="#DejaVuSans-4f" transform="translate(1032.15625 0)"/>
       <use xlink:href="#DejaVuSans-4c" transform="translate(1059.9375 0)"/>
       <use xlink:href="#DejaVuSans-46" transform="translate(1087.71875 0)"/>
       <use xlink:href="#DejaVuSans-5c" transform="translate(1142.703125 0)"/>
      </g>
     </g>
    </g>
    <g id="text_4">
     <!-- Политика аутентификации -->
     <g transform="translate(279.457182 430.797176) scale(0.1 -0.1)">
      <defs>
       <path id="DejaVuSans-3b3" d="M 4184 4666 
L 4184 0 
L 3553 0 
L 3553 4134 
L 1259 4134 
L 1259 0 
L 628 0 
L 628 4666 
L 4184 4666 
z
" transform="scale(0.015625)"/>
       <path id="DejaVuSans-3d2" d="M 1959 3097 
Q 1497 3097 1228 2736 
Q 959 2375 959 1747 
Q 959 1119 1226 758 
Q 1494 397 1959 397 
Q 2419 397 2687 759 
Q 2956 1122 2956 1747 
Q 2956 2369 2687 2733 
Q 2419 3097 1959 3097 
z
M 1959 3584 
Q 2709 3584 3137 3096 
Q 3566 2609 3566 1747 
Q 3566 888 3137 398 
Q 2709 -91 1959 -91 
Q 1206 -91 779 398 
Q 353 888 353 1747 
Q 353 2609 779 3096 
Q 1206 3584 1959 3584 
z
" transform="scale(0.015625)"/>
       <path id="DejaVuSans-3cf" d="M 238 0 
L 238 478 
Q 806 566 981 959 
Q 1194 1513 1194 2928 
L 1194 3500 
L 3559 3500 
L 3559 0 
L 2984 0 
L 2984 3041 
L 1769 3041 
L 1769 2694 
Q 1769 1344 1494 738 
Q 1200 91 238 0 
z
" transform="scale(0.015625)"/>
       <path id="DejaVuSans-3cc" d="M 3578 3500 
L 3578 0 
L 3006 0 
L 3006 2809 
L 1319 0 
L 581 0 
L 581 3500 
L 1153 3500 
L 1153 697 
L 2838 3500 
L 3578 3500 
z
" transform="scale(0.015625)"/>
       <path id="DejaVuSans-3d6" d="M 188 3500 
L 3541 3500 
L 3541 3041 
L 2147 3041 
L 2147 0 
L 1581 0 
L 1581 3041 
L 188 3041 
L 188 3500 
z
" transform="scale(0.015625)"/>
       <path id="DejaVuSans-3ce" d="M 581 3500 
L 1153 3500 
L 1153 1856 
L 2775 3500 
L 3481 3500 
L 2144 2147 
L 3653 0 
L 3009 0 
L 1769 1766 
L 1153 1141 
L 1153 0 
L 581 0 
L 581 3500 
z
" transform="scale(0.015625)"/>
       <path id="DejaVuSans-3c4" d="M 2194 1759 
Q 1497 1759 1228 1600 
Q 959 1441 959 1056 
Q 959 750 1161 570 
Q 1363 391 1709 391 
Q 2188 391 2477 730 
Q 2766 1069 2766 1631 
L 2766 1759 
L 2194 1759 
z
M 3341 1997 
L 3341 0 
L 2766 0 
L 2766 531 
Q 2569 213 2275 61 
Q 1981 -91 1556 -91 
Q 1019 -91 701 211 
Q 384 513 384 1019 
Q 384 1609 779 1909 
Q 1175 2209 1959 2209 
L 2766 2209 
L 2766 2266 
Q 2766 2663 2505 2880 
Q 2244 3097 1772 3097 
Q 1472 3097 1187 3025 
Q 903 2953 641 2809 
L 641 3341 
Q 956 3463 1253 3523 
Q 1550 3584 1831 3584 
Q 2591 3584 2966 3190 
Q 3341 2797 3341 1997 
z
" transform="scale(0.015625)"/>
       <path id="DejaVuSans-3d7" d="M 2059 -325 
Q 1816 -950 1584 -1140 
Q 1353 -1331 966 -1331 
L 506 -1331 
L 506 -850 
L 844 -850 
Q 1081 -850 1212 -737 
Q 1344 -625 1503 -206 
L 1606 56 
L 191 3500 
L 800 3500 
L 1894 763 
L 2988 3500 
L 3597 3500 
L 2059 -325 
z
" transform="scale(0.015625)"/>
       <path id="DejaVuSans-3c9" d="M 3597 1894 
L 3597 1613 
L 953 1613 
Q 991 1019 1311 708 
Q 1631 397 2203 397 
Q 2534 397 2845 478 
Q 3156 559 3463 722 
L 3463 178 
Q 3153 47 2828 -22 
Q 2503 -91 2169 -91 
Q 1331 -91 842 396 
Q 353 884 353 1716 
Q 353 2575 817 3079 
Q 1281 3584 2069 3584 
Q 2775 3584 3186 3129 
Q 3597 2675 3597 1894 
z
M 3022 2063 
Q 3016 2534 2758 2815 
Q 2500 3097 2075 3097 
Q 1594 3097 1305 2825 
Q 1016 2553 972 2059 
L 3022 2063 
z
" transform="scale(0.015625)"/>
       <path id="DejaVuSans-3d1" d="M 581 3500 
L 1159 3500 
L 1159 2072 
L 3025 2072 
L 3025 3500 
L 3603 3500 
L 3603 0 
L 3025 0 
L 3025 1613 
L 1159 1613 
L 1159 0 
L 581 0 
L 581 3500 
z
" transform="scale(0.015625)"/>
       <path id="DejaVuSans-3d8" d="M 947 1747 
Q 947 1013 1173 702 
Q 1400 391 1784 391 
Q 2091 391 2447 916 
L 2447 2578 
Q 2091 3103 1784 3103 
Q 1400 3103 1173 2792 
Q 947 2481 947 1747 
z
M 2447 -1331 
L 2447 447 
Q 2269 153 2064 31 
Q 1859 -91 1600 -91 
Q 1078 -91 714 392 
Q 350 875 350 1734 
Q 350 2594 714 3089 
Q 1078 3584 1600 3584 
Q 1859 3584 2064 3465 
Q 2269 3347 2447 3053 
L 2447 4666 
L 3025 4666 
L 3025 3053 
Q 3203 3347 3408 3465 
Q 3613 3584 3872 3584 
Q 4394 3584 4758 3089 
Q 5122 2594 5122 1734 
Q 5122 875 4758 392 
Q 4394 -91 3872 -91 
Q 3613 -91 3408 31 
Q 3203 153 3025 447 
L 3025 -1331 
L 2447 -1331 
z
M 4525 1747 
Q 4525 2481 4298 2792 
Q 4072 3103 3688 3103 
Q 3381 3103 3025 2578 
L 3025 916 
Q 3381 391 3688 391 
Q 4072 391 4298 702 
Q 4525 1013 4525 1747 
z
" transform="scale(0.015625)"/>
       <path id="DejaVuSans-3da" d="M 3603 0 
L 581 0 
L 581 3500 
L 1159 3500 
L 1159 459 
L 3025 459 
L 3025 3500 
L 3603 3500 
L 3603 459 
L 4063 459 
L 4063 -884 
L 3603 -884 
L 3603 0 
z
" transform="scale(0.015625)"/>
      </defs>
      <use xlink:href="#DejaVuSans-3b3"/>
      <use xlink:href="#DejaVuSans-3d2" transform="translate(75.203125 0)"/>
      <use xlink:href="#DejaVuSans-3cf" transform="translate(136.390625 0)"/>
      <use xlink:href="#DejaVuSans-3cc" transform="translate(200.3125 0)"/>
      <use xlink:href="#DejaVuSans-3d6" transform="translate(265.296875 0)"/>
      <use xlink:href="#DejaVuSans-3cc" transform="translate(323.546875 0)"/>
      <use xlink:href="#DejaVuSans-3ce" transform="translate(388.53125 0)"/>
      <use xlink:href="#DejaVuSans-3c4" transform="translate(448.9375 0)"/>
      <use xlink:href="#DejaVuSans-3" transform="translate(510.21875 0)"/>
      <use xlink:href="#DejaVuSans-3c4" transform="translate(542 0)"/>
      <use xlink:href="#DejaVuSans-3d7" transform="translate(603.28125 0)"/>
      <use xlink:href="#DejaVuSans-3d6" transform="translate(662.46875 0)"/>
      <use xlink:href="#DejaVuSans-3c9" transform="translate(720.71875 0)"/>
      <use xlink:href="#DejaVuSans-3d1" transform="translate(782.25 0)"/>
      <use xlink:href="#DejaVuSans-3d6" transform="translate(847.625 0)"/>
      <use xlink:href="#DejaVuSans-3cc" transform="translate(905.875 0)"/>
      <use xlink:href="#DejaVuSans-3d8" transform="translate(970.859375 0)"/>
      <use xlink:href="#DejaVuSans-3cc" transform="translate(1056.359375 0)"/>
      <use xlink:href="#DejaVuSans-3ce" transform="translate(1121.34375 0)"/>
      <use xlink:href="#DejaVuSans-3c4" transform="translate(1181.75 0)"/>
      <use xlink:href="#DejaVuSans-3da" transform="translate(1243.03125 0)"/>
      <use xlink:href="#DejaVuSans-3cc" transform="translate(1311.09375 0)"/>
      <use xlink:href="#DejaVuSans-3cc" transform="translate(1376.078125 0)"/>
     </g>
    </g>
   </g>
   <g id="matplotlib.axis_2">
    <g id="ytick_1">
     <g id="line2d_4">
      <path d="M 53.821094 402.198739 
L 649.19952 402.198739 
" clip-path="url(#p43a3df7095)" style="fill: none; stroke-dasharray: 1.85,0.8; stroke-dashoffset: 0; stroke: #b0b0b0; stroke-opacity: 0.7; stroke-width: 0.5"/>
     </g>
     <g id="line2d_5">
      <defs>
       <path id="m695c687d7a" d="M 0 0 
L -3.5 0 
" style="stroke: #000000; stroke-width: 0.8"/>
      </defs>
      <g>
       <use xlink:href="#m695c687d7a" x="53.821094" y="402.198739" style="stroke: #000000; stroke-width: 0.8"/>
      </g>
     </g>
     <g id="text_5">
      <!-- 0 -->
      <g transform="translate(40.458594 405.997567) scale(0.1 -0.1)">
       <defs>
        <path id="DejaVuSans-13" d="M 2034 4250 
Q 1547 4250 1301 3770 
Q 1056 3291 1056 2328 
Q 1056 1369 1301 889 
Q 1547 409 2034 409 
Q 2525 409 2770 889 
Q 3016 1369 3016 2328 
Q 3016 3291 2770 3770 
Q 2525 4250 2034 4250 
z
M 2034 4750 
Q 2819 4750 3233 4129 
Q 3647 3509 3647 2328 
Q 3647 1150 3233 529 
Q 2819 -91 2034 -91 
Q 1250 -91 836 529 
Q 422 1150 422 2328 
Q 422 3509 836 4129 
Q 1250 4750 2034 4750 
z
" transform="scale(0.015625)"/>
       </defs>
       <use xlink:href="#DejaVuSans-13"/>
      </g>
     </g>
    </g>
    <g id="ytick_2">
     <g id="line2d_6">
      <path d="M 53.821094 348.909649 
L 649.19952 348.909649 
" clip-path="url(#p43a3df7095)" style="fill: none; stroke-dasharray: 1.85,0.8; stroke-dashoffset: 0; stroke: #b0b0b0; stroke-opacity: 0.7; stroke-width: 0.5"/>
     </g>
     <g id="line2d_7">
      <g>
       <use xlink:href="#m695c687d7a" x="53.821094" y="348.909649" style="stroke: #000000; stroke-width: 0.8"/>
      </g>
     </g>
     <g id="text_6">
      <!-- 500 -->
      <g transform="translate(27.733594 352.708477) scale(0.1 -0.1)">
       <defs>
        <path id="DejaVuSans-18" d="M 691 4666 
L 3169 4666 
L 3169 4134 
L 1269 4134 
L 1269 2991 
Q 1406 3038 1543 3061 
Q 1681 3084 1819 3084 
Q 2600 3084 3056 2656 
Q 3513 2228 3513 1497 
Q 3513 744 3044 326 
Q 2575 -91 1722 -91 
Q 1428 -91 1123 -41 
Q 819 9 494 109 
L 494 744 
Q 775 591 1075 516 
Q 1375 441 1709 441 
Q 2250 441 2565 725 
Q 2881 1009 2881 1497 
Q 2881 1984 2565 2268 
Q 2250 2553 1709 2553 
Q 1456 2553 1204 2497 
Q 953 2441 691 2322 
L 691 4666 
z
" transform="scale(0.015625)"/>
       </defs>
       <use xlink:href="#DejaVuSans-18"/>
       <use xlink:href="#DejaVuSans-13" transform="translate(63.625 0)"/>
       <use xlink:href="#DejaVuSans-13" transform="translate(127.25 0)"/>
      </g>
     </g>
    </g>
    <g id="ytick_3">
     <g id="line2d_8">
      <path d="M 53.821094 295.620559 
L 649.19952 295.620559 
" clip-path="url(#p43a3df7095)" style="fill: none; stroke-dasharray: 1.85,0.8; stroke-dashoffset: 0; stroke: #b0b0b0; stroke-opacity: 0.7; stroke-width: 0.5"/>
     </g>
     <g id="line2d_9">
      <g>
       <use xlink:href="#m695c687d7a" x="53.821094" y="295.620559" style="stroke: #000000; stroke-width: 0.8"/>
      </g>
     </g>
     <g id="text_7">
      <!-- 1000 -->
      <g transform="translate(21.371094 299.419387) scale(0.1 -0.1)">
       <defs>
        <path id="DejaVuSans-14" d="M 794 531 
L 1825 531 
L 1825 4091 
L 703 3866 
L 703 4441 
L 1819 4666 
L 2450 4666 
L 2450 531 
L 3481 531 
L 3481 0 
L 794 0 
L 794 531 
z
" transform="scale(0.015625)"/>
       </defs>
       <use xlink:href="#DejaVuSans-14"/>
       <use xlink:href="#DejaVuSans-13" transform="translate(63.625 0)"/>
       <use xlink:href="#DejaVuSans-13" transform="translate(127.25 0)"/>
       <use xlink:href="#DejaVuSans-13" transform="translate(190.875 0)"/>
      </g>
     </g>
    </g>
    <g id="ytick_4">
     <g id="line2d_10">
      <path d="M 53.821094 242.331469 
L 649.19952 242.331469 
" clip-path="url(#p43a3df7095)" style="fill: none; stroke-dasharray: 1.85,0.8; stroke-dashoffset: 0; stroke: #b0b0b0; stroke-opacity: 0.7; stroke-width: 0.5"/>
     </g>
     <g id="line2d_11">
      <g>
       <use xlink:href="#m695c687d7a" x="53.821094" y="242.331469" style="stroke: #000000; stroke-width: 0.8"/>
      </g>
     </g>
     <g id="text_8">
      <!-- 1500 -->
      <g transform="translate(21.371094 246.130297) scale(0.1 -0.1)">
       <use xlink:href="#DejaVuSans-14"/>
       <use xlink:href="#DejaVuSans-18" transform="translate(63.625 0)"/>
       <use xlink:href="#DejaVuSans-13" transform="translate(127.25 0)"/>
       <use xlink:href="#DejaVuSans-13" transform="translate(190.875 0)"/>
      </g>
     </g>
    </g>
    <g id="ytick_5">
     <g id="line2d_12">
      <path d="M 53.821094 189.042379 
L 649.19952 189.042379 
" clip-path="url(#p43a3df7095)" style="fill: none; stroke-dasharray: 1.85,0.8; stroke-dashoffset: 0; stroke: #b0b0b0; stroke-opacity: 0.7; stroke-width: 0.5"/>
     </g>
     <g id="line2d_13">
      <g>
       <use xlink:href="#m695c687d7a" x="53.821094" y="189.042379" style="stroke: #000000; stroke-width: 0.8"/>
      </g>
     </g>
     <g id="text_9">
      <!-- 2000 -->
      <g transform="translate(21.371094 192.841208) scale(0.1 -0.1)">
       <defs>
        <path id="DejaVuSans-15" d="M 1228 531 
L 3431 531 
L 3431 0 
L 469 0 
L 469 531 
Q 828 903 1448 1529 
Q 2069 2156 2228 2338 
Q 2531 2678 2651 2914 
Q 2772 3150 2772 3378 
Q 2772 3750 2511 3984 
Q 2250 4219 1831 4219 
Q 1534 4219 1204 4116 
Q 875 4013 500 3803 
L 500 4441 
Q 881 4594 1212 4672 
Q 1544 4750 1819 4750 
Q 2544 4750 2975 4387 
Q 3406 4025 3406 3419 
Q 3406 3131 3298 2873 
Q 3191 2616 2906 2266 
Q 2828 2175 2409 1742 
Q 1991 1309 1228 531 
z
" transform="scale(0.015625)"/>
       </defs>
       <use xlink:href="#DejaVuSans-15"/>
       <use xlink:href="#DejaVuSans-13" transform="translate(63.625 0)"/>
       <use xlink:href="#DejaVuSans-13" transform="translate(127.25 0)"/>
       <use xlink:href="#DejaVuSans-13" transform="translate(190.875 0)"/>
      </g>
     </g>
    </g>
    <g id="ytick_6">
     <g id="line2d_14">
      <path d="M 53.821094 135.75329 
L 649.19952 135.75329 
" clip-path="url(#p43a3df7095)" style="fill: none; stroke-dasharray: 1.85,0.8; stroke-dashoffset: 0; stroke: #b0b0b0; stroke-opacity: 0.7; stroke-width: 0.5"/>
     </g>
     <g id="line2d_15">
      <g>
       <use xlink:href="#m695c687d7a" x="53.821094" y="135.75329" style="stroke: #000000; stroke-width: 0.8"/>
      </g>
     </g>
     <g id="text_10">
      <!-- 2500 -->
      <g transform="translate(21.371094 139.552118) scale(0.1 -0.1)">
       <use xlink:href="#DejaVuSans-15"/>
       <use xlink:href="#DejaVuSans-18" transform="translate(63.625 0)"/>
       <use xlink:href="#DejaVuSans-13" transform="translate(127.25 0)"/>
       <use xlink:href="#DejaVuSans-13" transform="translate(190.875 0)"/>
      </g>
     </g>
    </g>
    <g id="ytick_7">
     <g id="line2d_16">
      <path d="M 53.821094 82.4642 
L 649.19952 82.4642 
" clip-path="url(#p43a3df7095)" style="fill: none; stroke-dasharray: 1.85,0.8; stroke-dashoffset: 0; stroke: #b0b0b0; stroke-opacity: 0.7; stroke-width: 0.5"/>
     </g>
     <g id="line2d_17">
      <g>
       <use xlink:href="#m695c687d7a" x="53.821094" y="82.4642" style="stroke: #000000; stroke-width: 0.8"/>
      </g>
     </g>
     <g id="text_11">
      <!-- 3000 -->
      <g transform="translate(21.371094 86.263028) scale(0.1 -0.1)">
       <defs>
        <path id="DejaVuSans-16" d="M 2597 2516 
Q 3050 2419 3304 2112 
Q 3559 1806 3559 1356 
Q 3559 666 3084 287 
Q 2609 -91 1734 -91 
Q 1441 -91 1130 -33 
Q 819 25 488 141 
L 488 750 
Q 750 597 1062 519 
Q 1375 441 1716 441 
Q 2309 441 2620 675 
Q 2931 909 2931 1356 
Q 2931 1769 2642 2001 
Q 2353 2234 1838 2234 
L 1294 2234 
L 1294 2753 
L 1863 2753 
Q 2328 2753 2575 2939 
Q 2822 3125 2822 3475 
Q 2822 3834 2567 4026 
Q 2313 4219 1838 4219 
Q 1578 4219 1281 4162 
Q 984 4106 628 3988 
L 628 4550 
Q 988 4650 1302 4700 
Q 1616 4750 1894 4750 
Q 2613 4750 3031 4423 
Q 3450 4097 3450 3541 
Q 3450 3153 3228 2886 
Q 3006 2619 2597 2516 
z
" transform="scale(0.015625)"/>
       </defs>
       <use xlink:href="#DejaVuSans-16"/>
       <use xlink:href="#DejaVuSans-13" transform="translate(63.625 0)"/>
       <use xlink:href="#DejaVuSans-13" transform="translate(127.25 0)"/>
       <use xlink:href="#DejaVuSans-13" transform="translate(190.875 0)"/>
      </g>
     </g>
    </g>
    <g id="ytick_8">
     <g id="line2d_18">
      <path d="M 53.821094 29.17511 
L 649.19952 29.17511 
" clip-path="url(#p43a3df7095)" style="fill: none; stroke-dasharray: 1.85,0.8; stroke-dashoffset: 0; stroke: #b0b0b0; stroke-opacity: 0.7; stroke-width: 0.5"/>
     </g>
     <g id="line2d_19">
      <g>
       <use xlink:href="#m695c687d7a" x="53.821094" y="29.17511" style="stroke: #000000; stroke-width: 0.8"/>
      </g>
     </g>
     <g id="text_12">
      <!-- 3500 -->
      <g transform="translate(21.371094 32.973938) scale(0.1 -0.1)">
       <use xlink:href="#DejaVuSans-16"/>
       <use xlink:href="#DejaVuSans-18" transform="translate(63.625 0)"/>
       <use xlink:href="#DejaVuSans-13" transform="translate(127.25 0)"/>
       <use xlink:href="#DejaVuSans-13" transform="translate(190.875 0)"/>
      </g>
     </g>
    </g>
    <g id="text_13">
     <!-- Количество ошибок -->
     <g transform="translate(14.96875 264.749682) rotate(-90) scale(0.1 -0.1)">
      <defs>
       <path id="DejaVuSans-3ae" d="M 628 4666 
L 1259 4666 
L 1259 2359 
L 3516 4666 
L 4325 4666 
L 2522 2822 
L 4419 0 
L 3731 0 
L 2113 2403 
L 1259 1531 
L 1259 0 
L 628 0 
L 628 4666 
z
" transform="scale(0.015625)"/>
       <path id="DejaVuSans-3db" d="M 2625 0 
L 2625 1472 
L 1553 1472 
Q 1075 1472 756 1769 
Q 469 2038 469 2613 
L 469 3500 
L 1044 3500 
L 1044 2666 
Q 1044 2300 1206 2116 
Q 1372 1931 1697 1931 
L 2625 1931 
L 2625 3500 
L 3200 3500 
L 3200 0 
L 2625 0 
z
" transform="scale(0.015625)"/>
       <path id="DejaVuSans-3d5" d="M 3122 3366 
L 3122 2828 
Q 2878 2963 2633 3030 
Q 2388 3097 2138 3097 
Q 1578 3097 1268 2742 
Q 959 2388 959 1747 
Q 959 1106 1268 751 
Q 1578 397 2138 397 
Q 2388 397 2633 464 
Q 2878 531 3122 666 
L 3122 134 
Q 2881 22 2623 -34 
Q 2366 -91 2075 -91 
Q 1284 -91 818 406 
Q 353 903 353 1747 
Q 353 2603 823 3093 
Q 1294 3584 2113 3584 
Q 2378 3584 2631 3529 
Q 2884 3475 3122 3366 
z
" transform="scale(0.015625)"/>
       <path id="DejaVuSans-3c6" d="M 1156 1613 
L 1156 459 
L 1975 459 
Q 2369 459 2575 607 
Q 2781 756 2781 1038 
Q 2781 1319 2575 1466 
Q 2369 1613 1975 1613 
L 1156 1613 
z
M 1156 3041 
L 1156 2072 
L 1913 2072 
Q 2238 2072 2444 2201 
Q 2650 2331 2650 2563 
Q 2650 2794 2444 2917 
Q 2238 3041 1913 3041 
L 1156 3041 
z
M 581 3500 
L 1950 3500 
Q 2566 3500 2897 3275 
Q 3228 3050 3228 2634 
Q 3228 2313 3059 2123 
Q 2891 1934 2559 1888 
Q 2956 1813 3175 1575 
Q 3394 1338 3394 981 
Q 3394 513 3033 256 
Q 2672 0 2003 0 
L 581 0 
L 581 3500 
z
" transform="scale(0.015625)"/>
       <path id="DejaVuSans-3dc" d="M 3216 459 
L 4697 459 
L 4697 3500 
L 5275 3500 
L 5275 0 
L 581 0 
L 581 3500 
L 1159 3500 
L 1159 459 
L 2638 459 
L 2638 3500 
L 3216 3500 
L 3216 459 
z
" transform="scale(0.015625)"/>
       <path id="DejaVuSans-3c5" d="M 1991 3584 
Q 2741 3584 3169 3096 
Q 3597 2609 3597 1747 
Q 3597 888 3169 398 
Q 2741 -91 1991 -91 
Q 1238 -91 822 384 
Q 406 859 384 1747 
L 366 2463 
Q 350 2834 350 2963 
Q 350 3463 531 3831 
Q 816 4409 1308 4659 
Q 1800 4909 2625 4916 
Q 3006 4919 3175 4972 
L 3334 4516 
Q 3181 4453 3041 4450 
L 2259 4397 
Q 1866 4369 1628 4231 
Q 1006 3866 947 3388 
L 925 3213 
Q 1331 3584 1991 3584 
z
M 1991 3097 
Q 1528 3097 1259 2736 
Q 991 2375 991 1747 
Q 991 1119 1258 758 
Q 1525 397 1991 397 
Q 2450 397 2719 759 
Q 2988 1122 2988 1747 
Q 2988 2369 2719 2733 
Q 2450 3097 1991 3097 
z
" transform="scale(0.015625)"/>
      </defs>
      <use xlink:href="#DejaVuSans-3ae"/>
      <use xlink:href="#DejaVuSans-3d2" transform="translate(71 0)"/>
      <use xlink:href="#DejaVuSans-3cf" transform="translate(132.1875 0)"/>
      <use xlink:href="#DejaVuSans-3cc" transform="translate(196.109375 0)"/>
      <use xlink:href="#DejaVuSans-3db" transform="translate(261.09375 0)"/>
      <use xlink:href="#DejaVuSans-3c9" transform="translate(320.171875 0)"/>
      <use xlink:href="#DejaVuSans-3d5" transform="translate(381.703125 0)"/>
      <use xlink:href="#DejaVuSans-3d6" transform="translate(436.6875 0)"/>
      <use xlink:href="#DejaVuSans-3c6" transform="translate(494.9375 0)"/>
      <use xlink:href="#DejaVuSans-3d2" transform="translate(553.875 0)"/>
      <use xlink:href="#DejaVuSans-3" transform="translate(615.0625 0)"/>
      <use xlink:href="#DejaVuSans-3d2" transform="translate(646.84375 0)"/>
      <use xlink:href="#DejaVuSans-3dc" transform="translate(708.03125 0)"/>
      <use xlink:href="#DejaVuSans-3cc" transform="translate(799.53125 0)"/>
      <use xlink:href="#DejaVuSans-3c5" transform="translate(864.515625 0)"/>
      <use xlink:href="#DejaVuSans-3d2" transform="translate(926.1875 0)"/>
      <use xlink:href="#DejaVuSans-3ce" transform="translate(987.375 0)"/>
     </g>
    </g>
   </g>
   <g id="patch_9">
    <path d="M 53.821094 402.198739 
L 53.821094 22.5225 
" style="fill: none; stroke: #000000; stroke-width: 0.8; stroke-linejoin: miter; stroke-linecap: square"/>
   </g>
   <g id="patch_10">
    <path d="M 649.19952 402.198739 
L 649.19952 22.5225 
" style="fill: none; stroke: #000000; stroke-width: 0.8; stroke-linejoin: miter; stroke-linecap: square"/>
   </g>
   <g id="patch_11">
    <path d="M 53.821094 402.198739 
L 649.19952 402.198739 
" style="fill: none; stroke: #000000; stroke-width: 0.8; stroke-linejoin: miter; stroke-linecap: square"/>
   </g>
   <g id="patch_12">
    <path d="M 53.821094 22.5225 
L 649.19952 22.5225 
" style="fill: none; stroke: #000000; stroke-width: 0.8; stroke-linejoin: miter; stroke-linecap: square"/>
   </g>
   <g id="text_14">
    <!-- 2040 -->
    <g transform="translate(105.24947 174.573155) scale(0.09 -0.09)">
     <defs>
      <path id="DejaVuSans-17" d="M 2419 4116 
L 825 1625 
L 2419 1625 
L 2419 4116 
z
M 2253 4666 
L 3047 4666 
L 3047 1625 
L 3713 1625 
L 3713 1100 
L 3047 1100 
L 3047 0 
L 2419 0 
L 2419 1100 
L 313 1100 
L 313 1709 
L 2253 4666 
z
" transform="scale(0.015625)"/>
     </defs>
     <use xlink:href="#DejaVuSans-15"/>
     <use xlink:href="#DejaVuSans-13" transform="translate(63.625 0)"/>
     <use xlink:href="#DejaVuSans-17" transform="translate(127.25 0)"/>
     <use xlink:href="#DejaVuSans-13" transform="translate(190.875 0)"/>
    </g>
   </g>
   <g id="text_15">
    <!-- 3019 -->
    <g transform="translate(304.239586 70.233117) scale(0.09 -0.09)">
     <defs>
      <path id="DejaVuSans-1c" d="M 703 97 
L 703 672 
Q 941 559 1184 500 
Q 1428 441 1663 441 
Q 2288 441 2617 861 
Q 2947 1281 2994 2138 
Q 2813 1869 2534 1725 
Q 2256 1581 1919 1581 
Q 1219 1581 811 2004 
Q 403 2428 403 3163 
Q 403 3881 828 4315 
Q 1253 4750 1959 4750 
Q 2769 4750 3195 4129 
Q 3622 3509 3622 2328 
Q 3622 1225 3098 567 
Q 2575 -91 1691 -91 
Q 1453 -91 1209 -44 
Q 966 3 703 97 
z
M 1959 2075 
Q 2384 2075 2632 2365 
Q 2881 2656 2881 3163 
Q 2881 3666 2632 3958 
Q 2384 4250 1959 4250 
Q 1534 4250 1286 3958 
Q 1038 3666 1038 3163 
Q 1038 2656 1286 2365 
Q 1534 2075 1959 2075 
z
" transform="scale(0.015625)"/>
     </defs>
     <use xlink:href="#DejaVuSans-16"/>
     <use xlink:href="#DejaVuSans-13" transform="translate(63.625 0)"/>
     <use xlink:href="#DejaVuSans-14" transform="translate(127.25 0)"/>
     <use xlink:href="#DejaVuSans-1c" transform="translate(190.875 0)"/>
    </g>
   </g>
   <g id="text_16">
    <!-- 1961 -->
    <g transform="translate(503.229702 182.992831) scale(0.09 -0.09)">
     <defs>
      <path id="DejaVuSans-19" d="M 2113 2584 
Q 1688 2584 1439 2293 
Q 1191 2003 1191 1497 
Q 1191 994 1439 701 
Q 1688 409 2113 409 
Q 2538 409 2786 701 
Q 3034 994 3034 1497 
Q 3034 2003 2786 2293 
Q 2538 2584 2113 2584 
z
M 3366 4563 
L 3366 3988 
Q 3128 4100 2886 4159 
Q 2644 4219 2406 4219 
Q 1781 4219 1451 3797 
Q 1122 3375 1075 2522 
Q 1259 2794 1537 2939 
Q 1816 3084 2150 3084 
Q 2853 3084 3261 2657 
Q 3669 2231 3669 1497 
Q 3669 778 3244 343 
Q 2819 -91 2113 -91 
Q 1303 -91 875 529 
Q 447 1150 447 2328 
Q 447 3434 972 4092 
Q 1497 4750 2381 4750 
Q 2619 4750 2861 4703 
Q 3103 4656 3366 4563 
z
" transform="scale(0.015625)"/>
     </defs>
     <use xlink:href="#DejaVuSans-14"/>
     <use xlink:href="#DejaVuSans-1c" transform="translate(63.625 0)"/>
     <use xlink:href="#DejaVuSans-19" transform="translate(127.25 0)"/>
     <use xlink:href="#DejaVuSans-14" transform="translate(190.875 0)"/>
    </g>
   </g>
   <g id="text_17">
    <!-- 103 -->
    <g transform="translate(179.749037 388.781974) scale(0.09 -0.09)">
     <use xlink:href="#DejaVuSans-14"/>
     <use xlink:href="#DejaVuSans-13" transform="translate(63.625 0)"/>
     <use xlink:href="#DejaVuSans-16" transform="translate(127.25 0)"/>
    </g>
   </g>
   <g id="text_18">
    <!-- 95 -->
    <g transform="translate(381.602278 389.634599) scale(0.09 -0.09)">
     <use xlink:href="#DejaVuSans-1c"/>
     <use xlink:href="#DejaVuSans-18" transform="translate(63.625 0)"/>
    </g>
   </g>
   <g id="text_19">
    <!-- 104 -->
    <g transform="translate(577.729268 388.675395) scale(0.09 -0.09)">
     <use xlink:href="#DejaVuSans-14"/>
     <use xlink:href="#DejaVuSans-13" transform="translate(63.625 0)"/>
     <use xlink:href="#DejaVuSans-17" transform="translate(127.25 0)"/>
    </g>
   </g>
   <g id="text_20">
    <!-- Сравнение global, naive и guarded policies по числу ошибок -->
    <g transform="translate(164.083432 16.5225) scale(0.12 -0.12)">
     <defs>
      <path id="DejaVuSans-3b5" d="M 4122 4306 
L 4122 3641 
Q 3803 3938 3442 4084 
Q 3081 4231 2675 4231 
Q 1875 4231 1450 3742 
Q 1025 3253 1025 2328 
Q 1025 1406 1450 917 
Q 1875 428 2675 428 
Q 3081 428 3442 575 
Q 3803 722 4122 1019 
L 4122 359 
Q 3791 134 3420 21 
Q 3050 -91 2638 -91 
Q 1578 -91 968 557 
Q 359 1206 359 2328 
Q 359 3453 968 4101 
Q 1578 4750 2638 4750 
Q 3056 4750 3426 4639 
Q 3797 4528 4122 4306 
z
" transform="scale(0.015625)"/>
      <path id="DejaVuSans-3d4" d="M 1159 525 
L 1159 -1331 
L 581 -1331 
L 581 3500 
L 1159 3500 
L 1159 2969 
Q 1341 3281 1617 3432 
Q 1894 3584 2278 3584 
Q 2916 3584 3314 3078 
Q 3713 2572 3713 1747 
Q 3713 922 3314 415 
Q 2916 -91 2278 -91 
Q 1894 -91 1617 61 
Q 1341 213 1159 525 
z
M 3116 1747 
Q 3116 2381 2855 2742 
Q 2594 3103 2138 3103 
Q 1681 3103 1420 2742 
Q 1159 2381 1159 1747 
Q 1159 1113 1420 752 
Q 1681 391 2138 391 
Q 2594 391 2855 752 
Q 3116 1113 3116 1747 
z
" transform="scale(0.015625)"/>
      <path id="DejaVuSans-4a" d="M 2906 1791 
Q 2906 2416 2648 2759 
Q 2391 3103 1925 3103 
Q 1463 3103 1205 2759 
Q 947 2416 947 1791 
Q 947 1169 1205 825 
Q 1463 481 1925 481 
Q 2391 481 2648 825 
Q 2906 1169 2906 1791 
z
M 3481 434 
Q 3481 -459 3084 -895 
Q 2688 -1331 1869 -1331 
Q 1566 -1331 1297 -1286 
Q 1028 -1241 775 -1147 
L 775 -588 
Q 1028 -725 1275 -790 
Q 1522 -856 1778 -856 
Q 2344 -856 2625 -561 
Q 2906 -266 2906 331 
L 2906 616 
Q 2728 306 2450 153 
Q 2172 0 1784 0 
Q 1141 0 747 490 
Q 353 981 353 1791 
Q 353 2603 747 3093 
Q 1141 3584 1784 3584 
Q 2172 3584 2450 3431 
Q 2728 3278 2906 2969 
L 2906 3500 
L 3481 3500 
L 3481 434 
z
" transform="scale(0.015625)"/>
      <path id="DejaVuSans-f" d="M 750 794 
L 1409 794 
L 1409 256 
L 897 -744 
L 494 -744 
L 750 256 
L 750 794 
z
" transform="scale(0.015625)"/>
      <path id="DejaVuSans-51" d="M 3513 2113 
L 3513 0 
L 2938 0 
L 2938 2094 
Q 2938 2591 2744 2837 
Q 2550 3084 2163 3084 
Q 1697 3084 1428 2787 
Q 1159 2491 1159 1978 
L 1159 0 
L 581 0 
L 581 3500 
L 1159 3500 
L 1159 2956 
Q 1366 3272 1645 3428 
Q 1925 3584 2291 3584 
Q 2894 3584 3203 3211 
Q 3513 2838 3513 2113 
z
" transform="scale(0.015625)"/>
      <path id="DejaVuSans-3d3" d="M 3603 3500 
L 3603 0 
L 3025 0 
L 3025 3041 
L 1159 3041 
L 1159 0 
L 581 0 
L 581 3500 
L 3603 3500 
z
" transform="scale(0.015625)"/>
     </defs>
     <use xlink:href="#DejaVuSans-3b5"/>
     <use xlink:href="#DejaVuSans-3d4" transform="translate(69.828125 0)"/>
     <use xlink:href="#DejaVuSans-3c4" transform="translate(133.3125 0)"/>
     <use xlink:href="#DejaVuSans-3c6" transform="translate(194.59375 0)"/>
     <use xlink:href="#DejaVuSans-3d1" transform="translate(253.53125 0)"/>
     <use xlink:href="#DejaVuSans-3c9" transform="translate(318.90625 0)"/>
     <use xlink:href="#DejaVuSans-3d1" transform="translate(380.4375 0)"/>
     <use xlink:href="#DejaVuSans-3cc" transform="translate(445.8125 0)"/>
     <use xlink:href="#DejaVuSans-3c9" transform="translate(510.796875 0)"/>
     <use xlink:href="#DejaVuSans-3" transform="translate(572.328125 0)"/>
     <use xlink:href="#DejaVuSans-4a" transform="translate(604.109375 0)"/>
     <use xlink:href="#DejaVuSans-4f" transform="translate(667.59375 0)"/>
     <use xlink:href="#DejaVuSans-52" transform="translate(695.375 0)"/>
     <use xlink:href="#DejaVuSans-45" transform="translate(756.5625 0)"/>
     <use xlink:href="#DejaVuSans-44" transform="translate(820.046875 0)"/>
     <use xlink:href="#DejaVuSans-4f" transform="translate(881.328125 0)"/>
     <use xlink:href="#DejaVuSans-f" transform="translate(909.109375 0)"/>
     <use xlink:href="#DejaVuSans-3" transform="translate(940.890625 0)"/>
     <use xlink:href="#DejaVuSans-51" transform="translate(972.671875 0)"/>
     <use xlink:href="#DejaVuSans-44" transform="translate(1036.046875 0)"/>
     <use xlink:href="#DejaVuSans-4c" transform="translate(1097.328125 0)"/>
     <use xlink:href="#DejaVuSans-59" transform="translate(1125.109375 0)"/>
     <use xlink:href="#DejaVuSans-48" transform="translate(1184.296875 0)"/>
     <use xlink:href="#DejaVuSans-3" transform="translate(1245.828125 0)"/>
     <use xlink:href="#DejaVuSans-3cc" transform="translate(1277.609375 0)"/>
     <use xlink:href="#DejaVuSans-3" transform="translate(1342.59375 0)"/>
     <use xlink:href="#DejaVuSans-4a" transform="translate(1374.375 0)"/>
     <use xlink:href="#DejaVuSans-58" transform="translate(1437.859375 0)"/>
     <use xlink:href="#DejaVuSans-44" transform="translate(1501.234375 0)"/>
     <use xlink:href="#DejaVuSans-55" transform="translate(1562.515625 0)"/>
     <use xlink:href="#DejaVuSans-47" transform="translate(1601.875 0)"/>
     <use xlink:href="#DejaVuSans-48" transform="translate(1665.359375 0)"/>
     <use xlink:href="#DejaVuSans-47" transform="translate(1726.890625 0)"/>
     <use xlink:href="#DejaVuSans-3" transform="translate(1790.375 0)"/>
     <use xlink:href="#DejaVuSans-53" transform="translate(1822.15625 0)"/>
     <use xlink:href="#DejaVuSans-52" transform="translate(1885.640625 0)"/>
     <use xlink:href="#DejaVuSans-4f" transform="translate(1946.828125 0)"/>
     <use xlink:href="#DejaVuSans-4c" transform="translate(1974.609375 0)"/>
     <use xlink:href="#DejaVuSans-46" transform="translate(2002.390625 0)"/>
     <use xlink:href="#DejaVuSans-4c" transform="translate(2057.375 0)"/>
     <use xlink:href="#DejaVuSans-48" transform="translate(2085.15625 0)"/>
     <use xlink:href="#DejaVuSans-56" transform="translate(2146.6875 0)"/>
     <use xlink:href="#DejaVuSans-3" transform="translate(2198.78125 0)"/>
     <use xlink:href="#DejaVuSans-3d3" transform="translate(2230.5625 0)"/>
     <use xlink:href="#DejaVuSans-3d2" transform="translate(2295.9375 0)"/>
     <use xlink:href="#DejaVuSans-3" transform="translate(2357.125 0)"/>
     <use xlink:href="#DejaVuSans-3db" transform="translate(2388.90625 0)"/>
     <use xlink:href="#DejaVuSans-3cc" transform="translate(2447.984375 0)"/>
     <use xlink:href="#DejaVuSans-3d5" transform="translate(2512.96875 0)"/>
     <use xlink:href="#DejaVuSans-3cf" transform="translate(2567.953125 0)"/>
     <use xlink:href="#DejaVuSans-3d7" transform="translate(2631.875 0)"/>
     <use xlink:href="#DejaVuSans-3" transform="translate(2691.0625 0)"/>
     <use xlink:href="#DejaVuSans-3d2" transform="translate(2722.84375 0)"/>
     <use xlink:href="#DejaVuSans-3dc" transform="translate(2784.03125 0)"/>
     <use xlink:href="#DejaVuSans-3cc" transform="translate(2875.53125 0)"/>
     <use xlink:href="#DejaVuSans-3c5" transform="translate(2940.515625 0)"/>
     <use xlink:href="#DejaVuSans-3d2" transform="translate(3002.1875 0)"/>
     <use xlink:href="#DejaVuSans-3ce" transform="translate(3063.375 0)"/>
    </g>
   </g>
   <g id="legend_1">
    <g id="patch_13">
     <path d="M 447.994832 60.524062 
L 642.19952 60.524062 
Q 644.19952 60.524062 644.19952 58.524062 
L 644.19952 29.5225 
Q 644.19952 27.5225 642.19952 27.5225 
L 447.994832 27.5225 
Q 445.994832 27.5225 445.994832 29.5225 
L 445.994832 58.524062 
Q 445.994832 60.524062 447.994832 60.524062 
z
" style="fill: #ffffff; opacity: 0.8; stroke: #cccccc; stroke-linejoin: miter"/>
    </g>
    <g id="patch_14">
     <path d="M 449.994832 39.120937 
L 469.994832 39.120937 
L 469.994832 32.120937 
L 449.994832 32.120937 
z
" style="fill: #1f77b4"/>
    </g>
    <g id="text_21">
     <!-- False accepts, ложные допуски -->
     <g transform="translate(477.994832 39.120937) scale(0.1 -0.1)">
      <defs>
       <path id="DejaVuSans-29" d="M 628 4666 
L 3309 4666 
L 3309 4134 
L 1259 4134 
L 1259 2759 
L 3109 2759 
L 3109 2228 
L 1259 2228 
L 1259 0 
L 628 0 
L 628 4666 
z
" transform="scale(0.015625)"/>
       <path id="DejaVuSans-57" d="M 1172 4494 
L 1172 3500 
L 2356 3500 
L 2356 3053 
L 1172 3053 
L 1172 1153 
Q 1172 725 1289 603 
Q 1406 481 1766 481 
L 2356 481 
L 2356 0 
L 1766 0 
Q 1100 0 847 248 
Q 594 497 594 1153 
L 594 3053 
L 172 3053 
L 172 3500 
L 594 3500 
L 594 4494 
L 1172 4494 
z
" transform="scale(0.015625)"/>
       <path id="DejaVuSans-3ca" d="M 2597 3500 
L 3169 3500 
L 3169 1856 
L 4697 3500 
L 5366 3500 
L 4109 2153 
L 5547 0 
L 4931 0 
L 3753 1769 
L 3169 1141 
L 3169 0 
L 2597 0 
L 2597 1141 
L 2013 1769 
L 834 0 
L 219 0 
L 1656 2153 
L 400 3500 
L 1069 3500 
L 2597 1856 
L 2597 3500 
z
" transform="scale(0.015625)"/>
       <path id="DejaVuSans-3df" d="M 3909 3500 
L 4484 3500 
L 4484 0 
L 3909 0 
L 3909 3500 
z
M 4197 3584 
L 4197 3584 
z
M 2781 1038 
Q 2781 1319 2576 1466 
Q 2372 1613 1978 1613 
L 1159 1613 
L 1159 459 
L 1978 459 
Q 2372 459 2576 607 
Q 2781 756 2781 1038 
z
M 581 3500 
L 1159 3500 
L 1159 2072 
L 2003 2072 
Q 2672 2072 3033 1817 
Q 3394 1563 3394 1038 
Q 3394 513 3033 256 
Q 2672 0 2003 0 
L 581 0 
L 581 3500 
z
" transform="scale(0.015625)"/>
       <path id="DejaVuSans-3c8" d="M 1384 459 
L 3053 459 
L 3053 3041 
L 1844 3041 
L 1844 2603 
Q 1844 1316 1475 628 
L 1384 459 
z
M 550 459 
Q 834 584 959 850 
Q 1266 1509 1266 2838 
L 1266 3500 
L 3631 3500 
L 3631 459 
L 4091 459 
L 4091 -884 
L 3631 -884 
L 3631 0 
L 794 0 
L 794 -884 
L 334 -884 
L 334 459 
L 550 459 
z
" transform="scale(0.015625)"/>
      </defs>
      <use xlink:href="#DejaVuSans-29"/>
      <use xlink:href="#DejaVuSans-44" transform="translate(48.34375 0)"/>
      <use xlink:href="#DejaVuSans-4f" transform="translate(109.625 0)"/>
      <use xlink:href="#DejaVuSans-56" transform="translate(137.40625 0)"/>
      <use xlink:href="#DejaVuSans-48" transform="translate(189.5 0)"/>
      <use xlink:href="#DejaVuSans-3" transform="translate(251.03125 0)"/>
      <use xlink:href="#DejaVuSans-44" transform="translate(282.8125 0)"/>
      <use xlink:href="#DejaVuSans-46" transform="translate(344.09375 0)"/>
      <use xlink:href="#DejaVuSans-46" transform="translate(399.078125 0)"/>
      <use xlink:href="#DejaVuSans-48" transform="translate(454.0625 0)"/>
      <use xlink:href="#DejaVuSans-53" transform="translate(515.59375 0)"/>
      <use xlink:href="#DejaVuSans-57" transform="translate(579.078125 0)"/>
      <use xlink:href="#DejaVuSans-56" transform="translate(618.28125 0)"/>
      <use xlink:href="#DejaVuSans-f" transform="translate(670.375 0)"/>
      <use xlink:href="#DejaVuSans-3" transform="translate(702.15625 0)"/>
      <use xlink:href="#DejaVuSans-3cf" transform="translate(733.9375 0)"/>
      <use xlink:href="#DejaVuSans-3d2" transform="translate(797.859375 0)"/>
      <use xlink:href="#DejaVuSans-3ca" transform="translate(859.046875 0)"/>
      <use xlink:href="#DejaVuSans-3d1" transform="translate(949.140625 0)"/>
      <use xlink:href="#DejaVuSans-3df" transform="translate(1014.515625 0)"/>
      <use xlink:href="#DejaVuSans-3c9" transform="translate(1093.46875 0)"/>
      <use xlink:href="#DejaVuSans-3" transform="translate(1155 0)"/>
      <use xlink:href="#DejaVuSans-3c8" transform="translate(1186.78125 0)"/>
      <use xlink:href="#DejaVuSans-3d2" transform="translate(1255.921875 0)"/>
      <use xlink:href="#DejaVuSans-3d3" transform="translate(1317.109375 0)"/>
      <use xlink:href="#DejaVuSans-3d7" transform="translate(1382.484375 0)"/>
      <use xlink:href="#DejaVuSans-3d5" transform="translate(1441.671875 0)"/>
      <use xlink:href="#DejaVuSans-3ce" transform="translate(1496.65625 0)"/>
      <use xlink:href="#DejaVuSans-3cc" transform="translate(1557.0625 0)"/>
     </g>
    </g>
    <g id="patch_15">
     <path d="M 449.994832 54.121719 
L 469.994832 54.121719 
L 469.994832 47.121719 
L 449.994832 47.121719 
z
" style="fill: #ff7f0e"/>
    </g>
    <g id="text_22">
     <!-- False rejects, ложные отказы -->
     <g transform="translate(477.994832 54.121719) scale(0.1 -0.1)">
      <defs>
       <path id="DejaVuSans-4d" d="M 603 3500 
L 1178 3500 
L 1178 -63 
Q 1178 -731 923 -1031 
Q 669 -1331 103 -1331 
L -116 -1331 
L -116 -844 
L 38 -844 
Q 366 -844 484 -692 
Q 603 -541 603 -63 
L 603 3500 
z
M 603 4863 
L 1178 4863 
L 1178 4134 
L 603 4134 
L 603 4863 
z
" transform="scale(0.015625)"/>
       <path id="DejaVuSans-3cb" d="M 2206 1888 
Q 2594 1813 2809 1584 
Q 3025 1356 3025 1019 
Q 3025 478 2622 193 
Q 2219 -91 1475 -91 
Q 1225 -91 961 -47 
Q 697 -3 416 84 
L 416 619 
Q 638 503 903 445 
Q 1169 388 1459 388 
Q 1931 388 2195 563 
Q 2459 738 2459 1019 
Q 2459 1294 2225 1461 
Q 1991 1628 1563 1628 
L 1100 1628 
L 1100 2103 
L 1584 2103 
Q 1947 2103 2158 2242 
Q 2369 2381 2369 2600 
Q 2369 2800 2151 2944 
Q 1934 3088 1563 3088 
Q 1341 3088 1089 3047 
Q 838 3006 534 2916 
L 534 3438 
Q 841 3513 1106 3550 
Q 1372 3588 1609 3588 
Q 2222 3588 2576 3342 
Q 2931 3097 2931 2656 
Q 2931 2366 2743 2164 
Q 2556 1963 2206 1888 
z
" transform="scale(0.015625)"/>
      </defs>
      <use xlink:href="#DejaVuSans-29"/>
      <use xlink:href="#DejaVuSans-44" transform="translate(48.34375 0)"/>
      <use xlink:href="#DejaVuSans-4f" transform="translate(109.625 0)"/>
      <use xlink:href="#DejaVuSans-56" transform="translate(137.40625 0)"/>
      <use xlink:href="#DejaVuSans-48" transform="translate(189.5 0)"/>
      <use xlink:href="#DejaVuSans-3" transform="translate(251.03125 0)"/>
      <use xlink:href="#DejaVuSans-55" transform="translate(282.8125 0)"/>
      <use xlink:href="#DejaVuSans-48" transform="translate(321.71875 0)"/>
      <use xlink:href="#DejaVuSans-4d" transform="translate(383.25 0)"/>
      <use xlink:href="#DejaVuSans-48" transform="translate(411.03125 0)"/>
      <use xlink:href="#DejaVuSans-46" transform="translate(472.5625 0)"/>
      <use xlink:href="#DejaVuSans-57" transform="translate(527.546875 0)"/>
      <use xlink:href="#DejaVuSans-56" transform="translate(566.75 0)"/>
      <use xlink:href="#DejaVuSans-f" transform="translate(618.84375 0)"/>
      <use xlink:href="#DejaVuSans-3" transform="translate(650.625 0)"/>
      <use xlink:href="#DejaVuSans-3cf" transform="translate(682.40625 0)"/>
      <use xlink:href="#DejaVuSans-3d2" transform="translate(746.328125 0)"/>
      <use xlink:href="#DejaVuSans-3ca" transform="translate(807.515625 0)"/>
      <use xlink:href="#DejaVuSans-3d1" transform="translate(897.609375 0)"/>
      <use xlink:href="#DejaVuSans-3df" transform="translate(962.984375 0)"/>
      <use xlink:href="#DejaVuSans-3c9" transform="translate(1041.9375 0)"/>
      <use xlink:href="#DejaVuSans-3" transform="translate(1103.46875 0)"/>
      <use xlink:href="#DejaVuSans-3d2" transform="translate(1135.25 0)"/>
      <use xlink:href="#DejaVuSans-3d6" transform="translate(1196.4375 0)"/>
      <use xlink:href="#DejaVuSans-3ce" transform="translate(1254.6875 0)"/>
      <use xlink:href="#DejaVuSans-3c4" transform="translate(1315.09375 0)"/>
      <use xlink:href="#DejaVuSans-3cb" transform="translate(1376.375 0)"/>
      <use xlink:href="#DejaVuSans-3df" transform="translate(1429.546875 0)"/>
     </g>
    </g>
   </g>
  </g>
 </g>
 <defs>
  <clipPath id="p43a3df7095">
   <rect x="53.821094" y="22.5225" width="595.378426" height="379.676239"/>
  </clipPath>
 </defs>
</svg>
